%TF.GenerationSoftware,KiCad,Pcbnew,8.0.3*%
%TF.CreationDate,2024-07-01T16:26:18+02:00*%
%TF.ProjectId,bottomPCB,626f7474-6f6d-4504-9342-2e6b69636164,rev?*%
%TF.SameCoordinates,Original*%
%TF.FileFunction,Drillmap*%
%TF.FilePolarity,Positive*%
%FSLAX45Y45*%
G04 Gerber Fmt 4.5, Leading zero omitted, Abs format (unit mm)*
G04 Created by KiCad (PCBNEW 8.0.3) date 2024-07-01 16:26:18*
%MOMM*%
%LPD*%
G01*
G04 APERTURE LIST*
%ADD10C,0.050000*%
%ADD11C,0.200000*%
%ADD12C,0.218000*%
G04 APERTURE END LIST*
D10*
X-2800000Y1700000D02*
X-1900000Y2600000D01*
X10239000Y-3200000D02*
X10239000Y1700000D01*
X-1550000Y-10239000D02*
X3550000Y-10239000D01*
X4800000Y1700000D02*
X3900000Y2600000D01*
X-8239000Y-3200000D02*
X-1550000Y-3200000D01*
X-1550000Y-3200000D02*
X-1550000Y-10239000D01*
X4800000Y1700000D02*
X10239000Y1700000D01*
X-8239000Y-3200000D02*
X-8239000Y1700000D01*
X3550000Y-3200000D02*
X3550000Y-10239000D01*
X10239000Y-3200000D02*
X3550000Y-3200000D01*
X3900000Y2600000D02*
X-1900000Y2600000D01*
X-2800000Y1700000D02*
X-8239000Y1700000D01*
D11*
D12*
X3008000Y-384000D02*
X3226000Y-602000D01*
X3226000Y-384000D02*
X3008000Y-602000D01*
X4358000Y1216000D02*
X4576000Y998000D01*
X4576000Y1216000D02*
X4358000Y998000D01*
D11*
X-7980723Y-10552984D02*
X-7980723Y-10352984D01*
X-7980723Y-10352984D02*
X-7933104Y-10352984D01*
X-7933104Y-10352984D02*
X-7904533Y-10362508D01*
X-7904533Y-10362508D02*
X-7885485Y-10381555D01*
X-7885485Y-10381555D02*
X-7875961Y-10400603D01*
X-7875961Y-10400603D02*
X-7866437Y-10438698D01*
X-7866437Y-10438698D02*
X-7866437Y-10467270D01*
X-7866437Y-10467270D02*
X-7875961Y-10505365D01*
X-7875961Y-10505365D02*
X-7885485Y-10524412D01*
X-7885485Y-10524412D02*
X-7904533Y-10543460D01*
X-7904533Y-10543460D02*
X-7933104Y-10552984D01*
X-7933104Y-10552984D02*
X-7980723Y-10552984D01*
X-7780723Y-10552984D02*
X-7780723Y-10419650D01*
X-7780723Y-10457746D02*
X-7771199Y-10438698D01*
X-7771199Y-10438698D02*
X-7761675Y-10429174D01*
X-7761675Y-10429174D02*
X-7742628Y-10419650D01*
X-7742628Y-10419650D02*
X-7723580Y-10419650D01*
X-7656914Y-10552984D02*
X-7656914Y-10419650D01*
X-7656914Y-10352984D02*
X-7666437Y-10362508D01*
X-7666437Y-10362508D02*
X-7656914Y-10372031D01*
X-7656914Y-10372031D02*
X-7647390Y-10362508D01*
X-7647390Y-10362508D02*
X-7656914Y-10352984D01*
X-7656914Y-10352984D02*
X-7656914Y-10372031D01*
X-7533104Y-10552984D02*
X-7552152Y-10543460D01*
X-7552152Y-10543460D02*
X-7561675Y-10524412D01*
X-7561675Y-10524412D02*
X-7561675Y-10352984D01*
X-7428342Y-10552984D02*
X-7447390Y-10543460D01*
X-7447390Y-10543460D02*
X-7456914Y-10524412D01*
X-7456914Y-10524412D02*
X-7456914Y-10352984D01*
X-7199771Y-10552984D02*
X-7199771Y-10352984D01*
X-7199771Y-10352984D02*
X-7133104Y-10495841D01*
X-7133104Y-10495841D02*
X-7066437Y-10352984D01*
X-7066437Y-10352984D02*
X-7066437Y-10552984D01*
X-6885485Y-10552984D02*
X-6885485Y-10448222D01*
X-6885485Y-10448222D02*
X-6895009Y-10429174D01*
X-6895009Y-10429174D02*
X-6914056Y-10419650D01*
X-6914056Y-10419650D02*
X-6952152Y-10419650D01*
X-6952152Y-10419650D02*
X-6971199Y-10429174D01*
X-6885485Y-10543460D02*
X-6904533Y-10552984D01*
X-6904533Y-10552984D02*
X-6952152Y-10552984D01*
X-6952152Y-10552984D02*
X-6971199Y-10543460D01*
X-6971199Y-10543460D02*
X-6980723Y-10524412D01*
X-6980723Y-10524412D02*
X-6980723Y-10505365D01*
X-6980723Y-10505365D02*
X-6971199Y-10486317D01*
X-6971199Y-10486317D02*
X-6952152Y-10476793D01*
X-6952152Y-10476793D02*
X-6904533Y-10476793D01*
X-6904533Y-10476793D02*
X-6885485Y-10467270D01*
X-6790247Y-10419650D02*
X-6790247Y-10619650D01*
X-6790247Y-10429174D02*
X-6771199Y-10419650D01*
X-6771199Y-10419650D02*
X-6733104Y-10419650D01*
X-6733104Y-10419650D02*
X-6714056Y-10429174D01*
X-6714056Y-10429174D02*
X-6704533Y-10438698D01*
X-6704533Y-10438698D02*
X-6695009Y-10457746D01*
X-6695009Y-10457746D02*
X-6695009Y-10514889D01*
X-6695009Y-10514889D02*
X-6704533Y-10533936D01*
X-6704533Y-10533936D02*
X-6714056Y-10543460D01*
X-6714056Y-10543460D02*
X-6733104Y-10552984D01*
X-6733104Y-10552984D02*
X-6771199Y-10552984D01*
X-6771199Y-10552984D02*
X-6790247Y-10543460D01*
X-6609294Y-10533936D02*
X-6599771Y-10543460D01*
X-6599771Y-10543460D02*
X-6609294Y-10552984D01*
X-6609294Y-10552984D02*
X-6618818Y-10543460D01*
X-6618818Y-10543460D02*
X-6609294Y-10533936D01*
X-6609294Y-10533936D02*
X-6609294Y-10552984D01*
X-6609294Y-10429174D02*
X-6599771Y-10438698D01*
X-6599771Y-10438698D02*
X-6609294Y-10448222D01*
X-6609294Y-10448222D02*
X-6618818Y-10438698D01*
X-6618818Y-10438698D02*
X-6609294Y-10429174D01*
X-6609294Y-10429174D02*
X-6609294Y-10448222D01*
X-8441500Y-10781500D02*
X-8241500Y-10981500D01*
X-8241500Y-10781500D02*
X-8441500Y-10981500D01*
X-7990247Y-10792031D02*
X-7980723Y-10782508D01*
X-7980723Y-10782508D02*
X-7961675Y-10772984D01*
X-7961675Y-10772984D02*
X-7914056Y-10772984D01*
X-7914056Y-10772984D02*
X-7895009Y-10782508D01*
X-7895009Y-10782508D02*
X-7885485Y-10792031D01*
X-7885485Y-10792031D02*
X-7875961Y-10811079D01*
X-7875961Y-10811079D02*
X-7875961Y-10830127D01*
X-7875961Y-10830127D02*
X-7885485Y-10858698D01*
X-7885485Y-10858698D02*
X-7999771Y-10972984D01*
X-7999771Y-10972984D02*
X-7875961Y-10972984D01*
X-7790247Y-10953936D02*
X-7780723Y-10963460D01*
X-7780723Y-10963460D02*
X-7790247Y-10972984D01*
X-7790247Y-10972984D02*
X-7799771Y-10963460D01*
X-7799771Y-10963460D02*
X-7790247Y-10953936D01*
X-7790247Y-10953936D02*
X-7790247Y-10972984D01*
X-7590247Y-10972984D02*
X-7704533Y-10972984D01*
X-7647390Y-10972984D02*
X-7647390Y-10772984D01*
X-7647390Y-10772984D02*
X-7666437Y-10801555D01*
X-7666437Y-10801555D02*
X-7685485Y-10820603D01*
X-7685485Y-10820603D02*
X-7704533Y-10830127D01*
X-7475961Y-10858698D02*
X-7495009Y-10849174D01*
X-7495009Y-10849174D02*
X-7504533Y-10839650D01*
X-7504533Y-10839650D02*
X-7514056Y-10820603D01*
X-7514056Y-10820603D02*
X-7514056Y-10811079D01*
X-7514056Y-10811079D02*
X-7504533Y-10792031D01*
X-7504533Y-10792031D02*
X-7495009Y-10782508D01*
X-7495009Y-10782508D02*
X-7475961Y-10772984D01*
X-7475961Y-10772984D02*
X-7437866Y-10772984D01*
X-7437866Y-10772984D02*
X-7418818Y-10782508D01*
X-7418818Y-10782508D02*
X-7409294Y-10792031D01*
X-7409294Y-10792031D02*
X-7399771Y-10811079D01*
X-7399771Y-10811079D02*
X-7399771Y-10820603D01*
X-7399771Y-10820603D02*
X-7409294Y-10839650D01*
X-7409294Y-10839650D02*
X-7418818Y-10849174D01*
X-7418818Y-10849174D02*
X-7437866Y-10858698D01*
X-7437866Y-10858698D02*
X-7475961Y-10858698D01*
X-7475961Y-10858698D02*
X-7495009Y-10868222D01*
X-7495009Y-10868222D02*
X-7504533Y-10877746D01*
X-7504533Y-10877746D02*
X-7514056Y-10896793D01*
X-7514056Y-10896793D02*
X-7514056Y-10934889D01*
X-7514056Y-10934889D02*
X-7504533Y-10953936D01*
X-7504533Y-10953936D02*
X-7495009Y-10963460D01*
X-7495009Y-10963460D02*
X-7475961Y-10972984D01*
X-7475961Y-10972984D02*
X-7437866Y-10972984D01*
X-7437866Y-10972984D02*
X-7418818Y-10963460D01*
X-7418818Y-10963460D02*
X-7409294Y-10953936D01*
X-7409294Y-10953936D02*
X-7399771Y-10934889D01*
X-7399771Y-10934889D02*
X-7399771Y-10896793D01*
X-7399771Y-10896793D02*
X-7409294Y-10877746D01*
X-7409294Y-10877746D02*
X-7418818Y-10868222D01*
X-7418818Y-10868222D02*
X-7437866Y-10858698D01*
X-7275961Y-10772984D02*
X-7256913Y-10772984D01*
X-7256913Y-10772984D02*
X-7237866Y-10782508D01*
X-7237866Y-10782508D02*
X-7228342Y-10792031D01*
X-7228342Y-10792031D02*
X-7218818Y-10811079D01*
X-7218818Y-10811079D02*
X-7209294Y-10849174D01*
X-7209294Y-10849174D02*
X-7209294Y-10896793D01*
X-7209294Y-10896793D02*
X-7218818Y-10934889D01*
X-7218818Y-10934889D02*
X-7228342Y-10953936D01*
X-7228342Y-10953936D02*
X-7237866Y-10963460D01*
X-7237866Y-10963460D02*
X-7256913Y-10972984D01*
X-7256913Y-10972984D02*
X-7275961Y-10972984D01*
X-7275961Y-10972984D02*
X-7295009Y-10963460D01*
X-7295009Y-10963460D02*
X-7304533Y-10953936D01*
X-7304533Y-10953936D02*
X-7314056Y-10934889D01*
X-7314056Y-10934889D02*
X-7323580Y-10896793D01*
X-7323580Y-10896793D02*
X-7323580Y-10849174D01*
X-7323580Y-10849174D02*
X-7314056Y-10811079D01*
X-7314056Y-10811079D02*
X-7304533Y-10792031D01*
X-7304533Y-10792031D02*
X-7295009Y-10782508D01*
X-7295009Y-10782508D02*
X-7275961Y-10772984D01*
X-7123580Y-10972984D02*
X-7123580Y-10839650D01*
X-7123580Y-10858698D02*
X-7114056Y-10849174D01*
X-7114056Y-10849174D02*
X-7095009Y-10839650D01*
X-7095009Y-10839650D02*
X-7066437Y-10839650D01*
X-7066437Y-10839650D02*
X-7047390Y-10849174D01*
X-7047390Y-10849174D02*
X-7037866Y-10868222D01*
X-7037866Y-10868222D02*
X-7037866Y-10972984D01*
X-7037866Y-10868222D02*
X-7028342Y-10849174D01*
X-7028342Y-10849174D02*
X-7009294Y-10839650D01*
X-7009294Y-10839650D02*
X-6980723Y-10839650D01*
X-6980723Y-10839650D02*
X-6961675Y-10849174D01*
X-6961675Y-10849174D02*
X-6952152Y-10868222D01*
X-6952152Y-10868222D02*
X-6952152Y-10972984D01*
X-6856913Y-10972984D02*
X-6856913Y-10839650D01*
X-6856913Y-10858698D02*
X-6847390Y-10849174D01*
X-6847390Y-10849174D02*
X-6828342Y-10839650D01*
X-6828342Y-10839650D02*
X-6799771Y-10839650D01*
X-6799771Y-10839650D02*
X-6780723Y-10849174D01*
X-6780723Y-10849174D02*
X-6771199Y-10868222D01*
X-6771199Y-10868222D02*
X-6771199Y-10972984D01*
X-6771199Y-10868222D02*
X-6761675Y-10849174D01*
X-6761675Y-10849174D02*
X-6742628Y-10839650D01*
X-6742628Y-10839650D02*
X-6714056Y-10839650D01*
X-6714056Y-10839650D02*
X-6695009Y-10849174D01*
X-6695009Y-10849174D02*
X-6685485Y-10868222D01*
X-6685485Y-10868222D02*
X-6685485Y-10972984D01*
X-6295009Y-10763460D02*
X-6466437Y-11020603D01*
X-6037866Y-10772984D02*
X-6018818Y-10772984D01*
X-6018818Y-10772984D02*
X-5999770Y-10782508D01*
X-5999770Y-10782508D02*
X-5990247Y-10792031D01*
X-5990247Y-10792031D02*
X-5980723Y-10811079D01*
X-5980723Y-10811079D02*
X-5971199Y-10849174D01*
X-5971199Y-10849174D02*
X-5971199Y-10896793D01*
X-5971199Y-10896793D02*
X-5980723Y-10934889D01*
X-5980723Y-10934889D02*
X-5990247Y-10953936D01*
X-5990247Y-10953936D02*
X-5999770Y-10963460D01*
X-5999770Y-10963460D02*
X-6018818Y-10972984D01*
X-6018818Y-10972984D02*
X-6037866Y-10972984D01*
X-6037866Y-10972984D02*
X-6056913Y-10963460D01*
X-6056913Y-10963460D02*
X-6066437Y-10953936D01*
X-6066437Y-10953936D02*
X-6075961Y-10934889D01*
X-6075961Y-10934889D02*
X-6085485Y-10896793D01*
X-6085485Y-10896793D02*
X-6085485Y-10849174D01*
X-6085485Y-10849174D02*
X-6075961Y-10811079D01*
X-6075961Y-10811079D02*
X-6066437Y-10792031D01*
X-6066437Y-10792031D02*
X-6056913Y-10782508D01*
X-6056913Y-10782508D02*
X-6037866Y-10772984D01*
X-5885485Y-10953936D02*
X-5875961Y-10963460D01*
X-5875961Y-10963460D02*
X-5885485Y-10972984D01*
X-5885485Y-10972984D02*
X-5895009Y-10963460D01*
X-5895009Y-10963460D02*
X-5885485Y-10953936D01*
X-5885485Y-10953936D02*
X-5885485Y-10972984D01*
X-5752151Y-10772984D02*
X-5733104Y-10772984D01*
X-5733104Y-10772984D02*
X-5714056Y-10782508D01*
X-5714056Y-10782508D02*
X-5704532Y-10792031D01*
X-5704532Y-10792031D02*
X-5695009Y-10811079D01*
X-5695009Y-10811079D02*
X-5685485Y-10849174D01*
X-5685485Y-10849174D02*
X-5685485Y-10896793D01*
X-5685485Y-10896793D02*
X-5695009Y-10934889D01*
X-5695009Y-10934889D02*
X-5704532Y-10953936D01*
X-5704532Y-10953936D02*
X-5714056Y-10963460D01*
X-5714056Y-10963460D02*
X-5733104Y-10972984D01*
X-5733104Y-10972984D02*
X-5752151Y-10972984D01*
X-5752151Y-10972984D02*
X-5771199Y-10963460D01*
X-5771199Y-10963460D02*
X-5780723Y-10953936D01*
X-5780723Y-10953936D02*
X-5790247Y-10934889D01*
X-5790247Y-10934889D02*
X-5799770Y-10896793D01*
X-5799770Y-10896793D02*
X-5799770Y-10849174D01*
X-5799770Y-10849174D02*
X-5790247Y-10811079D01*
X-5790247Y-10811079D02*
X-5780723Y-10792031D01*
X-5780723Y-10792031D02*
X-5771199Y-10782508D01*
X-5771199Y-10782508D02*
X-5752151Y-10772984D01*
X-5571199Y-10858698D02*
X-5590247Y-10849174D01*
X-5590247Y-10849174D02*
X-5599770Y-10839650D01*
X-5599770Y-10839650D02*
X-5609294Y-10820603D01*
X-5609294Y-10820603D02*
X-5609294Y-10811079D01*
X-5609294Y-10811079D02*
X-5599770Y-10792031D01*
X-5599770Y-10792031D02*
X-5590247Y-10782508D01*
X-5590247Y-10782508D02*
X-5571199Y-10772984D01*
X-5571199Y-10772984D02*
X-5533104Y-10772984D01*
X-5533104Y-10772984D02*
X-5514056Y-10782508D01*
X-5514056Y-10782508D02*
X-5504532Y-10792031D01*
X-5504532Y-10792031D02*
X-5495009Y-10811079D01*
X-5495009Y-10811079D02*
X-5495009Y-10820603D01*
X-5495009Y-10820603D02*
X-5504532Y-10839650D01*
X-5504532Y-10839650D02*
X-5514056Y-10849174D01*
X-5514056Y-10849174D02*
X-5533104Y-10858698D01*
X-5533104Y-10858698D02*
X-5571199Y-10858698D01*
X-5571199Y-10858698D02*
X-5590247Y-10868222D01*
X-5590247Y-10868222D02*
X-5599770Y-10877746D01*
X-5599770Y-10877746D02*
X-5609294Y-10896793D01*
X-5609294Y-10896793D02*
X-5609294Y-10934889D01*
X-5609294Y-10934889D02*
X-5599770Y-10953936D01*
X-5599770Y-10953936D02*
X-5590247Y-10963460D01*
X-5590247Y-10963460D02*
X-5571199Y-10972984D01*
X-5571199Y-10972984D02*
X-5533104Y-10972984D01*
X-5533104Y-10972984D02*
X-5514056Y-10963460D01*
X-5514056Y-10963460D02*
X-5504532Y-10953936D01*
X-5504532Y-10953936D02*
X-5495009Y-10934889D01*
X-5495009Y-10934889D02*
X-5495009Y-10896793D01*
X-5495009Y-10896793D02*
X-5504532Y-10877746D01*
X-5504532Y-10877746D02*
X-5514056Y-10868222D01*
X-5514056Y-10868222D02*
X-5533104Y-10858698D01*
X-5314056Y-10772984D02*
X-5409294Y-10772984D01*
X-5409294Y-10772984D02*
X-5418818Y-10868222D01*
X-5418818Y-10868222D02*
X-5409294Y-10858698D01*
X-5409294Y-10858698D02*
X-5390247Y-10849174D01*
X-5390247Y-10849174D02*
X-5342628Y-10849174D01*
X-5342628Y-10849174D02*
X-5323580Y-10858698D01*
X-5323580Y-10858698D02*
X-5314056Y-10868222D01*
X-5314056Y-10868222D02*
X-5304532Y-10887270D01*
X-5304532Y-10887270D02*
X-5304532Y-10934889D01*
X-5304532Y-10934889D02*
X-5314056Y-10953936D01*
X-5314056Y-10953936D02*
X-5323580Y-10963460D01*
X-5323580Y-10963460D02*
X-5342628Y-10972984D01*
X-5342628Y-10972984D02*
X-5390247Y-10972984D01*
X-5390247Y-10972984D02*
X-5409294Y-10963460D01*
X-5409294Y-10963460D02*
X-5418818Y-10953936D01*
X-5190247Y-10858698D02*
X-5209294Y-10849174D01*
X-5209294Y-10849174D02*
X-5218818Y-10839650D01*
X-5218818Y-10839650D02*
X-5228342Y-10820603D01*
X-5228342Y-10820603D02*
X-5228342Y-10811079D01*
X-5228342Y-10811079D02*
X-5218818Y-10792031D01*
X-5218818Y-10792031D02*
X-5209294Y-10782508D01*
X-5209294Y-10782508D02*
X-5190247Y-10772984D01*
X-5190247Y-10772984D02*
X-5152151Y-10772984D01*
X-5152151Y-10772984D02*
X-5133104Y-10782508D01*
X-5133104Y-10782508D02*
X-5123580Y-10792031D01*
X-5123580Y-10792031D02*
X-5114056Y-10811079D01*
X-5114056Y-10811079D02*
X-5114056Y-10820603D01*
X-5114056Y-10820603D02*
X-5123580Y-10839650D01*
X-5123580Y-10839650D02*
X-5133104Y-10849174D01*
X-5133104Y-10849174D02*
X-5152151Y-10858698D01*
X-5152151Y-10858698D02*
X-5190247Y-10858698D01*
X-5190247Y-10858698D02*
X-5209294Y-10868222D01*
X-5209294Y-10868222D02*
X-5218818Y-10877746D01*
X-5218818Y-10877746D02*
X-5228342Y-10896793D01*
X-5228342Y-10896793D02*
X-5228342Y-10934889D01*
X-5228342Y-10934889D02*
X-5218818Y-10953936D01*
X-5218818Y-10953936D02*
X-5209294Y-10963460D01*
X-5209294Y-10963460D02*
X-5190247Y-10972984D01*
X-5190247Y-10972984D02*
X-5152151Y-10972984D01*
X-5152151Y-10972984D02*
X-5133104Y-10963460D01*
X-5133104Y-10963460D02*
X-5123580Y-10953936D01*
X-5123580Y-10953936D02*
X-5114056Y-10934889D01*
X-5114056Y-10934889D02*
X-5114056Y-10896793D01*
X-5114056Y-10896793D02*
X-5123580Y-10877746D01*
X-5123580Y-10877746D02*
X-5133104Y-10868222D01*
X-5133104Y-10868222D02*
X-5152151Y-10858698D01*
X-5037866Y-10772984D02*
X-5037866Y-10811079D01*
X-4961675Y-10772984D02*
X-4961675Y-10811079D01*
X-4666437Y-11049174D02*
X-4675961Y-11039650D01*
X-4675961Y-11039650D02*
X-4695009Y-11011079D01*
X-4695009Y-11011079D02*
X-4704532Y-10992031D01*
X-4704532Y-10992031D02*
X-4714056Y-10963460D01*
X-4714056Y-10963460D02*
X-4723580Y-10915841D01*
X-4723580Y-10915841D02*
X-4723580Y-10877746D01*
X-4723580Y-10877746D02*
X-4714056Y-10830127D01*
X-4714056Y-10830127D02*
X-4704532Y-10801555D01*
X-4704532Y-10801555D02*
X-4695009Y-10782508D01*
X-4695009Y-10782508D02*
X-4675961Y-10753936D01*
X-4675961Y-10753936D02*
X-4666437Y-10744412D01*
X-4599770Y-10792031D02*
X-4590247Y-10782508D01*
X-4590247Y-10782508D02*
X-4571199Y-10772984D01*
X-4571199Y-10772984D02*
X-4523580Y-10772984D01*
X-4523580Y-10772984D02*
X-4504532Y-10782508D01*
X-4504532Y-10782508D02*
X-4495009Y-10792031D01*
X-4495009Y-10792031D02*
X-4485485Y-10811079D01*
X-4485485Y-10811079D02*
X-4485485Y-10830127D01*
X-4485485Y-10830127D02*
X-4495009Y-10858698D01*
X-4495009Y-10858698D02*
X-4609294Y-10972984D01*
X-4609294Y-10972984D02*
X-4485485Y-10972984D01*
X-4247389Y-10972984D02*
X-4247389Y-10772984D01*
X-4161675Y-10972984D02*
X-4161675Y-10868222D01*
X-4161675Y-10868222D02*
X-4171199Y-10849174D01*
X-4171199Y-10849174D02*
X-4190246Y-10839650D01*
X-4190246Y-10839650D02*
X-4218818Y-10839650D01*
X-4218818Y-10839650D02*
X-4237866Y-10849174D01*
X-4237866Y-10849174D02*
X-4247389Y-10858698D01*
X-4037866Y-10972984D02*
X-4056913Y-10963460D01*
X-4056913Y-10963460D02*
X-4066437Y-10953936D01*
X-4066437Y-10953936D02*
X-4075961Y-10934889D01*
X-4075961Y-10934889D02*
X-4075961Y-10877746D01*
X-4075961Y-10877746D02*
X-4066437Y-10858698D01*
X-4066437Y-10858698D02*
X-4056913Y-10849174D01*
X-4056913Y-10849174D02*
X-4037866Y-10839650D01*
X-4037866Y-10839650D02*
X-4009294Y-10839650D01*
X-4009294Y-10839650D02*
X-3990246Y-10849174D01*
X-3990246Y-10849174D02*
X-3980723Y-10858698D01*
X-3980723Y-10858698D02*
X-3971199Y-10877746D01*
X-3971199Y-10877746D02*
X-3971199Y-10934889D01*
X-3971199Y-10934889D02*
X-3980723Y-10953936D01*
X-3980723Y-10953936D02*
X-3990246Y-10963460D01*
X-3990246Y-10963460D02*
X-4009294Y-10972984D01*
X-4009294Y-10972984D02*
X-4037866Y-10972984D01*
X-3856913Y-10972984D02*
X-3875961Y-10963460D01*
X-3875961Y-10963460D02*
X-3885485Y-10944412D01*
X-3885485Y-10944412D02*
X-3885485Y-10772984D01*
X-3704532Y-10963460D02*
X-3723580Y-10972984D01*
X-3723580Y-10972984D02*
X-3761675Y-10972984D01*
X-3761675Y-10972984D02*
X-3780723Y-10963460D01*
X-3780723Y-10963460D02*
X-3790246Y-10944412D01*
X-3790246Y-10944412D02*
X-3790246Y-10868222D01*
X-3790246Y-10868222D02*
X-3780723Y-10849174D01*
X-3780723Y-10849174D02*
X-3761675Y-10839650D01*
X-3761675Y-10839650D02*
X-3723580Y-10839650D01*
X-3723580Y-10839650D02*
X-3704532Y-10849174D01*
X-3704532Y-10849174D02*
X-3695008Y-10868222D01*
X-3695008Y-10868222D02*
X-3695008Y-10887270D01*
X-3695008Y-10887270D02*
X-3790246Y-10906317D01*
X-3618818Y-10963460D02*
X-3599770Y-10972984D01*
X-3599770Y-10972984D02*
X-3561675Y-10972984D01*
X-3561675Y-10972984D02*
X-3542627Y-10963460D01*
X-3542627Y-10963460D02*
X-3533104Y-10944412D01*
X-3533104Y-10944412D02*
X-3533104Y-10934889D01*
X-3533104Y-10934889D02*
X-3542627Y-10915841D01*
X-3542627Y-10915841D02*
X-3561675Y-10906317D01*
X-3561675Y-10906317D02*
X-3590246Y-10906317D01*
X-3590246Y-10906317D02*
X-3609294Y-10896793D01*
X-3609294Y-10896793D02*
X-3618818Y-10877746D01*
X-3618818Y-10877746D02*
X-3618818Y-10868222D01*
X-3618818Y-10868222D02*
X-3609294Y-10849174D01*
X-3609294Y-10849174D02*
X-3590246Y-10839650D01*
X-3590246Y-10839650D02*
X-3561675Y-10839650D01*
X-3561675Y-10839650D02*
X-3542627Y-10849174D01*
X-3466437Y-11049174D02*
X-3456913Y-11039650D01*
X-3456913Y-11039650D02*
X-3437865Y-11011079D01*
X-3437865Y-11011079D02*
X-3428342Y-10992031D01*
X-3428342Y-10992031D02*
X-3418818Y-10963460D01*
X-3418818Y-10963460D02*
X-3409294Y-10915841D01*
X-3409294Y-10915841D02*
X-3409294Y-10877746D01*
X-3409294Y-10877746D02*
X-3418818Y-10830127D01*
X-3418818Y-10830127D02*
X-3428342Y-10801555D01*
X-3428342Y-10801555D02*
X-3437865Y-10782508D01*
X-3437865Y-10782508D02*
X-3456913Y-10753936D01*
X-3456913Y-10753936D02*
X-3466437Y-10744412D01*
X-3104532Y-11049174D02*
X-3114056Y-11039650D01*
X-3114056Y-11039650D02*
X-3133104Y-11011079D01*
X-3133104Y-11011079D02*
X-3142627Y-10992031D01*
X-3142627Y-10992031D02*
X-3152151Y-10963460D01*
X-3152151Y-10963460D02*
X-3161675Y-10915841D01*
X-3161675Y-10915841D02*
X-3161675Y-10877746D01*
X-3161675Y-10877746D02*
X-3152151Y-10830127D01*
X-3152151Y-10830127D02*
X-3142627Y-10801555D01*
X-3142627Y-10801555D02*
X-3133104Y-10782508D01*
X-3133104Y-10782508D02*
X-3114056Y-10753936D01*
X-3114056Y-10753936D02*
X-3104532Y-10744412D01*
X-3028342Y-10839650D02*
X-3028342Y-10972984D01*
X-3028342Y-10858698D02*
X-3018818Y-10849174D01*
X-3018818Y-10849174D02*
X-2999770Y-10839650D01*
X-2999770Y-10839650D02*
X-2971199Y-10839650D01*
X-2971199Y-10839650D02*
X-2952151Y-10849174D01*
X-2952151Y-10849174D02*
X-2942627Y-10868222D01*
X-2942627Y-10868222D02*
X-2942627Y-10972984D01*
X-2818818Y-10972984D02*
X-2837865Y-10963460D01*
X-2837865Y-10963460D02*
X-2847389Y-10953936D01*
X-2847389Y-10953936D02*
X-2856913Y-10934889D01*
X-2856913Y-10934889D02*
X-2856913Y-10877746D01*
X-2856913Y-10877746D02*
X-2847389Y-10858698D01*
X-2847389Y-10858698D02*
X-2837865Y-10849174D01*
X-2837865Y-10849174D02*
X-2818818Y-10839650D01*
X-2818818Y-10839650D02*
X-2790246Y-10839650D01*
X-2790246Y-10839650D02*
X-2771199Y-10849174D01*
X-2771199Y-10849174D02*
X-2761675Y-10858698D01*
X-2761675Y-10858698D02*
X-2752151Y-10877746D01*
X-2752151Y-10877746D02*
X-2752151Y-10934889D01*
X-2752151Y-10934889D02*
X-2761675Y-10953936D01*
X-2761675Y-10953936D02*
X-2771199Y-10963460D01*
X-2771199Y-10963460D02*
X-2790246Y-10972984D01*
X-2790246Y-10972984D02*
X-2818818Y-10972984D01*
X-2695008Y-10839650D02*
X-2618818Y-10839650D01*
X-2666437Y-10772984D02*
X-2666437Y-10944412D01*
X-2666437Y-10944412D02*
X-2656913Y-10963460D01*
X-2656913Y-10963460D02*
X-2637866Y-10972984D01*
X-2637866Y-10972984D02*
X-2618818Y-10972984D01*
X-2399770Y-10839650D02*
X-2399770Y-11039650D01*
X-2399770Y-10849174D02*
X-2380723Y-10839650D01*
X-2380723Y-10839650D02*
X-2342627Y-10839650D01*
X-2342627Y-10839650D02*
X-2323580Y-10849174D01*
X-2323580Y-10849174D02*
X-2314056Y-10858698D01*
X-2314056Y-10858698D02*
X-2304532Y-10877746D01*
X-2304532Y-10877746D02*
X-2304532Y-10934889D01*
X-2304532Y-10934889D02*
X-2314056Y-10953936D01*
X-2314056Y-10953936D02*
X-2323580Y-10963460D01*
X-2323580Y-10963460D02*
X-2342627Y-10972984D01*
X-2342627Y-10972984D02*
X-2380723Y-10972984D01*
X-2380723Y-10972984D02*
X-2399770Y-10963460D01*
X-2190246Y-10972984D02*
X-2209294Y-10963460D01*
X-2209294Y-10963460D02*
X-2218818Y-10944412D01*
X-2218818Y-10944412D02*
X-2218818Y-10772984D01*
X-2028342Y-10972984D02*
X-2028342Y-10868222D01*
X-2028342Y-10868222D02*
X-2037865Y-10849174D01*
X-2037865Y-10849174D02*
X-2056913Y-10839650D01*
X-2056913Y-10839650D02*
X-2095008Y-10839650D01*
X-2095008Y-10839650D02*
X-2114056Y-10849174D01*
X-2028342Y-10963460D02*
X-2047389Y-10972984D01*
X-2047389Y-10972984D02*
X-2095008Y-10972984D01*
X-2095008Y-10972984D02*
X-2114056Y-10963460D01*
X-2114056Y-10963460D02*
X-2123580Y-10944412D01*
X-2123580Y-10944412D02*
X-2123580Y-10925365D01*
X-2123580Y-10925365D02*
X-2114056Y-10906317D01*
X-2114056Y-10906317D02*
X-2095008Y-10896793D01*
X-2095008Y-10896793D02*
X-2047389Y-10896793D01*
X-2047389Y-10896793D02*
X-2028342Y-10887270D01*
X-1961675Y-10839650D02*
X-1885484Y-10839650D01*
X-1933103Y-10772984D02*
X-1933103Y-10944412D01*
X-1933103Y-10944412D02*
X-1923580Y-10963460D01*
X-1923580Y-10963460D02*
X-1904532Y-10972984D01*
X-1904532Y-10972984D02*
X-1885484Y-10972984D01*
X-1742627Y-10963460D02*
X-1761675Y-10972984D01*
X-1761675Y-10972984D02*
X-1799770Y-10972984D01*
X-1799770Y-10972984D02*
X-1818818Y-10963460D01*
X-1818818Y-10963460D02*
X-1828342Y-10944412D01*
X-1828342Y-10944412D02*
X-1828342Y-10868222D01*
X-1828342Y-10868222D02*
X-1818818Y-10849174D01*
X-1818818Y-10849174D02*
X-1799770Y-10839650D01*
X-1799770Y-10839650D02*
X-1761675Y-10839650D01*
X-1761675Y-10839650D02*
X-1742627Y-10849174D01*
X-1742627Y-10849174D02*
X-1733103Y-10868222D01*
X-1733103Y-10868222D02*
X-1733103Y-10887270D01*
X-1733103Y-10887270D02*
X-1828342Y-10906317D01*
X-1561675Y-10972984D02*
X-1561675Y-10772984D01*
X-1561675Y-10963460D02*
X-1580722Y-10972984D01*
X-1580722Y-10972984D02*
X-1618818Y-10972984D01*
X-1618818Y-10972984D02*
X-1637865Y-10963460D01*
X-1637865Y-10963460D02*
X-1647389Y-10953936D01*
X-1647389Y-10953936D02*
X-1656913Y-10934889D01*
X-1656913Y-10934889D02*
X-1656913Y-10877746D01*
X-1656913Y-10877746D02*
X-1647389Y-10858698D01*
X-1647389Y-10858698D02*
X-1637865Y-10849174D01*
X-1637865Y-10849174D02*
X-1618818Y-10839650D01*
X-1618818Y-10839650D02*
X-1580722Y-10839650D01*
X-1580722Y-10839650D02*
X-1561675Y-10849174D01*
X-1485484Y-11049174D02*
X-1475961Y-11039650D01*
X-1475961Y-11039650D02*
X-1456913Y-11011079D01*
X-1456913Y-11011079D02*
X-1447389Y-10992031D01*
X-1447389Y-10992031D02*
X-1437865Y-10963460D01*
X-1437865Y-10963460D02*
X-1428342Y-10915841D01*
X-1428342Y-10915841D02*
X-1428342Y-10877746D01*
X-1428342Y-10877746D02*
X-1437865Y-10830127D01*
X-1437865Y-10830127D02*
X-1447389Y-10801555D01*
X-1447389Y-10801555D02*
X-1456913Y-10782508D01*
X-1456913Y-10782508D02*
X-1475961Y-10753936D01*
X-1475961Y-10753936D02*
X-1485484Y-10744412D01*
M02*
