%TF.GenerationSoftware,KiCad,Pcbnew,8.0.3*%
%TF.CreationDate,2024-07-01T16:21:36+02:00*%
%TF.ProjectId,bottomPCB,626f7474-6f6d-4504-9342-2e6b69636164,rev?*%
%TF.SameCoordinates,Original*%
%TF.FileFunction,Soldermask,Top*%
%TF.FilePolarity,Negative*%
%FSLAX46Y46*%
G04 Gerber Fmt 4.6, Leading zero omitted, Abs format (unit mm)*
G04 Created by KiCad (PCBNEW 8.0.3) date 2024-07-01 16:21:36*
%MOMM*%
%LPD*%
G01*
G04 APERTURE LIST*
%ADD10R,1.308000X1.308000*%
%ADD11R,2.464999X1.050013*%
%ADD12R,2.464999X3.540005*%
%ADD13R,1.650013X4.500000*%
%ADD14C,8.600000*%
%ADD15O,3.016000X1.508000*%
%ADD16R,1.700000X1.700000*%
%ADD17O,1.700000X1.700000*%
%ADD18R,0.806477X0.864008*%
%ADD19R,4.500000X1.650013*%
%ADD20R,2.000000X0.900000*%
%ADD21R,0.900000X2.000000*%
%ADD22R,4.100000X4.100000*%
%ADD23R,0.900000X0.800000*%
%ADD24R,2.264999X1.000000*%
%ADD25R,2.000000X2.000000*%
%ADD26C,2.000000*%
%ADD27R,0.864008X0.806477*%
%ADD28C,3.200000*%
%ADD29C,2.180000*%
%ADD30C,1.530000*%
%ADD31R,1.800000X1.800000*%
%ADD32C,1.800000*%
%ADD33O,1.270000X2.540000*%
%ADD34R,1.108000X1.108000*%
%ADD35C,2.500000*%
%ADD36C,1.524003*%
G04 APERTURE END LIST*
D10*
%TO.C,ESCON-V4*%
X-47574800Y13121400D03*
X-50114800Y13121400D03*
X-52654800Y13121400D03*
X-55194800Y13121400D03*
X-45034800Y13121400D03*
X-57734800Y13121400D03*
%TD*%
D11*
%TO.C,U9*%
X94142495Y2254812D03*
X94142495Y-45163D03*
X94142495Y-2345138D03*
D12*
X99857507Y-45163D03*
%TD*%
D13*
%TO.C,C7*%
X40500000Y-14500127D03*
X40500000Y-23499873D03*
%TD*%
D14*
%TO.C,H2*%
X-75000000Y-25000000D03*
%TD*%
D15*
%TO.C,Taster_LED1*%
X8070000Y-89865000D03*
X8070000Y-92405000D03*
X8070000Y-94945000D03*
X8070000Y-97485000D03*
X30930000Y-97485000D03*
X30930000Y-94945000D03*
X30930000Y-92405000D03*
X30930000Y-89865000D03*
%TD*%
D16*
%TO.C,J4*%
X83600000Y-600000D03*
D17*
X81060000Y-600000D03*
X83600000Y-3140000D03*
X81060000Y-3140000D03*
X83600000Y-5679999D03*
X81060000Y-5680000D03*
%TD*%
D18*
%TO.C,R3*%
X26500000Y-10500000D03*
X24993268Y-10500000D03*
%TD*%
D14*
%TO.C,H1*%
X10000000Y20000000D03*
%TD*%
D19*
%TO.C,C8*%
X26500127Y20000000D03*
X35499873Y20000000D03*
%TD*%
D18*
%TO.C,R8*%
X-1707518Y-75552653D03*
X-200786Y-75552653D03*
%TD*%
D14*
%TO.C,H3*%
X95000000Y-25000000D03*
%TD*%
D10*
%TO.C,ESCON-V3*%
X-44425200Y-27121400D03*
X-41885200Y-27121400D03*
X-39345200Y-27121400D03*
X-36805200Y-27121400D03*
X-46965200Y-27121400D03*
X-34265200Y-27121400D03*
%TD*%
D20*
%TO.C,U2*%
X1769622Y-7823381D03*
X1769622Y-9093384D03*
X1769622Y-10363386D03*
X1769622Y-11633389D03*
X1769622Y-12903391D03*
X1769622Y-14173394D03*
X1769622Y-15443396D03*
X1769622Y-16713399D03*
X1769622Y-17983402D03*
X1769622Y-19253404D03*
X1769622Y-20523407D03*
X1769622Y-21793409D03*
X1769622Y-23063412D03*
X1769622Y-24333414D03*
D21*
X5054610Y-25833541D03*
X6324613Y-25833541D03*
X7594615Y-25833541D03*
X8864618Y-25833541D03*
X10134620Y-25833541D03*
X11404623Y-25833541D03*
X12674625Y-25833541D03*
X13944628Y-25833541D03*
X15214630Y-25833541D03*
X16484633Y-25833541D03*
D20*
X19769622Y-24333414D03*
X19769622Y-23063412D03*
X19769622Y-21793409D03*
X19769622Y-20523407D03*
X19769622Y-19253404D03*
X19769622Y-17983402D03*
X19769622Y-16713399D03*
X19769622Y-15443396D03*
X19769622Y-14173394D03*
X19769622Y-12903391D03*
X19769622Y-11633389D03*
X19769622Y-10363386D03*
X19769622Y-9093384D03*
X19769622Y-7823381D03*
D22*
X10089662Y-15163742D03*
%TD*%
D11*
%TO.C,U8*%
X94142494Y-5700025D03*
X94142494Y-8000000D03*
X94142494Y-10299975D03*
D12*
X99857506Y-8000000D03*
%TD*%
D23*
%TO.C,C3*%
X-5000000Y-8700024D03*
X-5000000Y-7299976D03*
%TD*%
D24*
%TO.C,LED1*%
X-9915036Y-75999746D03*
X-9915037Y-77499873D03*
X-9915036Y-79000000D03*
X-5500000Y-79000000D03*
X-5499999Y-77499873D03*
X-5500000Y-75999746D03*
%TD*%
D18*
%TO.C,R7*%
X22993270Y-26000000D03*
X24500000Y-26000000D03*
%TD*%
D25*
%TO.C,A1*%
X-74156503Y13470003D03*
D26*
X-74156503Y10970003D03*
X-74156503Y8470003D03*
%TD*%
D18*
%TO.C,R9*%
X-1707518Y-77499873D03*
X-200786Y-77499873D03*
%TD*%
%TO.C,R13*%
X-20746634Y-20540000D03*
X-22253366Y-20540000D03*
%TD*%
D27*
%TO.C,R1*%
X-11000000Y-7246634D03*
X-11000000Y-8753366D03*
%TD*%
D10*
%TO.C,ESCON-V2*%
X65425200Y-14878600D03*
X62885200Y-14878600D03*
X60345200Y-14878600D03*
X57805200Y-14878600D03*
X67965200Y-14878600D03*
X55265200Y-14878600D03*
%TD*%
%TO.C,ESCON-V1*%
X67574800Y2878600D03*
X70114800Y2878600D03*
X72654800Y2878600D03*
X75194800Y2878600D03*
X65034800Y2878600D03*
X77734800Y2878600D03*
%TD*%
%TO.C,ESCON-V5*%
X-8621400Y-57074800D03*
X-8621400Y-59614800D03*
X-8621400Y-62154800D03*
X-8621400Y-64694800D03*
X-8621400Y-54534800D03*
X-8621400Y-67234800D03*
%TD*%
D18*
%TO.C,R2*%
X26500000Y-14000000D03*
X24993268Y-14000000D03*
%TD*%
D28*
%TO.C,CN2*%
X-27000000Y-3000000D03*
X-27000000Y-8000000D03*
%TD*%
D16*
%TO.C,LB-S1*%
X-22025000Y-27750000D03*
D17*
X-22025000Y-25210000D03*
%TD*%
D29*
%TO.C,D36V28FX1*%
X44670000Y11070000D03*
X31170000Y-4930000D03*
D30*
X40500000Y9460000D03*
X40500000Y12000000D03*
X37960000Y12000000D03*
X35420000Y12000000D03*
X32880000Y12000000D03*
X30340000Y12000000D03*
%TD*%
D27*
%TO.C,R4*%
X-25500000Y-23746634D03*
X-25500000Y-25253366D03*
%TD*%
D16*
%TO.C,J3*%
X-3750000Y-35475000D03*
D17*
X-1210000Y-35475000D03*
%TD*%
D25*
%TO.C,A2*%
X94156504Y8529997D03*
D26*
X94156504Y11029997D03*
X94156504Y13529997D03*
%TD*%
D27*
%TO.C,R6*%
X-2000000Y-10500000D03*
X-2000000Y-8993268D03*
%TD*%
D16*
%TO.C,J2*%
X-17000000Y-25000000D03*
D17*
X-17000000Y-27540000D03*
X-14460000Y-25000000D03*
X-14460000Y-27540000D03*
X-11920001Y-25000000D03*
X-11920000Y-27540000D03*
%TD*%
D31*
%TO.C,C-Big1*%
X-78813500Y-17270003D03*
D32*
X-78813500Y-14729997D03*
%TD*%
D16*
%TO.C,LB-L1*%
X86025000Y7250000D03*
D17*
X86025000Y4710000D03*
%TD*%
D33*
%TO.C,Kicker1*%
X-21177750Y18713750D03*
X-18637750Y18713750D03*
X-16097750Y18713750D03*
X-13557750Y18713750D03*
X-11017750Y18713750D03*
X-8477750Y18713750D03*
X-5937750Y18713750D03*
X-3397750Y18713750D03*
D34*
X-22447750Y-4146250D03*
D33*
X-11017750Y-3511250D03*
X-8477750Y-3511250D03*
X-5937749Y-3511250D03*
X-3397750Y-3511250D03*
%TD*%
D13*
%TO.C,C4*%
X11000000Y-56500127D03*
X11000000Y-65499873D03*
%TD*%
D18*
%TO.C,R12*%
X-20746634Y-16500000D03*
X-22253366Y-16500000D03*
%TD*%
D35*
%TO.C,U3*%
X-36600000Y-4600000D03*
X-36600000Y-9600000D03*
D32*
X-46600000Y-12600000D03*
X-46600000Y-1600000D03*
%TD*%
D36*
%TO.C,Prog.1*%
X-1500000Y-94500000D03*
X-1500000Y-97040006D03*
X-4040005Y-94499999D03*
X-4040004Y-97040006D03*
X-6580012Y-94500000D03*
X-6580011Y-97040007D03*
X-9120016Y-94500000D03*
X-9120016Y-97040006D03*
%TD*%
D27*
%TO.C,R5*%
X86000000Y2000000D03*
X86000000Y493268D03*
%TD*%
D18*
%TO.C,R11*%
X-20746634Y-18500000D03*
X-22253366Y-18500000D03*
%TD*%
D23*
%TO.C,C6*%
X-32000000Y-8700024D03*
X-32000000Y-7299976D03*
%TD*%
D31*
%TO.C,I2C2*%
X25959994Y-62500000D03*
D32*
X28500000Y-62500000D03*
X25959994Y-65040005D03*
X28500000Y-65040005D03*
X25959994Y-67580010D03*
X28500000Y-67580010D03*
%TD*%
D31*
%TO.C,I2C1*%
X25959994Y-43919990D03*
D32*
X28500000Y-43919990D03*
X25959994Y-46459995D03*
X28500000Y-46459995D03*
X25959994Y-49000000D03*
X28500000Y-49000000D03*
%TD*%
D18*
%TO.C,R10*%
X-1707518Y-79499873D03*
X-200786Y-79499873D03*
%TD*%
D19*
%TO.C,C5*%
X6500127Y-46000000D03*
X15499873Y-46000000D03*
%TD*%
D14*
%TO.C,H4*%
X10000000Y-80000000D03*
%TD*%
M02*
