M48
; DRILL file {KiCad 8.0.3} date 2024-07-01T16:26:03+0200
; FORMAT={-:-/ absolute / metric / decimal}
; #@! TF.CreationDate,2024-07-01T16:26:03+02:00
; #@! TF.GenerationSoftware,Kicad,Pcbnew,8.0.3
; #@! TF.FileFunction,Plated,1,2,PTH
FMAT,2
METRIC
; #@! TA.AperFunction,Plated,PTH,ViaDrill
T1C0.300
; #@! TA.AperFunction,Plated,PTH,ComponentDrill
T2C0.600
; #@! TA.AperFunction,Plated,PTH,ComponentDrill
T3C0.800
; #@! TA.AperFunction,Plated,PTH,ComponentDrill
T4C1.000
; #@! TA.AperFunction,Plated,PTH,ComponentDrill
T5C1.020
; #@! TA.AperFunction,Plated,PTH,ComponentDrill
T6C1.100
; #@! TA.AperFunction,Plated,PTH,ComponentDrill
T7C1.100
; #@! TA.AperFunction,Plated,PTH,ComponentDrill
T8C1.200
; #@! TA.AperFunction,Plated,PTH,ComponentDrill
T9C1.800
; #@! TA.AperFunction,Plated,PTH,ComponentDrill
T10C2.200
; #@! TA.AperFunction,Plated,PTH,ComponentDrill
T11C4.300
%
G90
G05
T1
X-49.0Y-1.0
X-41.5Y6.5
X-34.0Y-19.5
X-19.5Y-19.5
X-19.5Y-21.0
X-19.5Y-28.125
X-19.293Y-22.207
X-18.5Y-18.0
X-10.0Y-85.0
X-7.5Y-20.5
X-7.5Y-22.0
X-6.5Y-37.0
X-4.5Y-71.0
X-4.0Y2.0
X-2.5Y-17.5
X-1.5Y-16.5
X0.0Y-73.0
X1.5Y-79.5
X4.4Y-81.4
X5.0Y-10.5
X5.0Y-22.5
X6.0Y-9.0
X6.6Y-73.8
X9.0Y-32.5
X10.0Y-18.5
X10.0Y-29.0
X11.5Y-31.348
X11.5Y-37.5
X13.407Y-9.093
X13.5Y-21.5
X15.5Y-15.0
X17.0Y-12.0
X18.6Y-27.4
X18.6Y-32.0
X20.0Y-87.0
X20.5Y-25.5
X21.5Y-63.0
X22.5Y-9.363
X23.5Y-12.0
X24.0Y-15.5
X24.0Y-28.5
X24.0Y-34.5
X24.0Y-88.0
X24.5Y-23.5
X26.5Y-34.0
X26.5Y-59.5
X28.0Y-33.0
X30.0Y-36.5
X30.5Y-25.0
X30.75Y-41.75
X31.0Y-55.0
X31.37Y-62.17
X32.5Y-26.5
X32.5Y-53.0
X33.0Y-48.5
X34.0Y-3.0
X35.0Y-28.0
X36.25Y-16.25
X37.0Y-20.5
X37.0Y-28.5
X39.0Y0.0
X42.75Y-19.75
X46.5Y-10.0
X48.5Y-1.0
X52.5Y-11.0
X53.0Y1.0
X53.0Y0.0
X53.5Y-5.5
X53.5Y-6.5
X58.0Y-11.0
X70.5Y-8.5
X87.0Y-9.0
X91.0Y-2.5
X91.5Y-10.0
T2
X-22.448Y-4.146
X-21.178Y18.714
X-18.638Y18.714
X-16.098Y18.714
X-13.558Y18.714
X-11.018Y18.714
X-11.018Y-3.511
X-8.478Y18.714
X-8.478Y-3.511
X-5.938Y18.714
X-5.938Y-3.511
X-3.398Y18.714
X-3.398Y-3.511
T3
X-57.735Y13.121
X-55.195Y13.121
X-52.655Y13.121
X-50.115Y13.121
X-47.575Y13.121
X-46.965Y-27.121
X-45.035Y13.121
X-44.425Y-27.121
X-41.885Y-27.121
X-39.345Y-27.121
X-36.805Y-27.121
X-34.265Y-27.121
X-8.621Y-54.535
X-8.621Y-57.075
X-8.621Y-59.615
X-8.621Y-62.155
X-8.621Y-64.695
X-8.621Y-67.235
X55.265Y-14.879
X57.805Y-14.879
X60.345Y-14.879
X62.885Y-14.879
X65.035Y2.879
X65.425Y-14.879
X67.575Y2.879
X67.965Y-14.879
X70.115Y2.879
X72.655Y2.879
X75.195Y2.879
X77.735Y2.879
T4
X-22.025Y-25.21
X-22.025Y-27.75
X-17.0Y-25.0
X-17.0Y-27.54
X-14.46Y-25.0
X-14.46Y-27.54
X-11.92Y-25.0
X-11.92Y-27.54
X-3.75Y-35.475
X-1.21Y-35.475
X8.07Y-89.865
X8.07Y-92.405
X8.07Y-94.945
X8.07Y-97.485
X30.93Y-89.865
X30.93Y-92.405
X30.93Y-94.945
X30.93Y-97.485
X81.06Y-0.6
X81.06Y-3.14
X81.06Y-5.68
X83.6Y-0.6
X83.6Y-3.14
X83.6Y-5.68
X86.025Y7.25
X86.025Y4.71
T5
X30.34Y12.0
X32.88Y12.0
X35.42Y12.0
X37.96Y12.0
X40.5Y12.0
X40.5Y9.46
T6
X-9.12Y-94.5
X-9.12Y-97.04
X-6.58Y-94.5
X-6.58Y-97.04
X-4.04Y-94.5
X-4.04Y-97.04
X-1.5Y-94.5
X-1.5Y-97.04
T7
X-78.813Y-14.73
X-78.813Y-17.27
X-46.6Y-1.6
X-46.6Y-12.6
X25.96Y-43.92
X25.96Y-46.46
X25.96Y-49.0
X25.96Y-62.5
X25.96Y-65.04
X25.96Y-67.58
X28.5Y-43.92
X28.5Y-46.46
X28.5Y-49.0
X28.5Y-62.5
X28.5Y-65.04
X28.5Y-67.58
T8
X-74.157Y13.47
X-74.157Y10.97
X-74.157Y8.47
X94.157Y13.53
X94.157Y11.03
X94.157Y8.53
T9
X-36.6Y-4.6
X-36.6Y-9.6
T10
X-27.0Y-3.0
X-27.0Y-8.0
T11
X-75.0Y-25.0
X10.0Y20.0
X10.0Y-80.0
X95.0Y-25.0
M30
