%TF.GenerationSoftware,KiCad,Pcbnew,8.0.3*%
%TF.CreationDate,2024-07-01T16:26:18+02:00*%
%TF.ProjectId,bottomPCB,626f7474-6f6d-4504-9342-2e6b69636164,rev?*%
%TF.SameCoordinates,Original*%
%TF.FileFunction,Drillmap*%
%TF.FilePolarity,Positive*%
%FSLAX45Y45*%
G04 Gerber Fmt 4.5, Leading zero omitted, Abs format (unit mm)*
G04 Created by KiCad (PCBNEW 8.0.3) date 2024-07-01 16:26:18*
%MOMM*%
%LPD*%
G01*
G04 APERTURE LIST*
%ADD10C,0.050000*%
%ADD11C,0.200000*%
%ADD12C,0.100000*%
%ADD13C,0.102000*%
%ADD14C,0.109982*%
%ADD15C,0.110002*%
%ADD16C,0.120000*%
%ADD17C,0.180000*%
%ADD18C,0.220000*%
%ADD19C,0.430000*%
G04 APERTURE END LIST*
D10*
X-2800000Y1700000D02*
X-1900000Y2600000D01*
X10239000Y-3200000D02*
X10239000Y1700000D01*
X-1550000Y-10239000D02*
X3550000Y-10239000D01*
X4800000Y1700000D02*
X3900000Y2600000D01*
X-8239000Y-3200000D02*
X-1550000Y-3200000D01*
X-1550000Y-3200000D02*
X-1550000Y-10239000D01*
X4800000Y1700000D02*
X10239000Y1700000D01*
X-8239000Y-3200000D02*
X-8239000Y1700000D01*
X3550000Y-3200000D02*
X3550000Y-10239000D01*
X10239000Y-3200000D02*
X3550000Y-3200000D01*
X3900000Y2600000D02*
X-1900000Y2600000D01*
X-2800000Y1700000D02*
X-8239000Y1700000D01*
D11*
D12*
X-4915000Y-85000D02*
X-4885000Y-115000D01*
X-4885000Y-85000D02*
X-4915000Y-115000D01*
X-4165000Y665000D02*
X-4135000Y635000D01*
X-4135000Y665000D02*
X-4165000Y635000D01*
X-3415000Y-1935000D02*
X-3385000Y-1965000D01*
X-3385000Y-1935000D02*
X-3415000Y-1965000D01*
X-1965000Y-1935000D02*
X-1935000Y-1965000D01*
X-1935000Y-1935000D02*
X-1965000Y-1965000D01*
X-1965000Y-2085000D02*
X-1935000Y-2115000D01*
X-1935000Y-2085000D02*
X-1965000Y-2115000D01*
X-1965000Y-2797500D02*
X-1935000Y-2827500D01*
X-1935000Y-2797500D02*
X-1965000Y-2827500D01*
X-1944289Y-2205711D02*
X-1914289Y-2235711D01*
X-1914289Y-2205711D02*
X-1944289Y-2235711D01*
X-1865000Y-1785000D02*
X-1835000Y-1815000D01*
X-1835000Y-1785000D02*
X-1865000Y-1815000D01*
X-1015000Y-8485000D02*
X-985000Y-8515000D01*
X-985000Y-8485000D02*
X-1015000Y-8515000D01*
X-765000Y-2035000D02*
X-735000Y-2065000D01*
X-735000Y-2035000D02*
X-765000Y-2065000D01*
X-765000Y-2185000D02*
X-735000Y-2215000D01*
X-735000Y-2185000D02*
X-765000Y-2215000D01*
X-665000Y-3685000D02*
X-635000Y-3715000D01*
X-635000Y-3685000D02*
X-665000Y-3715000D01*
X-465000Y-7085000D02*
X-435000Y-7115000D01*
X-435000Y-7085000D02*
X-465000Y-7115000D01*
X-415000Y215000D02*
X-385000Y185000D01*
X-385000Y215000D02*
X-415000Y185000D01*
X-265000Y-1735000D02*
X-235000Y-1765000D01*
X-235000Y-1735000D02*
X-265000Y-1765000D01*
X-165000Y-1635000D02*
X-135000Y-1665000D01*
X-135000Y-1635000D02*
X-165000Y-1665000D01*
X-15000Y-7285000D02*
X15000Y-7315000D01*
X15000Y-7285000D02*
X-15000Y-7315000D01*
X135000Y-7935000D02*
X165000Y-7965000D01*
X165000Y-7935000D02*
X135000Y-7965000D01*
X425000Y-8125000D02*
X455000Y-8155000D01*
X455000Y-8125000D02*
X425000Y-8155000D01*
X485000Y-1035000D02*
X515000Y-1065000D01*
X515000Y-1035000D02*
X485000Y-1065000D01*
X485000Y-2235000D02*
X515000Y-2265000D01*
X515000Y-2235000D02*
X485000Y-2265000D01*
X585000Y-885000D02*
X615000Y-915000D01*
X615000Y-885000D02*
X585000Y-915000D01*
X645000Y-7365000D02*
X675000Y-7395000D01*
X675000Y-7365000D02*
X645000Y-7395000D01*
X885000Y-3235000D02*
X915000Y-3265000D01*
X915000Y-3235000D02*
X885000Y-3265000D01*
X985000Y-1835000D02*
X1015000Y-1865000D01*
X1015000Y-1835000D02*
X985000Y-1865000D01*
X985000Y-2885000D02*
X1015000Y-2915000D01*
X1015000Y-2885000D02*
X985000Y-2915000D01*
X1135000Y-3119817D02*
X1165000Y-3149817D01*
X1165000Y-3119817D02*
X1135000Y-3149817D01*
X1135000Y-3735000D02*
X1165000Y-3765000D01*
X1165000Y-3735000D02*
X1135000Y-3765000D01*
X1325662Y-894338D02*
X1355662Y-924338D01*
X1355662Y-894338D02*
X1325662Y-924338D01*
X1335000Y-2135000D02*
X1365000Y-2165000D01*
X1365000Y-2135000D02*
X1335000Y-2165000D01*
X1535000Y-1485000D02*
X1565000Y-1515000D01*
X1565000Y-1485000D02*
X1535000Y-1515000D01*
X1685000Y-1185000D02*
X1715000Y-1215000D01*
X1715000Y-1185000D02*
X1685000Y-1215000D01*
X1845000Y-2725000D02*
X1875000Y-2755000D01*
X1875000Y-2725000D02*
X1845000Y-2755000D01*
X1845000Y-3185000D02*
X1875000Y-3215000D01*
X1875000Y-3185000D02*
X1845000Y-3215000D01*
X1985000Y-8685000D02*
X2015000Y-8715000D01*
X2015000Y-8685000D02*
X1985000Y-8715000D01*
X2035000Y-2535000D02*
X2065000Y-2565000D01*
X2065000Y-2535000D02*
X2035000Y-2565000D01*
X2135000Y-6285000D02*
X2165000Y-6315000D01*
X2165000Y-6285000D02*
X2135000Y-6315000D01*
X2235000Y-921339D02*
X2265000Y-951339D01*
X2265000Y-921339D02*
X2235000Y-951339D01*
X2335000Y-1185000D02*
X2365000Y-1215000D01*
X2365000Y-1185000D02*
X2335000Y-1215000D01*
X2385000Y-1535000D02*
X2415000Y-1565000D01*
X2415000Y-1535000D02*
X2385000Y-1565000D01*
X2385000Y-2835000D02*
X2415000Y-2865000D01*
X2415000Y-2835000D02*
X2385000Y-2865000D01*
X2385000Y-3435000D02*
X2415000Y-3465000D01*
X2415000Y-3435000D02*
X2385000Y-3465000D01*
X2385000Y-8785000D02*
X2415000Y-8815000D01*
X2415000Y-8785000D02*
X2385000Y-8815000D01*
X2435000Y-2335000D02*
X2465000Y-2365000D01*
X2465000Y-2335000D02*
X2435000Y-2365000D01*
X2635000Y-3385000D02*
X2665000Y-3415000D01*
X2665000Y-3385000D02*
X2635000Y-3415000D01*
X2635000Y-5935000D02*
X2665000Y-5965000D01*
X2665000Y-5935000D02*
X2635000Y-5965000D01*
X2785000Y-3285000D02*
X2815000Y-3315000D01*
X2815000Y-3285000D02*
X2785000Y-3315000D01*
X2985000Y-3635000D02*
X3015000Y-3665000D01*
X3015000Y-3635000D02*
X2985000Y-3665000D01*
X3035000Y-2485000D02*
X3065000Y-2515000D01*
X3065000Y-2485000D02*
X3035000Y-2515000D01*
X3060000Y-4160000D02*
X3090000Y-4190000D01*
X3090000Y-4160000D02*
X3060000Y-4190000D01*
X3085000Y-5485000D02*
X3115000Y-5515000D01*
X3115000Y-5485000D02*
X3085000Y-5515000D01*
X3122000Y-6202000D02*
X3152000Y-6232000D01*
X3152000Y-6202000D02*
X3122000Y-6232000D01*
X3235000Y-2635000D02*
X3265000Y-2665000D01*
X3265000Y-2635000D02*
X3235000Y-2665000D01*
X3235000Y-5285000D02*
X3265000Y-5315000D01*
X3265000Y-5285000D02*
X3235000Y-5315000D01*
X3285000Y-4835000D02*
X3315000Y-4865000D01*
X3315000Y-4835000D02*
X3285000Y-4865000D01*
X3385000Y-285000D02*
X3415000Y-315000D01*
X3415000Y-285000D02*
X3385000Y-315000D01*
X3485000Y-2785000D02*
X3515000Y-2815000D01*
X3515000Y-2785000D02*
X3485000Y-2815000D01*
X3610000Y-1610000D02*
X3640000Y-1640000D01*
X3640000Y-1610000D02*
X3610000Y-1640000D01*
X3685000Y-2035000D02*
X3715000Y-2065000D01*
X3715000Y-2035000D02*
X3685000Y-2065000D01*
X3685000Y-2835000D02*
X3715000Y-2865000D01*
X3715000Y-2835000D02*
X3685000Y-2865000D01*
X3885000Y15000D02*
X3915000Y-15000D01*
X3915000Y15000D02*
X3885000Y-15000D01*
X4260000Y-1960000D02*
X4290000Y-1990000D01*
X4290000Y-1960000D02*
X4260000Y-1990000D01*
X4635000Y-985000D02*
X4665000Y-1015000D01*
X4665000Y-985000D02*
X4635000Y-1015000D01*
X4835000Y-85000D02*
X4865000Y-115000D01*
X4865000Y-85000D02*
X4835000Y-115000D01*
X5235000Y-1085000D02*
X5265000Y-1115000D01*
X5265000Y-1085000D02*
X5235000Y-1115000D01*
X5285000Y115000D02*
X5315000Y85000D01*
X5315000Y115000D02*
X5285000Y85000D01*
X5285000Y15000D02*
X5315000Y-15000D01*
X5315000Y15000D02*
X5285000Y-15000D01*
X5335000Y-535000D02*
X5365000Y-565000D01*
X5365000Y-535000D02*
X5335000Y-565000D01*
X5335000Y-635000D02*
X5365000Y-665000D01*
X5365000Y-635000D02*
X5335000Y-665000D01*
X5785000Y-1085000D02*
X5815000Y-1115000D01*
X5815000Y-1085000D02*
X5785000Y-1115000D01*
X7035000Y-835000D02*
X7065000Y-865000D01*
X7065000Y-835000D02*
X7035000Y-865000D01*
X8685000Y-885000D02*
X8715000Y-915000D01*
X8715000Y-885000D02*
X8685000Y-915000D01*
X9085000Y-235000D02*
X9115000Y-265000D01*
X9115000Y-235000D02*
X9085000Y-265000D01*
X9135000Y-985000D02*
X9165000Y-1015000D01*
X9165000Y-985000D02*
X9135000Y-1015000D01*
X-2214775Y-414625D02*
G75*
G02*
X-2274775Y-414625I-30000J0D01*
G01*
X-2274775Y-414625D02*
G75*
G02*
X-2214775Y-414625I30000J0D01*
G01*
X-2087775Y1871375D02*
G75*
G02*
X-2147775Y1871375I-30000J0D01*
G01*
X-2147775Y1871375D02*
G75*
G02*
X-2087775Y1871375I30000J0D01*
G01*
X-1833775Y1871375D02*
G75*
G02*
X-1893775Y1871375I-30000J0D01*
G01*
X-1893775Y1871375D02*
G75*
G02*
X-1833775Y1871375I30000J0D01*
G01*
X-1579775Y1871375D02*
G75*
G02*
X-1639775Y1871375I-30000J0D01*
G01*
X-1639775Y1871375D02*
G75*
G02*
X-1579775Y1871375I30000J0D01*
G01*
X-1325775Y1871375D02*
G75*
G02*
X-1385775Y1871375I-30000J0D01*
G01*
X-1385775Y1871375D02*
G75*
G02*
X-1325775Y1871375I30000J0D01*
G01*
X-1071775Y1871375D02*
G75*
G02*
X-1131775Y1871375I-30000J0D01*
G01*
X-1131775Y1871375D02*
G75*
G02*
X-1071775Y1871375I30000J0D01*
G01*
X-1071775Y-351125D02*
G75*
G02*
X-1131775Y-351125I-30000J0D01*
G01*
X-1131775Y-351125D02*
G75*
G02*
X-1071775Y-351125I30000J0D01*
G01*
X-817775Y1871375D02*
G75*
G02*
X-877775Y1871375I-30000J0D01*
G01*
X-877775Y1871375D02*
G75*
G02*
X-817775Y1871375I30000J0D01*
G01*
X-817775Y-351125D02*
G75*
G02*
X-877775Y-351125I-30000J0D01*
G01*
X-877775Y-351125D02*
G75*
G02*
X-817775Y-351125I30000J0D01*
G01*
X-563775Y1871375D02*
G75*
G02*
X-623775Y1871375I-30000J0D01*
G01*
X-623775Y1871375D02*
G75*
G02*
X-563775Y1871375I30000J0D01*
G01*
X-563775Y-351125D02*
G75*
G02*
X-623775Y-351125I-30000J0D01*
G01*
X-623775Y-351125D02*
G75*
G02*
X-563775Y-351125I30000J0D01*
G01*
X-309775Y1871375D02*
G75*
G02*
X-369775Y1871375I-30000J0D01*
G01*
X-369775Y1871375D02*
G75*
G02*
X-309775Y1871375I30000J0D01*
G01*
X-309775Y-351125D02*
G75*
G02*
X-369775Y-351125I-30000J0D01*
G01*
X-369775Y-351125D02*
G75*
G02*
X-309775Y-351125I30000J0D01*
G01*
X-5773480Y1352140D02*
X-5773480Y1272140D01*
X-5813480Y1312140D02*
X-5733480Y1312140D01*
X-5519480Y1352140D02*
X-5519480Y1272140D01*
X-5559480Y1312140D02*
X-5479480Y1312140D01*
X-5265480Y1352140D02*
X-5265480Y1272140D01*
X-5305480Y1312140D02*
X-5225480Y1312140D01*
X-5011480Y1352140D02*
X-5011480Y1272140D01*
X-5051480Y1312140D02*
X-4971480Y1312140D01*
X-4757480Y1352140D02*
X-4757480Y1272140D01*
X-4797480Y1312140D02*
X-4717480Y1312140D01*
X-4696520Y-2672140D02*
X-4696520Y-2752140D01*
X-4736520Y-2712140D02*
X-4656520Y-2712140D01*
X-4503480Y1352140D02*
X-4503480Y1272140D01*
X-4543480Y1312140D02*
X-4463480Y1312140D01*
X-4442520Y-2672140D02*
X-4442520Y-2752140D01*
X-4482520Y-2712140D02*
X-4402520Y-2712140D01*
X-4188520Y-2672140D02*
X-4188520Y-2752140D01*
X-4228520Y-2712140D02*
X-4148520Y-2712140D01*
X-3934520Y-2672140D02*
X-3934520Y-2752140D01*
X-3974520Y-2712140D02*
X-3894520Y-2712140D01*
X-3680520Y-2672140D02*
X-3680520Y-2752140D01*
X-3720520Y-2712140D02*
X-3640520Y-2712140D01*
X-3426520Y-2672140D02*
X-3426520Y-2752140D01*
X-3466520Y-2712140D02*
X-3386520Y-2712140D01*
X-862140Y-5413480D02*
X-862140Y-5493480D01*
X-902140Y-5453480D02*
X-822140Y-5453480D01*
X-862140Y-5667480D02*
X-862140Y-5747480D01*
X-902140Y-5707480D02*
X-822140Y-5707480D01*
X-862140Y-5921480D02*
X-862140Y-6001480D01*
X-902140Y-5961480D02*
X-822140Y-5961480D01*
X-862140Y-6175480D02*
X-862140Y-6255480D01*
X-902140Y-6215480D02*
X-822140Y-6215480D01*
X-862140Y-6429480D02*
X-862140Y-6509480D01*
X-902140Y-6469480D02*
X-822140Y-6469480D01*
X-862140Y-6683480D02*
X-862140Y-6763480D01*
X-902140Y-6723480D02*
X-822140Y-6723480D01*
X5526520Y-1447860D02*
X5526520Y-1527860D01*
X5486520Y-1487860D02*
X5566520Y-1487860D01*
X5780520Y-1447860D02*
X5780520Y-1527860D01*
X5740520Y-1487860D02*
X5820520Y-1487860D01*
X6034520Y-1447860D02*
X6034520Y-1527860D01*
X5994520Y-1487860D02*
X6074520Y-1487860D01*
X6288520Y-1447860D02*
X6288520Y-1527860D01*
X6248520Y-1487860D02*
X6328520Y-1487860D01*
X6503480Y327860D02*
X6503480Y247860D01*
X6463480Y287860D02*
X6543480Y287860D01*
X6542520Y-1447860D02*
X6542520Y-1527860D01*
X6502520Y-1487860D02*
X6582520Y-1487860D01*
X6757480Y327860D02*
X6757480Y247860D01*
X6717480Y287860D02*
X6797480Y287860D01*
X6796520Y-1447860D02*
X6796520Y-1527860D01*
X6756520Y-1487860D02*
X6836520Y-1487860D01*
X7011480Y327860D02*
X7011480Y247860D01*
X6971480Y287860D02*
X7051480Y287860D01*
X7265480Y327860D02*
X7265480Y247860D01*
X7225480Y287860D02*
X7305480Y287860D01*
X7519480Y327860D02*
X7519480Y247860D01*
X7479480Y287860D02*
X7559480Y287860D01*
X7773480Y327860D02*
X7773480Y247860D01*
X7733480Y287860D02*
X7813480Y287860D01*
X-2167144Y-2556356D02*
X-2167144Y-2485644D01*
X-2237856Y-2485644D01*
X-2237856Y-2556356D01*
X-2167144Y-2556356D01*
X-2167144Y-2810356D02*
X-2167144Y-2739644D01*
X-2237856Y-2739644D01*
X-2237856Y-2810356D01*
X-2167144Y-2810356D01*
X-1664644Y-2535356D02*
X-1664644Y-2464644D01*
X-1735356Y-2464644D01*
X-1735356Y-2535356D01*
X-1664644Y-2535356D01*
X-1664644Y-2789356D02*
X-1664644Y-2718644D01*
X-1735356Y-2718644D01*
X-1735356Y-2789356D01*
X-1664644Y-2789356D01*
X-1410644Y-2535356D02*
X-1410644Y-2464644D01*
X-1481356Y-2464644D01*
X-1481356Y-2535356D01*
X-1410644Y-2535356D01*
X-1410644Y-2789356D02*
X-1410644Y-2718644D01*
X-1481356Y-2718644D01*
X-1481356Y-2789356D01*
X-1410644Y-2789356D01*
X-1156644Y-2535356D02*
X-1156644Y-2464644D01*
X-1227356Y-2464644D01*
X-1227356Y-2535356D01*
X-1156644Y-2535356D01*
X-1156644Y-2789356D02*
X-1156644Y-2718644D01*
X-1227356Y-2718644D01*
X-1227356Y-2789356D01*
X-1156644Y-2789356D01*
X-339644Y-3582856D02*
X-339644Y-3512144D01*
X-410356Y-3512144D01*
X-410356Y-3582856D01*
X-339644Y-3582856D01*
X-85644Y-3582856D02*
X-85644Y-3512144D01*
X-156356Y-3512144D01*
X-156356Y-3582856D01*
X-85644Y-3582856D01*
X842356Y-9021856D02*
X842356Y-8951144D01*
X771644Y-8951144D01*
X771644Y-9021856D01*
X842356Y-9021856D01*
X842356Y-9275856D02*
X842356Y-9205144D01*
X771644Y-9205144D01*
X771644Y-9275856D01*
X842356Y-9275856D01*
X842356Y-9529856D02*
X842356Y-9459144D01*
X771644Y-9459144D01*
X771644Y-9529856D01*
X842356Y-9529856D01*
X842356Y-9783856D02*
X842356Y-9713144D01*
X771644Y-9713144D01*
X771644Y-9783856D01*
X842356Y-9783856D01*
X3128356Y-9021856D02*
X3128356Y-8951144D01*
X3057644Y-8951144D01*
X3057644Y-9021856D01*
X3128356Y-9021856D01*
X3128356Y-9275856D02*
X3128356Y-9205144D01*
X3057644Y-9205144D01*
X3057644Y-9275856D01*
X3128356Y-9275856D01*
X3128356Y-9529856D02*
X3128356Y-9459144D01*
X3057644Y-9459144D01*
X3057644Y-9529856D01*
X3128356Y-9529856D01*
X3128356Y-9783856D02*
X3128356Y-9713144D01*
X3057644Y-9713144D01*
X3057644Y-9783856D01*
X3128356Y-9783856D01*
X8141356Y-95356D02*
X8141356Y-24644D01*
X8070644Y-24644D01*
X8070644Y-95356D01*
X8141356Y-95356D01*
X8141356Y-349356D02*
X8141356Y-278644D01*
X8070644Y-278644D01*
X8070644Y-349356D01*
X8141356Y-349356D01*
X8141356Y-603356D02*
X8141356Y-532644D01*
X8070644Y-532644D01*
X8070644Y-603356D01*
X8141356Y-603356D01*
X8395356Y-95356D02*
X8395356Y-24644D01*
X8324644Y-24644D01*
X8324644Y-95356D01*
X8395356Y-95356D01*
X8395356Y-349356D02*
X8395356Y-278644D01*
X8324644Y-278644D01*
X8324644Y-349356D01*
X8395356Y-349356D01*
X8395356Y-603356D02*
X8395356Y-532644D01*
X8324644Y-532644D01*
X8324644Y-603356D01*
X8395356Y-603356D01*
X8637856Y689644D02*
X8637856Y760356D01*
X8567144Y760356D01*
X8567144Y689644D01*
X8637856Y689644D01*
X8637856Y435644D02*
X8637856Y506356D01*
X8567144Y506356D01*
X8567144Y435644D01*
X8637856Y435644D01*
D13*
X3034000Y1149000D02*
X3085000Y1200000D01*
X3034000Y1251000D01*
X2983000Y1200000D01*
X3034000Y1149000D01*
X3288000Y1149000D02*
X3339000Y1200000D01*
X3288000Y1251000D01*
X3237000Y1200000D01*
X3288000Y1149000D01*
X3542000Y1149000D02*
X3593000Y1200000D01*
X3542000Y1251000D01*
X3491000Y1200000D01*
X3542000Y1149000D01*
X3796000Y1149000D02*
X3847000Y1200000D01*
X3796000Y1251000D01*
X3745000Y1200000D01*
X3796000Y1149000D01*
X4050000Y1149000D02*
X4101000Y1200000D01*
X4050000Y1251000D01*
X3999000Y1200000D01*
X4050000Y1149000D01*
X4050000Y895000D02*
X4101000Y946000D01*
X4050000Y997000D01*
X3999000Y946000D01*
X4050000Y895000D01*
D14*
X-966993Y-9395009D02*
X-857010Y-9504991D01*
X-857010Y-9395009D02*
X-966993Y-9504991D01*
X-857010Y-9450000D02*
G75*
G02*
X-966993Y-9450000I-54991J0D01*
G01*
X-966993Y-9450000D02*
G75*
G02*
X-857010Y-9450000I54991J0D01*
G01*
X-966993Y-9649010D02*
X-857010Y-9758992D01*
X-857010Y-9649010D02*
X-966993Y-9758992D01*
X-857010Y-9704001D02*
G75*
G02*
X-966993Y-9704001I-54991J0D01*
G01*
X-966993Y-9704001D02*
G75*
G02*
X-857010Y-9704001I54991J0D01*
G01*
X-712992Y-9395009D02*
X-603010Y-9504991D01*
X-603010Y-9395009D02*
X-712992Y-9504991D01*
X-603010Y-9450000D02*
G75*
G02*
X-712992Y-9450000I-54991J0D01*
G01*
X-712992Y-9450000D02*
G75*
G02*
X-603010Y-9450000I54991J0D01*
G01*
X-712992Y-9649010D02*
X-603010Y-9758992D01*
X-603010Y-9649010D02*
X-712992Y-9758992D01*
X-603010Y-9704001D02*
G75*
G02*
X-712992Y-9704001I-54991J0D01*
G01*
X-712992Y-9704001D02*
G75*
G02*
X-603010Y-9704001I54991J0D01*
G01*
X-458992Y-9395009D02*
X-349009Y-9504991D01*
X-349009Y-9395009D02*
X-458992Y-9504991D01*
X-349009Y-9450000D02*
G75*
G02*
X-458992Y-9450000I-54991J0D01*
G01*
X-458992Y-9450000D02*
G75*
G02*
X-349009Y-9450000I54991J0D01*
G01*
X-458991Y-9649010D02*
X-349009Y-9758992D01*
X-349009Y-9649010D02*
X-458991Y-9758992D01*
X-349009Y-9704001D02*
G75*
G02*
X-458991Y-9704001I-54991J0D01*
G01*
X-458991Y-9704001D02*
G75*
G02*
X-349009Y-9704001I54991J0D01*
G01*
X-204991Y-9395009D02*
X-95009Y-9504991D01*
X-95009Y-9395009D02*
X-204991Y-9504991D01*
X-95009Y-9450000D02*
G75*
G02*
X-204991Y-9450000I-54991J0D01*
G01*
X-204991Y-9450000D02*
G75*
G02*
X-95009Y-9450000I54991J0D01*
G01*
X-204991Y-9649010D02*
X-95009Y-9758992D01*
X-95009Y-9649010D02*
X-204991Y-9758992D01*
X-95009Y-9704001D02*
G75*
G02*
X-204991Y-9704001I-54991J0D01*
G01*
X-204991Y-9704001D02*
G75*
G02*
X-95009Y-9704001I54991J0D01*
G01*
D15*
X-7936351Y-1417998D02*
X-7826349Y-1528001D01*
X-7826349Y-1417998D02*
X-7936351Y-1528001D01*
X-7881350Y-1417998D02*
X-7881350Y-1528001D01*
X-7936351Y-1473000D02*
X-7826349Y-1473000D01*
X-7936351Y-1671999D02*
X-7826349Y-1782001D01*
X-7826349Y-1671999D02*
X-7936351Y-1782001D01*
X-7881350Y-1671999D02*
X-7881350Y-1782001D01*
X-7936351Y-1727000D02*
X-7826349Y-1727000D01*
X-4715001Y-104999D02*
X-4604999Y-215001D01*
X-4604999Y-104999D02*
X-4715001Y-215001D01*
X-4660000Y-104999D02*
X-4660000Y-215001D01*
X-4715001Y-160000D02*
X-4604999Y-160000D01*
X-4715001Y-1204999D02*
X-4604999Y-1315001D01*
X-4604999Y-1204999D02*
X-4715001Y-1315001D01*
X-4660000Y-1204999D02*
X-4660000Y-1315001D01*
X-4715001Y-1260000D02*
X-4604999Y-1260000D01*
X2540998Y-4336998D02*
X2651001Y-4447000D01*
X2651001Y-4336998D02*
X2540998Y-4447000D01*
X2595999Y-4336998D02*
X2595999Y-4447000D01*
X2540998Y-4391999D02*
X2651001Y-4391999D01*
X2540998Y-4590998D02*
X2651001Y-4701001D01*
X2651001Y-4590998D02*
X2540998Y-4701001D01*
X2595999Y-4590998D02*
X2595999Y-4701001D01*
X2540998Y-4646000D02*
X2651001Y-4646000D01*
X2540998Y-4844999D02*
X2651001Y-4955001D01*
X2651001Y-4844999D02*
X2540998Y-4955001D01*
X2595999Y-4844999D02*
X2595999Y-4955001D01*
X2540998Y-4900000D02*
X2651001Y-4900000D01*
X2540998Y-6194999D02*
X2651001Y-6305001D01*
X2651001Y-6194999D02*
X2540998Y-6305001D01*
X2595999Y-6194999D02*
X2595999Y-6305001D01*
X2540998Y-6250000D02*
X2651001Y-6250000D01*
X2540998Y-6448999D02*
X2651001Y-6559002D01*
X2651001Y-6448999D02*
X2540998Y-6559002D01*
X2595999Y-6448999D02*
X2595999Y-6559002D01*
X2540998Y-6504000D02*
X2651001Y-6504000D01*
X2540998Y-6703000D02*
X2651001Y-6813002D01*
X2651001Y-6703000D02*
X2540998Y-6813002D01*
X2595999Y-6703000D02*
X2595999Y-6813002D01*
X2540998Y-6758001D02*
X2651001Y-6758001D01*
X2794999Y-4336998D02*
X2905001Y-4447000D01*
X2905001Y-4336998D02*
X2794999Y-4447000D01*
X2850000Y-4336998D02*
X2850000Y-4447000D01*
X2794999Y-4391999D02*
X2905001Y-4391999D01*
X2794999Y-4590998D02*
X2905001Y-4701001D01*
X2905001Y-4590998D02*
X2794999Y-4701001D01*
X2850000Y-4590998D02*
X2850000Y-4701001D01*
X2794999Y-4646000D02*
X2905001Y-4646000D01*
X2794999Y-4844999D02*
X2905001Y-4955001D01*
X2905001Y-4844999D02*
X2794999Y-4955001D01*
X2850000Y-4844999D02*
X2850000Y-4955001D01*
X2794999Y-4900000D02*
X2905001Y-4900000D01*
X2794999Y-6194999D02*
X2905001Y-6305001D01*
X2905001Y-6194999D02*
X2794999Y-6305001D01*
X2850000Y-6194999D02*
X2850000Y-6305001D01*
X2794999Y-6250000D02*
X2905001Y-6250000D01*
X2794999Y-6448999D02*
X2905001Y-6559002D01*
X2905001Y-6448999D02*
X2794999Y-6559002D01*
X2850000Y-6448999D02*
X2850000Y-6559002D01*
X2794999Y-6504000D02*
X2905001Y-6504000D01*
X2794999Y-6703000D02*
X2905001Y-6813002D01*
X2905001Y-6703000D02*
X2794999Y-6813002D01*
X2850000Y-6703000D02*
X2850000Y-6813002D01*
X2794999Y-6758001D02*
X2905001Y-6758001D01*
D16*
X-7475650Y1407000D02*
X-7355650Y1287000D01*
X-7355650Y1407000D02*
X-7475650Y1287000D01*
X-7373223Y1304574D02*
X-7373223Y1389427D01*
X-7458077Y1389427D01*
X-7458077Y1304574D01*
X-7373223Y1304574D01*
X-7475650Y1157000D02*
X-7355650Y1037000D01*
X-7355650Y1157000D02*
X-7475650Y1037000D01*
X-7373223Y1054574D02*
X-7373223Y1139427D01*
X-7458077Y1139427D01*
X-7458077Y1054574D01*
X-7373223Y1054574D01*
X-7475650Y907000D02*
X-7355650Y787000D01*
X-7355650Y907000D02*
X-7475650Y787000D01*
X-7373223Y804573D02*
X-7373223Y889427D01*
X-7458077Y889427D01*
X-7458077Y804573D01*
X-7373223Y804573D01*
X9355650Y1413000D02*
X9475650Y1293000D01*
X9475650Y1413000D02*
X9355650Y1293000D01*
X9458077Y1310573D02*
X9458077Y1395427D01*
X9373224Y1395427D01*
X9373224Y1310573D01*
X9458077Y1310573D01*
X9355650Y1163000D02*
X9475650Y1043000D01*
X9475650Y1163000D02*
X9355650Y1043000D01*
X9458077Y1060573D02*
X9458077Y1145427D01*
X9373224Y1145427D01*
X9373224Y1060573D01*
X9458077Y1060573D01*
X9355650Y913000D02*
X9475650Y793000D01*
X9475650Y913000D02*
X9355650Y793000D01*
X9458077Y810573D02*
X9458077Y895426D01*
X9373224Y895426D01*
X9373224Y810573D01*
X9458077Y810573D01*
D17*
X-3750000Y-370000D02*
X-3570000Y-550000D01*
X-3570000Y-370000D02*
X-3750000Y-550000D01*
X-3660000Y-550000D02*
X-3570000Y-460000D01*
X-3660000Y-370000D01*
X-3750000Y-460000D01*
X-3660000Y-550000D01*
X-3750000Y-870000D02*
X-3570000Y-1050000D01*
X-3570000Y-870000D02*
X-3750000Y-1050000D01*
X-3660000Y-1050000D02*
X-3570000Y-960000D01*
X-3660000Y-870000D01*
X-3750000Y-960000D01*
X-3660000Y-1050000D01*
D18*
X-2700000Y-190000D02*
X-2700000Y-410000D01*
X-2810000Y-300000D02*
X-2590000Y-300000D01*
X-2590000Y-300000D02*
G75*
G02*
X-2810000Y-300000I-110000J0D01*
G01*
X-2810000Y-300000D02*
G75*
G02*
X-2590000Y-300000I110000J0D01*
G01*
X-2700000Y-690000D02*
X-2700000Y-910000D01*
X-2810000Y-800000D02*
X-2590000Y-800000D01*
X-2590000Y-800000D02*
G75*
G02*
X-2810000Y-800000I-110000J0D01*
G01*
X-2810000Y-800000D02*
G75*
G02*
X-2590000Y-800000I110000J0D01*
G01*
D19*
X-7347971Y-2652029D02*
X-7347971Y-2347971D01*
X-7652029Y-2347971D01*
X-7652029Y-2652029D01*
X-7347971Y-2652029D01*
X-7285000Y-2500000D02*
G75*
G02*
X-7715000Y-2500000I-215000J0D01*
G01*
X-7715000Y-2500000D02*
G75*
G02*
X-7285000Y-2500000I215000J0D01*
G01*
X1152029Y1847971D02*
X1152029Y2152029D01*
X847971Y2152029D01*
X847971Y1847971D01*
X1152029Y1847971D01*
X1215000Y2000000D02*
G75*
G02*
X785000Y2000000I-215000J0D01*
G01*
X785000Y2000000D02*
G75*
G02*
X1215000Y2000000I215000J0D01*
G01*
X1152029Y-8152029D02*
X1152029Y-7847971D01*
X847971Y-7847971D01*
X847971Y-8152029D01*
X1152029Y-8152029D01*
X1215000Y-8000000D02*
G75*
G02*
X785000Y-8000000I-215000J0D01*
G01*
X785000Y-8000000D02*
G75*
G02*
X1215000Y-8000000I215000J0D01*
G01*
X9652029Y-2652029D02*
X9652029Y-2347971D01*
X9347971Y-2347971D01*
X9347971Y-2652029D01*
X9652029Y-2652029D01*
X9715000Y-2500000D02*
G75*
G02*
X9285000Y-2500000I-215000J0D01*
G01*
X9285000Y-2500000D02*
G75*
G02*
X9715000Y-2500000I215000J0D01*
G01*
D11*
X-7980723Y-10552984D02*
X-7980723Y-10352984D01*
X-7980723Y-10352984D02*
X-7933104Y-10352984D01*
X-7933104Y-10352984D02*
X-7904533Y-10362508D01*
X-7904533Y-10362508D02*
X-7885485Y-10381555D01*
X-7885485Y-10381555D02*
X-7875961Y-10400603D01*
X-7875961Y-10400603D02*
X-7866437Y-10438698D01*
X-7866437Y-10438698D02*
X-7866437Y-10467270D01*
X-7866437Y-10467270D02*
X-7875961Y-10505365D01*
X-7875961Y-10505365D02*
X-7885485Y-10524412D01*
X-7885485Y-10524412D02*
X-7904533Y-10543460D01*
X-7904533Y-10543460D02*
X-7933104Y-10552984D01*
X-7933104Y-10552984D02*
X-7980723Y-10552984D01*
X-7780723Y-10552984D02*
X-7780723Y-10419650D01*
X-7780723Y-10457746D02*
X-7771199Y-10438698D01*
X-7771199Y-10438698D02*
X-7761675Y-10429174D01*
X-7761675Y-10429174D02*
X-7742628Y-10419650D01*
X-7742628Y-10419650D02*
X-7723580Y-10419650D01*
X-7656914Y-10552984D02*
X-7656914Y-10419650D01*
X-7656914Y-10352984D02*
X-7666437Y-10362508D01*
X-7666437Y-10362508D02*
X-7656914Y-10372031D01*
X-7656914Y-10372031D02*
X-7647390Y-10362508D01*
X-7647390Y-10362508D02*
X-7656914Y-10352984D01*
X-7656914Y-10352984D02*
X-7656914Y-10372031D01*
X-7533104Y-10552984D02*
X-7552152Y-10543460D01*
X-7552152Y-10543460D02*
X-7561675Y-10524412D01*
X-7561675Y-10524412D02*
X-7561675Y-10352984D01*
X-7428342Y-10552984D02*
X-7447390Y-10543460D01*
X-7447390Y-10543460D02*
X-7456914Y-10524412D01*
X-7456914Y-10524412D02*
X-7456914Y-10352984D01*
X-7199771Y-10552984D02*
X-7199771Y-10352984D01*
X-7199771Y-10352984D02*
X-7133104Y-10495841D01*
X-7133104Y-10495841D02*
X-7066437Y-10352984D01*
X-7066437Y-10352984D02*
X-7066437Y-10552984D01*
X-6885485Y-10552984D02*
X-6885485Y-10448222D01*
X-6885485Y-10448222D02*
X-6895009Y-10429174D01*
X-6895009Y-10429174D02*
X-6914056Y-10419650D01*
X-6914056Y-10419650D02*
X-6952152Y-10419650D01*
X-6952152Y-10419650D02*
X-6971199Y-10429174D01*
X-6885485Y-10543460D02*
X-6904533Y-10552984D01*
X-6904533Y-10552984D02*
X-6952152Y-10552984D01*
X-6952152Y-10552984D02*
X-6971199Y-10543460D01*
X-6971199Y-10543460D02*
X-6980723Y-10524412D01*
X-6980723Y-10524412D02*
X-6980723Y-10505365D01*
X-6980723Y-10505365D02*
X-6971199Y-10486317D01*
X-6971199Y-10486317D02*
X-6952152Y-10476793D01*
X-6952152Y-10476793D02*
X-6904533Y-10476793D01*
X-6904533Y-10476793D02*
X-6885485Y-10467270D01*
X-6790247Y-10419650D02*
X-6790247Y-10619650D01*
X-6790247Y-10429174D02*
X-6771199Y-10419650D01*
X-6771199Y-10419650D02*
X-6733104Y-10419650D01*
X-6733104Y-10419650D02*
X-6714056Y-10429174D01*
X-6714056Y-10429174D02*
X-6704533Y-10438698D01*
X-6704533Y-10438698D02*
X-6695009Y-10457746D01*
X-6695009Y-10457746D02*
X-6695009Y-10514889D01*
X-6695009Y-10514889D02*
X-6704533Y-10533936D01*
X-6704533Y-10533936D02*
X-6714056Y-10543460D01*
X-6714056Y-10543460D02*
X-6733104Y-10552984D01*
X-6733104Y-10552984D02*
X-6771199Y-10552984D01*
X-6771199Y-10552984D02*
X-6790247Y-10543460D01*
X-6609294Y-10533936D02*
X-6599771Y-10543460D01*
X-6599771Y-10543460D02*
X-6609294Y-10552984D01*
X-6609294Y-10552984D02*
X-6618818Y-10543460D01*
X-6618818Y-10543460D02*
X-6609294Y-10533936D01*
X-6609294Y-10533936D02*
X-6609294Y-10552984D01*
X-6609294Y-10429174D02*
X-6599771Y-10438698D01*
X-6599771Y-10438698D02*
X-6609294Y-10448222D01*
X-6609294Y-10448222D02*
X-6618818Y-10438698D01*
X-6618818Y-10438698D02*
X-6609294Y-10429174D01*
X-6609294Y-10429174D02*
X-6609294Y-10448222D01*
D12*
X-8271500Y-10866500D02*
X-8241500Y-10896500D01*
X-8241500Y-10866500D02*
X-8271500Y-10896500D01*
D11*
X-7942628Y-10772984D02*
X-7923580Y-10772984D01*
X-7923580Y-10772984D02*
X-7904533Y-10782508D01*
X-7904533Y-10782508D02*
X-7895009Y-10792031D01*
X-7895009Y-10792031D02*
X-7885485Y-10811079D01*
X-7885485Y-10811079D02*
X-7875961Y-10849174D01*
X-7875961Y-10849174D02*
X-7875961Y-10896793D01*
X-7875961Y-10896793D02*
X-7885485Y-10934889D01*
X-7885485Y-10934889D02*
X-7895009Y-10953936D01*
X-7895009Y-10953936D02*
X-7904533Y-10963460D01*
X-7904533Y-10963460D02*
X-7923580Y-10972984D01*
X-7923580Y-10972984D02*
X-7942628Y-10972984D01*
X-7942628Y-10972984D02*
X-7961675Y-10963460D01*
X-7961675Y-10963460D02*
X-7971199Y-10953936D01*
X-7971199Y-10953936D02*
X-7980723Y-10934889D01*
X-7980723Y-10934889D02*
X-7990247Y-10896793D01*
X-7990247Y-10896793D02*
X-7990247Y-10849174D01*
X-7990247Y-10849174D02*
X-7980723Y-10811079D01*
X-7980723Y-10811079D02*
X-7971199Y-10792031D01*
X-7971199Y-10792031D02*
X-7961675Y-10782508D01*
X-7961675Y-10782508D02*
X-7942628Y-10772984D01*
X-7790247Y-10953936D02*
X-7780723Y-10963460D01*
X-7780723Y-10963460D02*
X-7790247Y-10972984D01*
X-7790247Y-10972984D02*
X-7799771Y-10963460D01*
X-7799771Y-10963460D02*
X-7790247Y-10953936D01*
X-7790247Y-10953936D02*
X-7790247Y-10972984D01*
X-7714056Y-10772984D02*
X-7590247Y-10772984D01*
X-7590247Y-10772984D02*
X-7656914Y-10849174D01*
X-7656914Y-10849174D02*
X-7628342Y-10849174D01*
X-7628342Y-10849174D02*
X-7609294Y-10858698D01*
X-7609294Y-10858698D02*
X-7599771Y-10868222D01*
X-7599771Y-10868222D02*
X-7590247Y-10887270D01*
X-7590247Y-10887270D02*
X-7590247Y-10934889D01*
X-7590247Y-10934889D02*
X-7599771Y-10953936D01*
X-7599771Y-10953936D02*
X-7609294Y-10963460D01*
X-7609294Y-10963460D02*
X-7628342Y-10972984D01*
X-7628342Y-10972984D02*
X-7685485Y-10972984D01*
X-7685485Y-10972984D02*
X-7704533Y-10963460D01*
X-7704533Y-10963460D02*
X-7714056Y-10953936D01*
X-7466437Y-10772984D02*
X-7447390Y-10772984D01*
X-7447390Y-10772984D02*
X-7428342Y-10782508D01*
X-7428342Y-10782508D02*
X-7418818Y-10792031D01*
X-7418818Y-10792031D02*
X-7409294Y-10811079D01*
X-7409294Y-10811079D02*
X-7399771Y-10849174D01*
X-7399771Y-10849174D02*
X-7399771Y-10896793D01*
X-7399771Y-10896793D02*
X-7409294Y-10934889D01*
X-7409294Y-10934889D02*
X-7418818Y-10953936D01*
X-7418818Y-10953936D02*
X-7428342Y-10963460D01*
X-7428342Y-10963460D02*
X-7447390Y-10972984D01*
X-7447390Y-10972984D02*
X-7466437Y-10972984D01*
X-7466437Y-10972984D02*
X-7485485Y-10963460D01*
X-7485485Y-10963460D02*
X-7495009Y-10953936D01*
X-7495009Y-10953936D02*
X-7504533Y-10934889D01*
X-7504533Y-10934889D02*
X-7514056Y-10896793D01*
X-7514056Y-10896793D02*
X-7514056Y-10849174D01*
X-7514056Y-10849174D02*
X-7504533Y-10811079D01*
X-7504533Y-10811079D02*
X-7495009Y-10792031D01*
X-7495009Y-10792031D02*
X-7485485Y-10782508D01*
X-7485485Y-10782508D02*
X-7466437Y-10772984D01*
X-7275961Y-10772984D02*
X-7256913Y-10772984D01*
X-7256913Y-10772984D02*
X-7237866Y-10782508D01*
X-7237866Y-10782508D02*
X-7228342Y-10792031D01*
X-7228342Y-10792031D02*
X-7218818Y-10811079D01*
X-7218818Y-10811079D02*
X-7209294Y-10849174D01*
X-7209294Y-10849174D02*
X-7209294Y-10896793D01*
X-7209294Y-10896793D02*
X-7218818Y-10934889D01*
X-7218818Y-10934889D02*
X-7228342Y-10953936D01*
X-7228342Y-10953936D02*
X-7237866Y-10963460D01*
X-7237866Y-10963460D02*
X-7256913Y-10972984D01*
X-7256913Y-10972984D02*
X-7275961Y-10972984D01*
X-7275961Y-10972984D02*
X-7295009Y-10963460D01*
X-7295009Y-10963460D02*
X-7304533Y-10953936D01*
X-7304533Y-10953936D02*
X-7314056Y-10934889D01*
X-7314056Y-10934889D02*
X-7323580Y-10896793D01*
X-7323580Y-10896793D02*
X-7323580Y-10849174D01*
X-7323580Y-10849174D02*
X-7314056Y-10811079D01*
X-7314056Y-10811079D02*
X-7304533Y-10792031D01*
X-7304533Y-10792031D02*
X-7295009Y-10782508D01*
X-7295009Y-10782508D02*
X-7275961Y-10772984D01*
X-7123580Y-10972984D02*
X-7123580Y-10839650D01*
X-7123580Y-10858698D02*
X-7114056Y-10849174D01*
X-7114056Y-10849174D02*
X-7095009Y-10839650D01*
X-7095009Y-10839650D02*
X-7066437Y-10839650D01*
X-7066437Y-10839650D02*
X-7047390Y-10849174D01*
X-7047390Y-10849174D02*
X-7037866Y-10868222D01*
X-7037866Y-10868222D02*
X-7037866Y-10972984D01*
X-7037866Y-10868222D02*
X-7028342Y-10849174D01*
X-7028342Y-10849174D02*
X-7009294Y-10839650D01*
X-7009294Y-10839650D02*
X-6980723Y-10839650D01*
X-6980723Y-10839650D02*
X-6961675Y-10849174D01*
X-6961675Y-10849174D02*
X-6952152Y-10868222D01*
X-6952152Y-10868222D02*
X-6952152Y-10972984D01*
X-6856913Y-10972984D02*
X-6856913Y-10839650D01*
X-6856913Y-10858698D02*
X-6847390Y-10849174D01*
X-6847390Y-10849174D02*
X-6828342Y-10839650D01*
X-6828342Y-10839650D02*
X-6799771Y-10839650D01*
X-6799771Y-10839650D02*
X-6780723Y-10849174D01*
X-6780723Y-10849174D02*
X-6771199Y-10868222D01*
X-6771199Y-10868222D02*
X-6771199Y-10972984D01*
X-6771199Y-10868222D02*
X-6761675Y-10849174D01*
X-6761675Y-10849174D02*
X-6742628Y-10839650D01*
X-6742628Y-10839650D02*
X-6714056Y-10839650D01*
X-6714056Y-10839650D02*
X-6695009Y-10849174D01*
X-6695009Y-10849174D02*
X-6685485Y-10868222D01*
X-6685485Y-10868222D02*
X-6685485Y-10972984D01*
X-6295009Y-10763460D02*
X-6466437Y-11020603D01*
X-6037866Y-10772984D02*
X-6018818Y-10772984D01*
X-6018818Y-10772984D02*
X-5999770Y-10782508D01*
X-5999770Y-10782508D02*
X-5990247Y-10792031D01*
X-5990247Y-10792031D02*
X-5980723Y-10811079D01*
X-5980723Y-10811079D02*
X-5971199Y-10849174D01*
X-5971199Y-10849174D02*
X-5971199Y-10896793D01*
X-5971199Y-10896793D02*
X-5980723Y-10934889D01*
X-5980723Y-10934889D02*
X-5990247Y-10953936D01*
X-5990247Y-10953936D02*
X-5999770Y-10963460D01*
X-5999770Y-10963460D02*
X-6018818Y-10972984D01*
X-6018818Y-10972984D02*
X-6037866Y-10972984D01*
X-6037866Y-10972984D02*
X-6056913Y-10963460D01*
X-6056913Y-10963460D02*
X-6066437Y-10953936D01*
X-6066437Y-10953936D02*
X-6075961Y-10934889D01*
X-6075961Y-10934889D02*
X-6085485Y-10896793D01*
X-6085485Y-10896793D02*
X-6085485Y-10849174D01*
X-6085485Y-10849174D02*
X-6075961Y-10811079D01*
X-6075961Y-10811079D02*
X-6066437Y-10792031D01*
X-6066437Y-10792031D02*
X-6056913Y-10782508D01*
X-6056913Y-10782508D02*
X-6037866Y-10772984D01*
X-5885485Y-10953936D02*
X-5875961Y-10963460D01*
X-5875961Y-10963460D02*
X-5885485Y-10972984D01*
X-5885485Y-10972984D02*
X-5895009Y-10963460D01*
X-5895009Y-10963460D02*
X-5885485Y-10953936D01*
X-5885485Y-10953936D02*
X-5885485Y-10972984D01*
X-5752151Y-10772984D02*
X-5733104Y-10772984D01*
X-5733104Y-10772984D02*
X-5714056Y-10782508D01*
X-5714056Y-10782508D02*
X-5704532Y-10792031D01*
X-5704532Y-10792031D02*
X-5695009Y-10811079D01*
X-5695009Y-10811079D02*
X-5685485Y-10849174D01*
X-5685485Y-10849174D02*
X-5685485Y-10896793D01*
X-5685485Y-10896793D02*
X-5695009Y-10934889D01*
X-5695009Y-10934889D02*
X-5704532Y-10953936D01*
X-5704532Y-10953936D02*
X-5714056Y-10963460D01*
X-5714056Y-10963460D02*
X-5733104Y-10972984D01*
X-5733104Y-10972984D02*
X-5752151Y-10972984D01*
X-5752151Y-10972984D02*
X-5771199Y-10963460D01*
X-5771199Y-10963460D02*
X-5780723Y-10953936D01*
X-5780723Y-10953936D02*
X-5790247Y-10934889D01*
X-5790247Y-10934889D02*
X-5799770Y-10896793D01*
X-5799770Y-10896793D02*
X-5799770Y-10849174D01*
X-5799770Y-10849174D02*
X-5790247Y-10811079D01*
X-5790247Y-10811079D02*
X-5780723Y-10792031D01*
X-5780723Y-10792031D02*
X-5771199Y-10782508D01*
X-5771199Y-10782508D02*
X-5752151Y-10772984D01*
X-5495009Y-10972984D02*
X-5609294Y-10972984D01*
X-5552152Y-10972984D02*
X-5552152Y-10772984D01*
X-5552152Y-10772984D02*
X-5571199Y-10801555D01*
X-5571199Y-10801555D02*
X-5590247Y-10820603D01*
X-5590247Y-10820603D02*
X-5609294Y-10830127D01*
X-5304532Y-10972984D02*
X-5418818Y-10972984D01*
X-5361675Y-10972984D02*
X-5361675Y-10772984D01*
X-5361675Y-10772984D02*
X-5380723Y-10801555D01*
X-5380723Y-10801555D02*
X-5399771Y-10820603D01*
X-5399771Y-10820603D02*
X-5418818Y-10830127D01*
X-5190247Y-10858698D02*
X-5209294Y-10849174D01*
X-5209294Y-10849174D02*
X-5218818Y-10839650D01*
X-5218818Y-10839650D02*
X-5228342Y-10820603D01*
X-5228342Y-10820603D02*
X-5228342Y-10811079D01*
X-5228342Y-10811079D02*
X-5218818Y-10792031D01*
X-5218818Y-10792031D02*
X-5209294Y-10782508D01*
X-5209294Y-10782508D02*
X-5190247Y-10772984D01*
X-5190247Y-10772984D02*
X-5152151Y-10772984D01*
X-5152151Y-10772984D02*
X-5133104Y-10782508D01*
X-5133104Y-10782508D02*
X-5123580Y-10792031D01*
X-5123580Y-10792031D02*
X-5114056Y-10811079D01*
X-5114056Y-10811079D02*
X-5114056Y-10820603D01*
X-5114056Y-10820603D02*
X-5123580Y-10839650D01*
X-5123580Y-10839650D02*
X-5133104Y-10849174D01*
X-5133104Y-10849174D02*
X-5152151Y-10858698D01*
X-5152151Y-10858698D02*
X-5190247Y-10858698D01*
X-5190247Y-10858698D02*
X-5209294Y-10868222D01*
X-5209294Y-10868222D02*
X-5218818Y-10877746D01*
X-5218818Y-10877746D02*
X-5228342Y-10896793D01*
X-5228342Y-10896793D02*
X-5228342Y-10934889D01*
X-5228342Y-10934889D02*
X-5218818Y-10953936D01*
X-5218818Y-10953936D02*
X-5209294Y-10963460D01*
X-5209294Y-10963460D02*
X-5190247Y-10972984D01*
X-5190247Y-10972984D02*
X-5152151Y-10972984D01*
X-5152151Y-10972984D02*
X-5133104Y-10963460D01*
X-5133104Y-10963460D02*
X-5123580Y-10953936D01*
X-5123580Y-10953936D02*
X-5114056Y-10934889D01*
X-5114056Y-10934889D02*
X-5114056Y-10896793D01*
X-5114056Y-10896793D02*
X-5123580Y-10877746D01*
X-5123580Y-10877746D02*
X-5133104Y-10868222D01*
X-5133104Y-10868222D02*
X-5152151Y-10858698D01*
X-5037866Y-10772984D02*
X-5037866Y-10811079D01*
X-4961675Y-10772984D02*
X-4961675Y-10811079D01*
X-4666437Y-11049174D02*
X-4675961Y-11039650D01*
X-4675961Y-11039650D02*
X-4695009Y-11011079D01*
X-4695009Y-11011079D02*
X-4704532Y-10992031D01*
X-4704532Y-10992031D02*
X-4714056Y-10963460D01*
X-4714056Y-10963460D02*
X-4723580Y-10915841D01*
X-4723580Y-10915841D02*
X-4723580Y-10877746D01*
X-4723580Y-10877746D02*
X-4714056Y-10830127D01*
X-4714056Y-10830127D02*
X-4704532Y-10801555D01*
X-4704532Y-10801555D02*
X-4695009Y-10782508D01*
X-4695009Y-10782508D02*
X-4675961Y-10753936D01*
X-4675961Y-10753936D02*
X-4666437Y-10744412D01*
X-4609294Y-10772984D02*
X-4475961Y-10772984D01*
X-4475961Y-10772984D02*
X-4561675Y-10972984D01*
X-4314056Y-10839650D02*
X-4314056Y-10972984D01*
X-4361675Y-10763460D02*
X-4409294Y-10906317D01*
X-4409294Y-10906317D02*
X-4285485Y-10906317D01*
X-4056913Y-10972984D02*
X-4056913Y-10772984D01*
X-3971199Y-10972984D02*
X-3971199Y-10868222D01*
X-3971199Y-10868222D02*
X-3980723Y-10849174D01*
X-3980723Y-10849174D02*
X-3999770Y-10839650D01*
X-3999770Y-10839650D02*
X-4028342Y-10839650D01*
X-4028342Y-10839650D02*
X-4047389Y-10849174D01*
X-4047389Y-10849174D02*
X-4056913Y-10858698D01*
X-3847389Y-10972984D02*
X-3866437Y-10963460D01*
X-3866437Y-10963460D02*
X-3875961Y-10953936D01*
X-3875961Y-10953936D02*
X-3885485Y-10934889D01*
X-3885485Y-10934889D02*
X-3885485Y-10877746D01*
X-3885485Y-10877746D02*
X-3875961Y-10858698D01*
X-3875961Y-10858698D02*
X-3866437Y-10849174D01*
X-3866437Y-10849174D02*
X-3847389Y-10839650D01*
X-3847389Y-10839650D02*
X-3818818Y-10839650D01*
X-3818818Y-10839650D02*
X-3799770Y-10849174D01*
X-3799770Y-10849174D02*
X-3790246Y-10858698D01*
X-3790246Y-10858698D02*
X-3780723Y-10877746D01*
X-3780723Y-10877746D02*
X-3780723Y-10934889D01*
X-3780723Y-10934889D02*
X-3790246Y-10953936D01*
X-3790246Y-10953936D02*
X-3799770Y-10963460D01*
X-3799770Y-10963460D02*
X-3818818Y-10972984D01*
X-3818818Y-10972984D02*
X-3847389Y-10972984D01*
X-3666437Y-10972984D02*
X-3685485Y-10963460D01*
X-3685485Y-10963460D02*
X-3695008Y-10944412D01*
X-3695008Y-10944412D02*
X-3695008Y-10772984D01*
X-3514056Y-10963460D02*
X-3533104Y-10972984D01*
X-3533104Y-10972984D02*
X-3571199Y-10972984D01*
X-3571199Y-10972984D02*
X-3590246Y-10963460D01*
X-3590246Y-10963460D02*
X-3599770Y-10944412D01*
X-3599770Y-10944412D02*
X-3599770Y-10868222D01*
X-3599770Y-10868222D02*
X-3590246Y-10849174D01*
X-3590246Y-10849174D02*
X-3571199Y-10839650D01*
X-3571199Y-10839650D02*
X-3533104Y-10839650D01*
X-3533104Y-10839650D02*
X-3514056Y-10849174D01*
X-3514056Y-10849174D02*
X-3504532Y-10868222D01*
X-3504532Y-10868222D02*
X-3504532Y-10887270D01*
X-3504532Y-10887270D02*
X-3599770Y-10906317D01*
X-3428342Y-10963460D02*
X-3409294Y-10972984D01*
X-3409294Y-10972984D02*
X-3371199Y-10972984D01*
X-3371199Y-10972984D02*
X-3352151Y-10963460D01*
X-3352151Y-10963460D02*
X-3342627Y-10944412D01*
X-3342627Y-10944412D02*
X-3342627Y-10934889D01*
X-3342627Y-10934889D02*
X-3352151Y-10915841D01*
X-3352151Y-10915841D02*
X-3371199Y-10906317D01*
X-3371199Y-10906317D02*
X-3399770Y-10906317D01*
X-3399770Y-10906317D02*
X-3418818Y-10896793D01*
X-3418818Y-10896793D02*
X-3428342Y-10877746D01*
X-3428342Y-10877746D02*
X-3428342Y-10868222D01*
X-3428342Y-10868222D02*
X-3418818Y-10849174D01*
X-3418818Y-10849174D02*
X-3399770Y-10839650D01*
X-3399770Y-10839650D02*
X-3371199Y-10839650D01*
X-3371199Y-10839650D02*
X-3352151Y-10849174D01*
X-3275961Y-11049174D02*
X-3266437Y-11039650D01*
X-3266437Y-11039650D02*
X-3247389Y-11011079D01*
X-3247389Y-11011079D02*
X-3237865Y-10992031D01*
X-3237865Y-10992031D02*
X-3228342Y-10963460D01*
X-3228342Y-10963460D02*
X-3218818Y-10915841D01*
X-3218818Y-10915841D02*
X-3218818Y-10877746D01*
X-3218818Y-10877746D02*
X-3228342Y-10830127D01*
X-3228342Y-10830127D02*
X-3237865Y-10801555D01*
X-3237865Y-10801555D02*
X-3247389Y-10782508D01*
X-3247389Y-10782508D02*
X-3266437Y-10753936D01*
X-3266437Y-10753936D02*
X-3275961Y-10744412D01*
D12*
X-8241500Y-11145500D02*
G75*
G02*
X-8301500Y-11145500I-30000J0D01*
G01*
X-8301500Y-11145500D02*
G75*
G02*
X-8241500Y-11145500I30000J0D01*
G01*
D11*
X-7942628Y-11036984D02*
X-7923580Y-11036984D01*
X-7923580Y-11036984D02*
X-7904533Y-11046508D01*
X-7904533Y-11046508D02*
X-7895009Y-11056031D01*
X-7895009Y-11056031D02*
X-7885485Y-11075079D01*
X-7885485Y-11075079D02*
X-7875961Y-11113174D01*
X-7875961Y-11113174D02*
X-7875961Y-11160793D01*
X-7875961Y-11160793D02*
X-7885485Y-11198888D01*
X-7885485Y-11198888D02*
X-7895009Y-11217936D01*
X-7895009Y-11217936D02*
X-7904533Y-11227460D01*
X-7904533Y-11227460D02*
X-7923580Y-11236984D01*
X-7923580Y-11236984D02*
X-7942628Y-11236984D01*
X-7942628Y-11236984D02*
X-7961675Y-11227460D01*
X-7961675Y-11227460D02*
X-7971199Y-11217936D01*
X-7971199Y-11217936D02*
X-7980723Y-11198888D01*
X-7980723Y-11198888D02*
X-7990247Y-11160793D01*
X-7990247Y-11160793D02*
X-7990247Y-11113174D01*
X-7990247Y-11113174D02*
X-7980723Y-11075079D01*
X-7980723Y-11075079D02*
X-7971199Y-11056031D01*
X-7971199Y-11056031D02*
X-7961675Y-11046508D01*
X-7961675Y-11046508D02*
X-7942628Y-11036984D01*
X-7790247Y-11217936D02*
X-7780723Y-11227460D01*
X-7780723Y-11227460D02*
X-7790247Y-11236984D01*
X-7790247Y-11236984D02*
X-7799771Y-11227460D01*
X-7799771Y-11227460D02*
X-7790247Y-11217936D01*
X-7790247Y-11217936D02*
X-7790247Y-11236984D01*
X-7609294Y-11036984D02*
X-7647390Y-11036984D01*
X-7647390Y-11036984D02*
X-7666437Y-11046508D01*
X-7666437Y-11046508D02*
X-7675961Y-11056031D01*
X-7675961Y-11056031D02*
X-7695009Y-11084603D01*
X-7695009Y-11084603D02*
X-7704533Y-11122698D01*
X-7704533Y-11122698D02*
X-7704533Y-11198888D01*
X-7704533Y-11198888D02*
X-7695009Y-11217936D01*
X-7695009Y-11217936D02*
X-7685485Y-11227460D01*
X-7685485Y-11227460D02*
X-7666437Y-11236984D01*
X-7666437Y-11236984D02*
X-7628342Y-11236984D01*
X-7628342Y-11236984D02*
X-7609294Y-11227460D01*
X-7609294Y-11227460D02*
X-7599771Y-11217936D01*
X-7599771Y-11217936D02*
X-7590247Y-11198888D01*
X-7590247Y-11198888D02*
X-7590247Y-11151270D01*
X-7590247Y-11151270D02*
X-7599771Y-11132222D01*
X-7599771Y-11132222D02*
X-7609294Y-11122698D01*
X-7609294Y-11122698D02*
X-7628342Y-11113174D01*
X-7628342Y-11113174D02*
X-7666437Y-11113174D01*
X-7666437Y-11113174D02*
X-7685485Y-11122698D01*
X-7685485Y-11122698D02*
X-7695009Y-11132222D01*
X-7695009Y-11132222D02*
X-7704533Y-11151270D01*
X-7466437Y-11036984D02*
X-7447390Y-11036984D01*
X-7447390Y-11036984D02*
X-7428342Y-11046508D01*
X-7428342Y-11046508D02*
X-7418818Y-11056031D01*
X-7418818Y-11056031D02*
X-7409294Y-11075079D01*
X-7409294Y-11075079D02*
X-7399771Y-11113174D01*
X-7399771Y-11113174D02*
X-7399771Y-11160793D01*
X-7399771Y-11160793D02*
X-7409294Y-11198888D01*
X-7409294Y-11198888D02*
X-7418818Y-11217936D01*
X-7418818Y-11217936D02*
X-7428342Y-11227460D01*
X-7428342Y-11227460D02*
X-7447390Y-11236984D01*
X-7447390Y-11236984D02*
X-7466437Y-11236984D01*
X-7466437Y-11236984D02*
X-7485485Y-11227460D01*
X-7485485Y-11227460D02*
X-7495009Y-11217936D01*
X-7495009Y-11217936D02*
X-7504533Y-11198888D01*
X-7504533Y-11198888D02*
X-7514056Y-11160793D01*
X-7514056Y-11160793D02*
X-7514056Y-11113174D01*
X-7514056Y-11113174D02*
X-7504533Y-11075079D01*
X-7504533Y-11075079D02*
X-7495009Y-11056031D01*
X-7495009Y-11056031D02*
X-7485485Y-11046508D01*
X-7485485Y-11046508D02*
X-7466437Y-11036984D01*
X-7275961Y-11036984D02*
X-7256913Y-11036984D01*
X-7256913Y-11036984D02*
X-7237866Y-11046508D01*
X-7237866Y-11046508D02*
X-7228342Y-11056031D01*
X-7228342Y-11056031D02*
X-7218818Y-11075079D01*
X-7218818Y-11075079D02*
X-7209294Y-11113174D01*
X-7209294Y-11113174D02*
X-7209294Y-11160793D01*
X-7209294Y-11160793D02*
X-7218818Y-11198888D01*
X-7218818Y-11198888D02*
X-7228342Y-11217936D01*
X-7228342Y-11217936D02*
X-7237866Y-11227460D01*
X-7237866Y-11227460D02*
X-7256913Y-11236984D01*
X-7256913Y-11236984D02*
X-7275961Y-11236984D01*
X-7275961Y-11236984D02*
X-7295009Y-11227460D01*
X-7295009Y-11227460D02*
X-7304533Y-11217936D01*
X-7304533Y-11217936D02*
X-7314056Y-11198888D01*
X-7314056Y-11198888D02*
X-7323580Y-11160793D01*
X-7323580Y-11160793D02*
X-7323580Y-11113174D01*
X-7323580Y-11113174D02*
X-7314056Y-11075079D01*
X-7314056Y-11075079D02*
X-7304533Y-11056031D01*
X-7304533Y-11056031D02*
X-7295009Y-11046508D01*
X-7295009Y-11046508D02*
X-7275961Y-11036984D01*
X-7123580Y-11236984D02*
X-7123580Y-11103650D01*
X-7123580Y-11122698D02*
X-7114056Y-11113174D01*
X-7114056Y-11113174D02*
X-7095009Y-11103650D01*
X-7095009Y-11103650D02*
X-7066437Y-11103650D01*
X-7066437Y-11103650D02*
X-7047390Y-11113174D01*
X-7047390Y-11113174D02*
X-7037866Y-11132222D01*
X-7037866Y-11132222D02*
X-7037866Y-11236984D01*
X-7037866Y-11132222D02*
X-7028342Y-11113174D01*
X-7028342Y-11113174D02*
X-7009294Y-11103650D01*
X-7009294Y-11103650D02*
X-6980723Y-11103650D01*
X-6980723Y-11103650D02*
X-6961675Y-11113174D01*
X-6961675Y-11113174D02*
X-6952152Y-11132222D01*
X-6952152Y-11132222D02*
X-6952152Y-11236984D01*
X-6856913Y-11236984D02*
X-6856913Y-11103650D01*
X-6856913Y-11122698D02*
X-6847390Y-11113174D01*
X-6847390Y-11113174D02*
X-6828342Y-11103650D01*
X-6828342Y-11103650D02*
X-6799771Y-11103650D01*
X-6799771Y-11103650D02*
X-6780723Y-11113174D01*
X-6780723Y-11113174D02*
X-6771199Y-11132222D01*
X-6771199Y-11132222D02*
X-6771199Y-11236984D01*
X-6771199Y-11132222D02*
X-6761675Y-11113174D01*
X-6761675Y-11113174D02*
X-6742628Y-11103650D01*
X-6742628Y-11103650D02*
X-6714056Y-11103650D01*
X-6714056Y-11103650D02*
X-6695009Y-11113174D01*
X-6695009Y-11113174D02*
X-6685485Y-11132222D01*
X-6685485Y-11132222D02*
X-6685485Y-11236984D01*
X-6295009Y-11027460D02*
X-6466437Y-11284603D01*
X-6037866Y-11036984D02*
X-6018818Y-11036984D01*
X-6018818Y-11036984D02*
X-5999770Y-11046508D01*
X-5999770Y-11046508D02*
X-5990247Y-11056031D01*
X-5990247Y-11056031D02*
X-5980723Y-11075079D01*
X-5980723Y-11075079D02*
X-5971199Y-11113174D01*
X-5971199Y-11113174D02*
X-5971199Y-11160793D01*
X-5971199Y-11160793D02*
X-5980723Y-11198888D01*
X-5980723Y-11198888D02*
X-5990247Y-11217936D01*
X-5990247Y-11217936D02*
X-5999770Y-11227460D01*
X-5999770Y-11227460D02*
X-6018818Y-11236984D01*
X-6018818Y-11236984D02*
X-6037866Y-11236984D01*
X-6037866Y-11236984D02*
X-6056913Y-11227460D01*
X-6056913Y-11227460D02*
X-6066437Y-11217936D01*
X-6066437Y-11217936D02*
X-6075961Y-11198888D01*
X-6075961Y-11198888D02*
X-6085485Y-11160793D01*
X-6085485Y-11160793D02*
X-6085485Y-11113174D01*
X-6085485Y-11113174D02*
X-6075961Y-11075079D01*
X-6075961Y-11075079D02*
X-6066437Y-11056031D01*
X-6066437Y-11056031D02*
X-6056913Y-11046508D01*
X-6056913Y-11046508D02*
X-6037866Y-11036984D01*
X-5885485Y-11217936D02*
X-5875961Y-11227460D01*
X-5875961Y-11227460D02*
X-5885485Y-11236984D01*
X-5885485Y-11236984D02*
X-5895009Y-11227460D01*
X-5895009Y-11227460D02*
X-5885485Y-11217936D01*
X-5885485Y-11217936D02*
X-5885485Y-11236984D01*
X-5752151Y-11036984D02*
X-5733104Y-11036984D01*
X-5733104Y-11036984D02*
X-5714056Y-11046508D01*
X-5714056Y-11046508D02*
X-5704532Y-11056031D01*
X-5704532Y-11056031D02*
X-5695009Y-11075079D01*
X-5695009Y-11075079D02*
X-5685485Y-11113174D01*
X-5685485Y-11113174D02*
X-5685485Y-11160793D01*
X-5685485Y-11160793D02*
X-5695009Y-11198888D01*
X-5695009Y-11198888D02*
X-5704532Y-11217936D01*
X-5704532Y-11217936D02*
X-5714056Y-11227460D01*
X-5714056Y-11227460D02*
X-5733104Y-11236984D01*
X-5733104Y-11236984D02*
X-5752151Y-11236984D01*
X-5752151Y-11236984D02*
X-5771199Y-11227460D01*
X-5771199Y-11227460D02*
X-5780723Y-11217936D01*
X-5780723Y-11217936D02*
X-5790247Y-11198888D01*
X-5790247Y-11198888D02*
X-5799770Y-11160793D01*
X-5799770Y-11160793D02*
X-5799770Y-11113174D01*
X-5799770Y-11113174D02*
X-5790247Y-11075079D01*
X-5790247Y-11075079D02*
X-5780723Y-11056031D01*
X-5780723Y-11056031D02*
X-5771199Y-11046508D01*
X-5771199Y-11046508D02*
X-5752151Y-11036984D01*
X-5609294Y-11056031D02*
X-5599770Y-11046508D01*
X-5599770Y-11046508D02*
X-5580723Y-11036984D01*
X-5580723Y-11036984D02*
X-5533104Y-11036984D01*
X-5533104Y-11036984D02*
X-5514056Y-11046508D01*
X-5514056Y-11046508D02*
X-5504532Y-11056031D01*
X-5504532Y-11056031D02*
X-5495009Y-11075079D01*
X-5495009Y-11075079D02*
X-5495009Y-11094127D01*
X-5495009Y-11094127D02*
X-5504532Y-11122698D01*
X-5504532Y-11122698D02*
X-5618818Y-11236984D01*
X-5618818Y-11236984D02*
X-5495009Y-11236984D01*
X-5428342Y-11036984D02*
X-5304532Y-11036984D01*
X-5304532Y-11036984D02*
X-5371199Y-11113174D01*
X-5371199Y-11113174D02*
X-5342628Y-11113174D01*
X-5342628Y-11113174D02*
X-5323580Y-11122698D01*
X-5323580Y-11122698D02*
X-5314056Y-11132222D01*
X-5314056Y-11132222D02*
X-5304532Y-11151270D01*
X-5304532Y-11151270D02*
X-5304532Y-11198888D01*
X-5304532Y-11198888D02*
X-5314056Y-11217936D01*
X-5314056Y-11217936D02*
X-5323580Y-11227460D01*
X-5323580Y-11227460D02*
X-5342628Y-11236984D01*
X-5342628Y-11236984D02*
X-5399771Y-11236984D01*
X-5399771Y-11236984D02*
X-5418818Y-11227460D01*
X-5418818Y-11227460D02*
X-5428342Y-11217936D01*
X-5133104Y-11036984D02*
X-5171199Y-11036984D01*
X-5171199Y-11036984D02*
X-5190247Y-11046508D01*
X-5190247Y-11046508D02*
X-5199771Y-11056031D01*
X-5199771Y-11056031D02*
X-5218818Y-11084603D01*
X-5218818Y-11084603D02*
X-5228342Y-11122698D01*
X-5228342Y-11122698D02*
X-5228342Y-11198888D01*
X-5228342Y-11198888D02*
X-5218818Y-11217936D01*
X-5218818Y-11217936D02*
X-5209294Y-11227460D01*
X-5209294Y-11227460D02*
X-5190247Y-11236984D01*
X-5190247Y-11236984D02*
X-5152151Y-11236984D01*
X-5152151Y-11236984D02*
X-5133104Y-11227460D01*
X-5133104Y-11227460D02*
X-5123580Y-11217936D01*
X-5123580Y-11217936D02*
X-5114056Y-11198888D01*
X-5114056Y-11198888D02*
X-5114056Y-11151270D01*
X-5114056Y-11151270D02*
X-5123580Y-11132222D01*
X-5123580Y-11132222D02*
X-5133104Y-11122698D01*
X-5133104Y-11122698D02*
X-5152151Y-11113174D01*
X-5152151Y-11113174D02*
X-5190247Y-11113174D01*
X-5190247Y-11113174D02*
X-5209294Y-11122698D01*
X-5209294Y-11122698D02*
X-5218818Y-11132222D01*
X-5218818Y-11132222D02*
X-5228342Y-11151270D01*
X-5037866Y-11036984D02*
X-5037866Y-11075079D01*
X-4961675Y-11036984D02*
X-4961675Y-11075079D01*
X-4666437Y-11313174D02*
X-4675961Y-11303650D01*
X-4675961Y-11303650D02*
X-4695009Y-11275079D01*
X-4695009Y-11275079D02*
X-4704532Y-11256031D01*
X-4704532Y-11256031D02*
X-4714056Y-11227460D01*
X-4714056Y-11227460D02*
X-4723580Y-11179841D01*
X-4723580Y-11179841D02*
X-4723580Y-11141746D01*
X-4723580Y-11141746D02*
X-4714056Y-11094127D01*
X-4714056Y-11094127D02*
X-4704532Y-11065555D01*
X-4704532Y-11065555D02*
X-4695009Y-11046508D01*
X-4695009Y-11046508D02*
X-4675961Y-11017936D01*
X-4675961Y-11017936D02*
X-4666437Y-11008412D01*
X-4485485Y-11236984D02*
X-4599770Y-11236984D01*
X-4542628Y-11236984D02*
X-4542628Y-11036984D01*
X-4542628Y-11036984D02*
X-4561675Y-11065555D01*
X-4561675Y-11065555D02*
X-4580723Y-11084603D01*
X-4580723Y-11084603D02*
X-4599770Y-11094127D01*
X-4418818Y-11036984D02*
X-4295009Y-11036984D01*
X-4295009Y-11036984D02*
X-4361675Y-11113174D01*
X-4361675Y-11113174D02*
X-4333104Y-11113174D01*
X-4333104Y-11113174D02*
X-4314056Y-11122698D01*
X-4314056Y-11122698D02*
X-4304532Y-11132222D01*
X-4304532Y-11132222D02*
X-4295009Y-11151270D01*
X-4295009Y-11151270D02*
X-4295009Y-11198888D01*
X-4295009Y-11198888D02*
X-4304532Y-11217936D01*
X-4304532Y-11217936D02*
X-4314056Y-11227460D01*
X-4314056Y-11227460D02*
X-4333104Y-11236984D01*
X-4333104Y-11236984D02*
X-4390247Y-11236984D01*
X-4390247Y-11236984D02*
X-4409294Y-11227460D01*
X-4409294Y-11227460D02*
X-4418818Y-11217936D01*
X-4056913Y-11236984D02*
X-4056913Y-11036984D01*
X-3971199Y-11236984D02*
X-3971199Y-11132222D01*
X-3971199Y-11132222D02*
X-3980723Y-11113174D01*
X-3980723Y-11113174D02*
X-3999770Y-11103650D01*
X-3999770Y-11103650D02*
X-4028342Y-11103650D01*
X-4028342Y-11103650D02*
X-4047389Y-11113174D01*
X-4047389Y-11113174D02*
X-4056913Y-11122698D01*
X-3847389Y-11236984D02*
X-3866437Y-11227460D01*
X-3866437Y-11227460D02*
X-3875961Y-11217936D01*
X-3875961Y-11217936D02*
X-3885485Y-11198888D01*
X-3885485Y-11198888D02*
X-3885485Y-11141746D01*
X-3885485Y-11141746D02*
X-3875961Y-11122698D01*
X-3875961Y-11122698D02*
X-3866437Y-11113174D01*
X-3866437Y-11113174D02*
X-3847389Y-11103650D01*
X-3847389Y-11103650D02*
X-3818818Y-11103650D01*
X-3818818Y-11103650D02*
X-3799770Y-11113174D01*
X-3799770Y-11113174D02*
X-3790246Y-11122698D01*
X-3790246Y-11122698D02*
X-3780723Y-11141746D01*
X-3780723Y-11141746D02*
X-3780723Y-11198888D01*
X-3780723Y-11198888D02*
X-3790246Y-11217936D01*
X-3790246Y-11217936D02*
X-3799770Y-11227460D01*
X-3799770Y-11227460D02*
X-3818818Y-11236984D01*
X-3818818Y-11236984D02*
X-3847389Y-11236984D01*
X-3666437Y-11236984D02*
X-3685485Y-11227460D01*
X-3685485Y-11227460D02*
X-3695008Y-11208412D01*
X-3695008Y-11208412D02*
X-3695008Y-11036984D01*
X-3514056Y-11227460D02*
X-3533104Y-11236984D01*
X-3533104Y-11236984D02*
X-3571199Y-11236984D01*
X-3571199Y-11236984D02*
X-3590246Y-11227460D01*
X-3590246Y-11227460D02*
X-3599770Y-11208412D01*
X-3599770Y-11208412D02*
X-3599770Y-11132222D01*
X-3599770Y-11132222D02*
X-3590246Y-11113174D01*
X-3590246Y-11113174D02*
X-3571199Y-11103650D01*
X-3571199Y-11103650D02*
X-3533104Y-11103650D01*
X-3533104Y-11103650D02*
X-3514056Y-11113174D01*
X-3514056Y-11113174D02*
X-3504532Y-11132222D01*
X-3504532Y-11132222D02*
X-3504532Y-11151270D01*
X-3504532Y-11151270D02*
X-3599770Y-11170317D01*
X-3428342Y-11227460D02*
X-3409294Y-11236984D01*
X-3409294Y-11236984D02*
X-3371199Y-11236984D01*
X-3371199Y-11236984D02*
X-3352151Y-11227460D01*
X-3352151Y-11227460D02*
X-3342627Y-11208412D01*
X-3342627Y-11208412D02*
X-3342627Y-11198888D01*
X-3342627Y-11198888D02*
X-3352151Y-11179841D01*
X-3352151Y-11179841D02*
X-3371199Y-11170317D01*
X-3371199Y-11170317D02*
X-3399770Y-11170317D01*
X-3399770Y-11170317D02*
X-3418818Y-11160793D01*
X-3418818Y-11160793D02*
X-3428342Y-11141746D01*
X-3428342Y-11141746D02*
X-3428342Y-11132222D01*
X-3428342Y-11132222D02*
X-3418818Y-11113174D01*
X-3418818Y-11113174D02*
X-3399770Y-11103650D01*
X-3399770Y-11103650D02*
X-3371199Y-11103650D01*
X-3371199Y-11103650D02*
X-3352151Y-11113174D01*
X-3275961Y-11313174D02*
X-3266437Y-11303650D01*
X-3266437Y-11303650D02*
X-3247389Y-11275079D01*
X-3247389Y-11275079D02*
X-3237865Y-11256031D01*
X-3237865Y-11256031D02*
X-3228342Y-11227460D01*
X-3228342Y-11227460D02*
X-3218818Y-11179841D01*
X-3218818Y-11179841D02*
X-3218818Y-11141746D01*
X-3218818Y-11141746D02*
X-3228342Y-11094127D01*
X-3228342Y-11094127D02*
X-3237865Y-11065555D01*
X-3237865Y-11065555D02*
X-3247389Y-11046508D01*
X-3247389Y-11046508D02*
X-3266437Y-11017936D01*
X-3266437Y-11017936D02*
X-3275961Y-11008412D01*
D12*
X-8281500Y-11369500D02*
X-8281500Y-11449500D01*
X-8321500Y-11409500D02*
X-8241500Y-11409500D01*
D11*
X-7942628Y-11300984D02*
X-7923580Y-11300984D01*
X-7923580Y-11300984D02*
X-7904533Y-11310508D01*
X-7904533Y-11310508D02*
X-7895009Y-11320031D01*
X-7895009Y-11320031D02*
X-7885485Y-11339079D01*
X-7885485Y-11339079D02*
X-7875961Y-11377174D01*
X-7875961Y-11377174D02*
X-7875961Y-11424793D01*
X-7875961Y-11424793D02*
X-7885485Y-11462888D01*
X-7885485Y-11462888D02*
X-7895009Y-11481936D01*
X-7895009Y-11481936D02*
X-7904533Y-11491460D01*
X-7904533Y-11491460D02*
X-7923580Y-11500984D01*
X-7923580Y-11500984D02*
X-7942628Y-11500984D01*
X-7942628Y-11500984D02*
X-7961675Y-11491460D01*
X-7961675Y-11491460D02*
X-7971199Y-11481936D01*
X-7971199Y-11481936D02*
X-7980723Y-11462888D01*
X-7980723Y-11462888D02*
X-7990247Y-11424793D01*
X-7990247Y-11424793D02*
X-7990247Y-11377174D01*
X-7990247Y-11377174D02*
X-7980723Y-11339079D01*
X-7980723Y-11339079D02*
X-7971199Y-11320031D01*
X-7971199Y-11320031D02*
X-7961675Y-11310508D01*
X-7961675Y-11310508D02*
X-7942628Y-11300984D01*
X-7790247Y-11481936D02*
X-7780723Y-11491460D01*
X-7780723Y-11491460D02*
X-7790247Y-11500984D01*
X-7790247Y-11500984D02*
X-7799771Y-11491460D01*
X-7799771Y-11491460D02*
X-7790247Y-11481936D01*
X-7790247Y-11481936D02*
X-7790247Y-11500984D01*
X-7666437Y-11386698D02*
X-7685485Y-11377174D01*
X-7685485Y-11377174D02*
X-7695009Y-11367650D01*
X-7695009Y-11367650D02*
X-7704533Y-11348603D01*
X-7704533Y-11348603D02*
X-7704533Y-11339079D01*
X-7704533Y-11339079D02*
X-7695009Y-11320031D01*
X-7695009Y-11320031D02*
X-7685485Y-11310508D01*
X-7685485Y-11310508D02*
X-7666437Y-11300984D01*
X-7666437Y-11300984D02*
X-7628342Y-11300984D01*
X-7628342Y-11300984D02*
X-7609294Y-11310508D01*
X-7609294Y-11310508D02*
X-7599771Y-11320031D01*
X-7599771Y-11320031D02*
X-7590247Y-11339079D01*
X-7590247Y-11339079D02*
X-7590247Y-11348603D01*
X-7590247Y-11348603D02*
X-7599771Y-11367650D01*
X-7599771Y-11367650D02*
X-7609294Y-11377174D01*
X-7609294Y-11377174D02*
X-7628342Y-11386698D01*
X-7628342Y-11386698D02*
X-7666437Y-11386698D01*
X-7666437Y-11386698D02*
X-7685485Y-11396222D01*
X-7685485Y-11396222D02*
X-7695009Y-11405746D01*
X-7695009Y-11405746D02*
X-7704533Y-11424793D01*
X-7704533Y-11424793D02*
X-7704533Y-11462888D01*
X-7704533Y-11462888D02*
X-7695009Y-11481936D01*
X-7695009Y-11481936D02*
X-7685485Y-11491460D01*
X-7685485Y-11491460D02*
X-7666437Y-11500984D01*
X-7666437Y-11500984D02*
X-7628342Y-11500984D01*
X-7628342Y-11500984D02*
X-7609294Y-11491460D01*
X-7609294Y-11491460D02*
X-7599771Y-11481936D01*
X-7599771Y-11481936D02*
X-7590247Y-11462888D01*
X-7590247Y-11462888D02*
X-7590247Y-11424793D01*
X-7590247Y-11424793D02*
X-7599771Y-11405746D01*
X-7599771Y-11405746D02*
X-7609294Y-11396222D01*
X-7609294Y-11396222D02*
X-7628342Y-11386698D01*
X-7466437Y-11300984D02*
X-7447390Y-11300984D01*
X-7447390Y-11300984D02*
X-7428342Y-11310508D01*
X-7428342Y-11310508D02*
X-7418818Y-11320031D01*
X-7418818Y-11320031D02*
X-7409294Y-11339079D01*
X-7409294Y-11339079D02*
X-7399771Y-11377174D01*
X-7399771Y-11377174D02*
X-7399771Y-11424793D01*
X-7399771Y-11424793D02*
X-7409294Y-11462888D01*
X-7409294Y-11462888D02*
X-7418818Y-11481936D01*
X-7418818Y-11481936D02*
X-7428342Y-11491460D01*
X-7428342Y-11491460D02*
X-7447390Y-11500984D01*
X-7447390Y-11500984D02*
X-7466437Y-11500984D01*
X-7466437Y-11500984D02*
X-7485485Y-11491460D01*
X-7485485Y-11491460D02*
X-7495009Y-11481936D01*
X-7495009Y-11481936D02*
X-7504533Y-11462888D01*
X-7504533Y-11462888D02*
X-7514056Y-11424793D01*
X-7514056Y-11424793D02*
X-7514056Y-11377174D01*
X-7514056Y-11377174D02*
X-7504533Y-11339079D01*
X-7504533Y-11339079D02*
X-7495009Y-11320031D01*
X-7495009Y-11320031D02*
X-7485485Y-11310508D01*
X-7485485Y-11310508D02*
X-7466437Y-11300984D01*
X-7275961Y-11300984D02*
X-7256913Y-11300984D01*
X-7256913Y-11300984D02*
X-7237866Y-11310508D01*
X-7237866Y-11310508D02*
X-7228342Y-11320031D01*
X-7228342Y-11320031D02*
X-7218818Y-11339079D01*
X-7218818Y-11339079D02*
X-7209294Y-11377174D01*
X-7209294Y-11377174D02*
X-7209294Y-11424793D01*
X-7209294Y-11424793D02*
X-7218818Y-11462888D01*
X-7218818Y-11462888D02*
X-7228342Y-11481936D01*
X-7228342Y-11481936D02*
X-7237866Y-11491460D01*
X-7237866Y-11491460D02*
X-7256913Y-11500984D01*
X-7256913Y-11500984D02*
X-7275961Y-11500984D01*
X-7275961Y-11500984D02*
X-7295009Y-11491460D01*
X-7295009Y-11491460D02*
X-7304533Y-11481936D01*
X-7304533Y-11481936D02*
X-7314056Y-11462888D01*
X-7314056Y-11462888D02*
X-7323580Y-11424793D01*
X-7323580Y-11424793D02*
X-7323580Y-11377174D01*
X-7323580Y-11377174D02*
X-7314056Y-11339079D01*
X-7314056Y-11339079D02*
X-7304533Y-11320031D01*
X-7304533Y-11320031D02*
X-7295009Y-11310508D01*
X-7295009Y-11310508D02*
X-7275961Y-11300984D01*
X-7123580Y-11500984D02*
X-7123580Y-11367650D01*
X-7123580Y-11386698D02*
X-7114056Y-11377174D01*
X-7114056Y-11377174D02*
X-7095009Y-11367650D01*
X-7095009Y-11367650D02*
X-7066437Y-11367650D01*
X-7066437Y-11367650D02*
X-7047390Y-11377174D01*
X-7047390Y-11377174D02*
X-7037866Y-11396222D01*
X-7037866Y-11396222D02*
X-7037866Y-11500984D01*
X-7037866Y-11396222D02*
X-7028342Y-11377174D01*
X-7028342Y-11377174D02*
X-7009294Y-11367650D01*
X-7009294Y-11367650D02*
X-6980723Y-11367650D01*
X-6980723Y-11367650D02*
X-6961675Y-11377174D01*
X-6961675Y-11377174D02*
X-6952152Y-11396222D01*
X-6952152Y-11396222D02*
X-6952152Y-11500984D01*
X-6856913Y-11500984D02*
X-6856913Y-11367650D01*
X-6856913Y-11386698D02*
X-6847390Y-11377174D01*
X-6847390Y-11377174D02*
X-6828342Y-11367650D01*
X-6828342Y-11367650D02*
X-6799771Y-11367650D01*
X-6799771Y-11367650D02*
X-6780723Y-11377174D01*
X-6780723Y-11377174D02*
X-6771199Y-11396222D01*
X-6771199Y-11396222D02*
X-6771199Y-11500984D01*
X-6771199Y-11396222D02*
X-6761675Y-11377174D01*
X-6761675Y-11377174D02*
X-6742628Y-11367650D01*
X-6742628Y-11367650D02*
X-6714056Y-11367650D01*
X-6714056Y-11367650D02*
X-6695009Y-11377174D01*
X-6695009Y-11377174D02*
X-6685485Y-11396222D01*
X-6685485Y-11396222D02*
X-6685485Y-11500984D01*
X-6295009Y-11291460D02*
X-6466437Y-11548603D01*
X-6037866Y-11300984D02*
X-6018818Y-11300984D01*
X-6018818Y-11300984D02*
X-5999770Y-11310508D01*
X-5999770Y-11310508D02*
X-5990247Y-11320031D01*
X-5990247Y-11320031D02*
X-5980723Y-11339079D01*
X-5980723Y-11339079D02*
X-5971199Y-11377174D01*
X-5971199Y-11377174D02*
X-5971199Y-11424793D01*
X-5971199Y-11424793D02*
X-5980723Y-11462888D01*
X-5980723Y-11462888D02*
X-5990247Y-11481936D01*
X-5990247Y-11481936D02*
X-5999770Y-11491460D01*
X-5999770Y-11491460D02*
X-6018818Y-11500984D01*
X-6018818Y-11500984D02*
X-6037866Y-11500984D01*
X-6037866Y-11500984D02*
X-6056913Y-11491460D01*
X-6056913Y-11491460D02*
X-6066437Y-11481936D01*
X-6066437Y-11481936D02*
X-6075961Y-11462888D01*
X-6075961Y-11462888D02*
X-6085485Y-11424793D01*
X-6085485Y-11424793D02*
X-6085485Y-11377174D01*
X-6085485Y-11377174D02*
X-6075961Y-11339079D01*
X-6075961Y-11339079D02*
X-6066437Y-11320031D01*
X-6066437Y-11320031D02*
X-6056913Y-11310508D01*
X-6056913Y-11310508D02*
X-6037866Y-11300984D01*
X-5885485Y-11481936D02*
X-5875961Y-11491460D01*
X-5875961Y-11491460D02*
X-5885485Y-11500984D01*
X-5885485Y-11500984D02*
X-5895009Y-11491460D01*
X-5895009Y-11491460D02*
X-5885485Y-11481936D01*
X-5885485Y-11481936D02*
X-5885485Y-11500984D01*
X-5752151Y-11300984D02*
X-5733104Y-11300984D01*
X-5733104Y-11300984D02*
X-5714056Y-11310508D01*
X-5714056Y-11310508D02*
X-5704532Y-11320031D01*
X-5704532Y-11320031D02*
X-5695009Y-11339079D01*
X-5695009Y-11339079D02*
X-5685485Y-11377174D01*
X-5685485Y-11377174D02*
X-5685485Y-11424793D01*
X-5685485Y-11424793D02*
X-5695009Y-11462888D01*
X-5695009Y-11462888D02*
X-5704532Y-11481936D01*
X-5704532Y-11481936D02*
X-5714056Y-11491460D01*
X-5714056Y-11491460D02*
X-5733104Y-11500984D01*
X-5733104Y-11500984D02*
X-5752151Y-11500984D01*
X-5752151Y-11500984D02*
X-5771199Y-11491460D01*
X-5771199Y-11491460D02*
X-5780723Y-11481936D01*
X-5780723Y-11481936D02*
X-5790247Y-11462888D01*
X-5790247Y-11462888D02*
X-5799770Y-11424793D01*
X-5799770Y-11424793D02*
X-5799770Y-11377174D01*
X-5799770Y-11377174D02*
X-5790247Y-11339079D01*
X-5790247Y-11339079D02*
X-5780723Y-11320031D01*
X-5780723Y-11320031D02*
X-5771199Y-11310508D01*
X-5771199Y-11310508D02*
X-5752151Y-11300984D01*
X-5618818Y-11300984D02*
X-5495009Y-11300984D01*
X-5495009Y-11300984D02*
X-5561675Y-11377174D01*
X-5561675Y-11377174D02*
X-5533104Y-11377174D01*
X-5533104Y-11377174D02*
X-5514056Y-11386698D01*
X-5514056Y-11386698D02*
X-5504532Y-11396222D01*
X-5504532Y-11396222D02*
X-5495009Y-11415269D01*
X-5495009Y-11415269D02*
X-5495009Y-11462888D01*
X-5495009Y-11462888D02*
X-5504532Y-11481936D01*
X-5504532Y-11481936D02*
X-5514056Y-11491460D01*
X-5514056Y-11491460D02*
X-5533104Y-11500984D01*
X-5533104Y-11500984D02*
X-5590247Y-11500984D01*
X-5590247Y-11500984D02*
X-5609294Y-11491460D01*
X-5609294Y-11491460D02*
X-5618818Y-11481936D01*
X-5304532Y-11500984D02*
X-5418818Y-11500984D01*
X-5361675Y-11500984D02*
X-5361675Y-11300984D01*
X-5361675Y-11300984D02*
X-5380723Y-11329555D01*
X-5380723Y-11329555D02*
X-5399771Y-11348603D01*
X-5399771Y-11348603D02*
X-5418818Y-11358127D01*
X-5123580Y-11300984D02*
X-5218818Y-11300984D01*
X-5218818Y-11300984D02*
X-5228342Y-11396222D01*
X-5228342Y-11396222D02*
X-5218818Y-11386698D01*
X-5218818Y-11386698D02*
X-5199771Y-11377174D01*
X-5199771Y-11377174D02*
X-5152151Y-11377174D01*
X-5152151Y-11377174D02*
X-5133104Y-11386698D01*
X-5133104Y-11386698D02*
X-5123580Y-11396222D01*
X-5123580Y-11396222D02*
X-5114056Y-11415269D01*
X-5114056Y-11415269D02*
X-5114056Y-11462888D01*
X-5114056Y-11462888D02*
X-5123580Y-11481936D01*
X-5123580Y-11481936D02*
X-5133104Y-11491460D01*
X-5133104Y-11491460D02*
X-5152151Y-11500984D01*
X-5152151Y-11500984D02*
X-5199771Y-11500984D01*
X-5199771Y-11500984D02*
X-5218818Y-11491460D01*
X-5218818Y-11491460D02*
X-5228342Y-11481936D01*
X-5037866Y-11300984D02*
X-5037866Y-11339079D01*
X-4961675Y-11300984D02*
X-4961675Y-11339079D01*
X-4666437Y-11577174D02*
X-4675961Y-11567650D01*
X-4675961Y-11567650D02*
X-4695009Y-11539079D01*
X-4695009Y-11539079D02*
X-4704532Y-11520031D01*
X-4704532Y-11520031D02*
X-4714056Y-11491460D01*
X-4714056Y-11491460D02*
X-4723580Y-11443841D01*
X-4723580Y-11443841D02*
X-4723580Y-11405746D01*
X-4723580Y-11405746D02*
X-4714056Y-11358127D01*
X-4714056Y-11358127D02*
X-4704532Y-11329555D01*
X-4704532Y-11329555D02*
X-4695009Y-11310508D01*
X-4695009Y-11310508D02*
X-4675961Y-11281936D01*
X-4675961Y-11281936D02*
X-4666437Y-11272412D01*
X-4609294Y-11300984D02*
X-4485485Y-11300984D01*
X-4485485Y-11300984D02*
X-4552151Y-11377174D01*
X-4552151Y-11377174D02*
X-4523580Y-11377174D01*
X-4523580Y-11377174D02*
X-4504532Y-11386698D01*
X-4504532Y-11386698D02*
X-4495009Y-11396222D01*
X-4495009Y-11396222D02*
X-4485485Y-11415269D01*
X-4485485Y-11415269D02*
X-4485485Y-11462888D01*
X-4485485Y-11462888D02*
X-4495009Y-11481936D01*
X-4495009Y-11481936D02*
X-4504532Y-11491460D01*
X-4504532Y-11491460D02*
X-4523580Y-11500984D01*
X-4523580Y-11500984D02*
X-4580723Y-11500984D01*
X-4580723Y-11500984D02*
X-4599770Y-11491460D01*
X-4599770Y-11491460D02*
X-4609294Y-11481936D01*
X-4361675Y-11300984D02*
X-4342628Y-11300984D01*
X-4342628Y-11300984D02*
X-4323580Y-11310508D01*
X-4323580Y-11310508D02*
X-4314056Y-11320031D01*
X-4314056Y-11320031D02*
X-4304532Y-11339079D01*
X-4304532Y-11339079D02*
X-4295009Y-11377174D01*
X-4295009Y-11377174D02*
X-4295009Y-11424793D01*
X-4295009Y-11424793D02*
X-4304532Y-11462888D01*
X-4304532Y-11462888D02*
X-4314056Y-11481936D01*
X-4314056Y-11481936D02*
X-4323580Y-11491460D01*
X-4323580Y-11491460D02*
X-4342628Y-11500984D01*
X-4342628Y-11500984D02*
X-4361675Y-11500984D01*
X-4361675Y-11500984D02*
X-4380723Y-11491460D01*
X-4380723Y-11491460D02*
X-4390247Y-11481936D01*
X-4390247Y-11481936D02*
X-4399770Y-11462888D01*
X-4399770Y-11462888D02*
X-4409294Y-11424793D01*
X-4409294Y-11424793D02*
X-4409294Y-11377174D01*
X-4409294Y-11377174D02*
X-4399770Y-11339079D01*
X-4399770Y-11339079D02*
X-4390247Y-11320031D01*
X-4390247Y-11320031D02*
X-4380723Y-11310508D01*
X-4380723Y-11310508D02*
X-4361675Y-11300984D01*
X-4056913Y-11500984D02*
X-4056913Y-11300984D01*
X-3971199Y-11500984D02*
X-3971199Y-11396222D01*
X-3971199Y-11396222D02*
X-3980723Y-11377174D01*
X-3980723Y-11377174D02*
X-3999770Y-11367650D01*
X-3999770Y-11367650D02*
X-4028342Y-11367650D01*
X-4028342Y-11367650D02*
X-4047389Y-11377174D01*
X-4047389Y-11377174D02*
X-4056913Y-11386698D01*
X-3847389Y-11500984D02*
X-3866437Y-11491460D01*
X-3866437Y-11491460D02*
X-3875961Y-11481936D01*
X-3875961Y-11481936D02*
X-3885485Y-11462888D01*
X-3885485Y-11462888D02*
X-3885485Y-11405746D01*
X-3885485Y-11405746D02*
X-3875961Y-11386698D01*
X-3875961Y-11386698D02*
X-3866437Y-11377174D01*
X-3866437Y-11377174D02*
X-3847389Y-11367650D01*
X-3847389Y-11367650D02*
X-3818818Y-11367650D01*
X-3818818Y-11367650D02*
X-3799770Y-11377174D01*
X-3799770Y-11377174D02*
X-3790246Y-11386698D01*
X-3790246Y-11386698D02*
X-3780723Y-11405746D01*
X-3780723Y-11405746D02*
X-3780723Y-11462888D01*
X-3780723Y-11462888D02*
X-3790246Y-11481936D01*
X-3790246Y-11481936D02*
X-3799770Y-11491460D01*
X-3799770Y-11491460D02*
X-3818818Y-11500984D01*
X-3818818Y-11500984D02*
X-3847389Y-11500984D01*
X-3666437Y-11500984D02*
X-3685485Y-11491460D01*
X-3685485Y-11491460D02*
X-3695008Y-11472412D01*
X-3695008Y-11472412D02*
X-3695008Y-11300984D01*
X-3514056Y-11491460D02*
X-3533104Y-11500984D01*
X-3533104Y-11500984D02*
X-3571199Y-11500984D01*
X-3571199Y-11500984D02*
X-3590246Y-11491460D01*
X-3590246Y-11491460D02*
X-3599770Y-11472412D01*
X-3599770Y-11472412D02*
X-3599770Y-11396222D01*
X-3599770Y-11396222D02*
X-3590246Y-11377174D01*
X-3590246Y-11377174D02*
X-3571199Y-11367650D01*
X-3571199Y-11367650D02*
X-3533104Y-11367650D01*
X-3533104Y-11367650D02*
X-3514056Y-11377174D01*
X-3514056Y-11377174D02*
X-3504532Y-11396222D01*
X-3504532Y-11396222D02*
X-3504532Y-11415269D01*
X-3504532Y-11415269D02*
X-3599770Y-11434317D01*
X-3428342Y-11491460D02*
X-3409294Y-11500984D01*
X-3409294Y-11500984D02*
X-3371199Y-11500984D01*
X-3371199Y-11500984D02*
X-3352151Y-11491460D01*
X-3352151Y-11491460D02*
X-3342627Y-11472412D01*
X-3342627Y-11472412D02*
X-3342627Y-11462888D01*
X-3342627Y-11462888D02*
X-3352151Y-11443841D01*
X-3352151Y-11443841D02*
X-3371199Y-11434317D01*
X-3371199Y-11434317D02*
X-3399770Y-11434317D01*
X-3399770Y-11434317D02*
X-3418818Y-11424793D01*
X-3418818Y-11424793D02*
X-3428342Y-11405746D01*
X-3428342Y-11405746D02*
X-3428342Y-11396222D01*
X-3428342Y-11396222D02*
X-3418818Y-11377174D01*
X-3418818Y-11377174D02*
X-3399770Y-11367650D01*
X-3399770Y-11367650D02*
X-3371199Y-11367650D01*
X-3371199Y-11367650D02*
X-3352151Y-11377174D01*
X-3275961Y-11577174D02*
X-3266437Y-11567650D01*
X-3266437Y-11567650D02*
X-3247389Y-11539079D01*
X-3247389Y-11539079D02*
X-3237865Y-11520031D01*
X-3237865Y-11520031D02*
X-3228342Y-11491460D01*
X-3228342Y-11491460D02*
X-3218818Y-11443841D01*
X-3218818Y-11443841D02*
X-3218818Y-11405746D01*
X-3218818Y-11405746D02*
X-3228342Y-11358127D01*
X-3228342Y-11358127D02*
X-3237865Y-11329555D01*
X-3237865Y-11329555D02*
X-3247389Y-11310508D01*
X-3247389Y-11310508D02*
X-3266437Y-11281936D01*
X-3266437Y-11281936D02*
X-3275961Y-11272412D01*
D12*
X-8256144Y-11708856D02*
X-8256144Y-11638144D01*
X-8326856Y-11638144D01*
X-8326856Y-11708856D01*
X-8256144Y-11708856D01*
D11*
X-7875961Y-11764984D02*
X-7990247Y-11764984D01*
X-7933104Y-11764984D02*
X-7933104Y-11564984D01*
X-7933104Y-11564984D02*
X-7952152Y-11593555D01*
X-7952152Y-11593555D02*
X-7971199Y-11612603D01*
X-7971199Y-11612603D02*
X-7990247Y-11622127D01*
X-7790247Y-11745936D02*
X-7780723Y-11755460D01*
X-7780723Y-11755460D02*
X-7790247Y-11764984D01*
X-7790247Y-11764984D02*
X-7799771Y-11755460D01*
X-7799771Y-11755460D02*
X-7790247Y-11745936D01*
X-7790247Y-11745936D02*
X-7790247Y-11764984D01*
X-7656914Y-11564984D02*
X-7637866Y-11564984D01*
X-7637866Y-11564984D02*
X-7618818Y-11574508D01*
X-7618818Y-11574508D02*
X-7609294Y-11584031D01*
X-7609294Y-11584031D02*
X-7599771Y-11603079D01*
X-7599771Y-11603079D02*
X-7590247Y-11641174D01*
X-7590247Y-11641174D02*
X-7590247Y-11688793D01*
X-7590247Y-11688793D02*
X-7599771Y-11726888D01*
X-7599771Y-11726888D02*
X-7609294Y-11745936D01*
X-7609294Y-11745936D02*
X-7618818Y-11755460D01*
X-7618818Y-11755460D02*
X-7637866Y-11764984D01*
X-7637866Y-11764984D02*
X-7656914Y-11764984D01*
X-7656914Y-11764984D02*
X-7675961Y-11755460D01*
X-7675961Y-11755460D02*
X-7685485Y-11745936D01*
X-7685485Y-11745936D02*
X-7695009Y-11726888D01*
X-7695009Y-11726888D02*
X-7704533Y-11688793D01*
X-7704533Y-11688793D02*
X-7704533Y-11641174D01*
X-7704533Y-11641174D02*
X-7695009Y-11603079D01*
X-7695009Y-11603079D02*
X-7685485Y-11584031D01*
X-7685485Y-11584031D02*
X-7675961Y-11574508D01*
X-7675961Y-11574508D02*
X-7656914Y-11564984D01*
X-7466437Y-11564984D02*
X-7447390Y-11564984D01*
X-7447390Y-11564984D02*
X-7428342Y-11574508D01*
X-7428342Y-11574508D02*
X-7418818Y-11584031D01*
X-7418818Y-11584031D02*
X-7409294Y-11603079D01*
X-7409294Y-11603079D02*
X-7399771Y-11641174D01*
X-7399771Y-11641174D02*
X-7399771Y-11688793D01*
X-7399771Y-11688793D02*
X-7409294Y-11726888D01*
X-7409294Y-11726888D02*
X-7418818Y-11745936D01*
X-7418818Y-11745936D02*
X-7428342Y-11755460D01*
X-7428342Y-11755460D02*
X-7447390Y-11764984D01*
X-7447390Y-11764984D02*
X-7466437Y-11764984D01*
X-7466437Y-11764984D02*
X-7485485Y-11755460D01*
X-7485485Y-11755460D02*
X-7495009Y-11745936D01*
X-7495009Y-11745936D02*
X-7504533Y-11726888D01*
X-7504533Y-11726888D02*
X-7514056Y-11688793D01*
X-7514056Y-11688793D02*
X-7514056Y-11641174D01*
X-7514056Y-11641174D02*
X-7504533Y-11603079D01*
X-7504533Y-11603079D02*
X-7495009Y-11584031D01*
X-7495009Y-11584031D02*
X-7485485Y-11574508D01*
X-7485485Y-11574508D02*
X-7466437Y-11564984D01*
X-7275961Y-11564984D02*
X-7256913Y-11564984D01*
X-7256913Y-11564984D02*
X-7237866Y-11574508D01*
X-7237866Y-11574508D02*
X-7228342Y-11584031D01*
X-7228342Y-11584031D02*
X-7218818Y-11603079D01*
X-7218818Y-11603079D02*
X-7209294Y-11641174D01*
X-7209294Y-11641174D02*
X-7209294Y-11688793D01*
X-7209294Y-11688793D02*
X-7218818Y-11726888D01*
X-7218818Y-11726888D02*
X-7228342Y-11745936D01*
X-7228342Y-11745936D02*
X-7237866Y-11755460D01*
X-7237866Y-11755460D02*
X-7256913Y-11764984D01*
X-7256913Y-11764984D02*
X-7275961Y-11764984D01*
X-7275961Y-11764984D02*
X-7295009Y-11755460D01*
X-7295009Y-11755460D02*
X-7304533Y-11745936D01*
X-7304533Y-11745936D02*
X-7314056Y-11726888D01*
X-7314056Y-11726888D02*
X-7323580Y-11688793D01*
X-7323580Y-11688793D02*
X-7323580Y-11641174D01*
X-7323580Y-11641174D02*
X-7314056Y-11603079D01*
X-7314056Y-11603079D02*
X-7304533Y-11584031D01*
X-7304533Y-11584031D02*
X-7295009Y-11574508D01*
X-7295009Y-11574508D02*
X-7275961Y-11564984D01*
X-7123580Y-11764984D02*
X-7123580Y-11631650D01*
X-7123580Y-11650698D02*
X-7114056Y-11641174D01*
X-7114056Y-11641174D02*
X-7095009Y-11631650D01*
X-7095009Y-11631650D02*
X-7066437Y-11631650D01*
X-7066437Y-11631650D02*
X-7047390Y-11641174D01*
X-7047390Y-11641174D02*
X-7037866Y-11660222D01*
X-7037866Y-11660222D02*
X-7037866Y-11764984D01*
X-7037866Y-11660222D02*
X-7028342Y-11641174D01*
X-7028342Y-11641174D02*
X-7009294Y-11631650D01*
X-7009294Y-11631650D02*
X-6980723Y-11631650D01*
X-6980723Y-11631650D02*
X-6961675Y-11641174D01*
X-6961675Y-11641174D02*
X-6952152Y-11660222D01*
X-6952152Y-11660222D02*
X-6952152Y-11764984D01*
X-6856913Y-11764984D02*
X-6856913Y-11631650D01*
X-6856913Y-11650698D02*
X-6847390Y-11641174D01*
X-6847390Y-11641174D02*
X-6828342Y-11631650D01*
X-6828342Y-11631650D02*
X-6799771Y-11631650D01*
X-6799771Y-11631650D02*
X-6780723Y-11641174D01*
X-6780723Y-11641174D02*
X-6771199Y-11660222D01*
X-6771199Y-11660222D02*
X-6771199Y-11764984D01*
X-6771199Y-11660222D02*
X-6761675Y-11641174D01*
X-6761675Y-11641174D02*
X-6742628Y-11631650D01*
X-6742628Y-11631650D02*
X-6714056Y-11631650D01*
X-6714056Y-11631650D02*
X-6695009Y-11641174D01*
X-6695009Y-11641174D02*
X-6685485Y-11660222D01*
X-6685485Y-11660222D02*
X-6685485Y-11764984D01*
X-6295009Y-11555460D02*
X-6466437Y-11812603D01*
X-6037866Y-11564984D02*
X-6018818Y-11564984D01*
X-6018818Y-11564984D02*
X-5999770Y-11574508D01*
X-5999770Y-11574508D02*
X-5990247Y-11584031D01*
X-5990247Y-11584031D02*
X-5980723Y-11603079D01*
X-5980723Y-11603079D02*
X-5971199Y-11641174D01*
X-5971199Y-11641174D02*
X-5971199Y-11688793D01*
X-5971199Y-11688793D02*
X-5980723Y-11726888D01*
X-5980723Y-11726888D02*
X-5990247Y-11745936D01*
X-5990247Y-11745936D02*
X-5999770Y-11755460D01*
X-5999770Y-11755460D02*
X-6018818Y-11764984D01*
X-6018818Y-11764984D02*
X-6037866Y-11764984D01*
X-6037866Y-11764984D02*
X-6056913Y-11755460D01*
X-6056913Y-11755460D02*
X-6066437Y-11745936D01*
X-6066437Y-11745936D02*
X-6075961Y-11726888D01*
X-6075961Y-11726888D02*
X-6085485Y-11688793D01*
X-6085485Y-11688793D02*
X-6085485Y-11641174D01*
X-6085485Y-11641174D02*
X-6075961Y-11603079D01*
X-6075961Y-11603079D02*
X-6066437Y-11584031D01*
X-6066437Y-11584031D02*
X-6056913Y-11574508D01*
X-6056913Y-11574508D02*
X-6037866Y-11564984D01*
X-5885485Y-11745936D02*
X-5875961Y-11755460D01*
X-5875961Y-11755460D02*
X-5885485Y-11764984D01*
X-5885485Y-11764984D02*
X-5895009Y-11755460D01*
X-5895009Y-11755460D02*
X-5885485Y-11745936D01*
X-5885485Y-11745936D02*
X-5885485Y-11764984D01*
X-5752151Y-11564984D02*
X-5733104Y-11564984D01*
X-5733104Y-11564984D02*
X-5714056Y-11574508D01*
X-5714056Y-11574508D02*
X-5704532Y-11584031D01*
X-5704532Y-11584031D02*
X-5695009Y-11603079D01*
X-5695009Y-11603079D02*
X-5685485Y-11641174D01*
X-5685485Y-11641174D02*
X-5685485Y-11688793D01*
X-5685485Y-11688793D02*
X-5695009Y-11726888D01*
X-5695009Y-11726888D02*
X-5704532Y-11745936D01*
X-5704532Y-11745936D02*
X-5714056Y-11755460D01*
X-5714056Y-11755460D02*
X-5733104Y-11764984D01*
X-5733104Y-11764984D02*
X-5752151Y-11764984D01*
X-5752151Y-11764984D02*
X-5771199Y-11755460D01*
X-5771199Y-11755460D02*
X-5780723Y-11745936D01*
X-5780723Y-11745936D02*
X-5790247Y-11726888D01*
X-5790247Y-11726888D02*
X-5799770Y-11688793D01*
X-5799770Y-11688793D02*
X-5799770Y-11641174D01*
X-5799770Y-11641174D02*
X-5790247Y-11603079D01*
X-5790247Y-11603079D02*
X-5780723Y-11584031D01*
X-5780723Y-11584031D02*
X-5771199Y-11574508D01*
X-5771199Y-11574508D02*
X-5752151Y-11564984D01*
X-5618818Y-11564984D02*
X-5495009Y-11564984D01*
X-5495009Y-11564984D02*
X-5561675Y-11641174D01*
X-5561675Y-11641174D02*
X-5533104Y-11641174D01*
X-5533104Y-11641174D02*
X-5514056Y-11650698D01*
X-5514056Y-11650698D02*
X-5504532Y-11660222D01*
X-5504532Y-11660222D02*
X-5495009Y-11679269D01*
X-5495009Y-11679269D02*
X-5495009Y-11726888D01*
X-5495009Y-11726888D02*
X-5504532Y-11745936D01*
X-5504532Y-11745936D02*
X-5514056Y-11755460D01*
X-5514056Y-11755460D02*
X-5533104Y-11764984D01*
X-5533104Y-11764984D02*
X-5590247Y-11764984D01*
X-5590247Y-11764984D02*
X-5609294Y-11755460D01*
X-5609294Y-11755460D02*
X-5618818Y-11745936D01*
X-5399771Y-11764984D02*
X-5361675Y-11764984D01*
X-5361675Y-11764984D02*
X-5342628Y-11755460D01*
X-5342628Y-11755460D02*
X-5333104Y-11745936D01*
X-5333104Y-11745936D02*
X-5314056Y-11717365D01*
X-5314056Y-11717365D02*
X-5304532Y-11679269D01*
X-5304532Y-11679269D02*
X-5304532Y-11603079D01*
X-5304532Y-11603079D02*
X-5314056Y-11584031D01*
X-5314056Y-11584031D02*
X-5323580Y-11574508D01*
X-5323580Y-11574508D02*
X-5342628Y-11564984D01*
X-5342628Y-11564984D02*
X-5380723Y-11564984D01*
X-5380723Y-11564984D02*
X-5399771Y-11574508D01*
X-5399771Y-11574508D02*
X-5409294Y-11584031D01*
X-5409294Y-11584031D02*
X-5418818Y-11603079D01*
X-5418818Y-11603079D02*
X-5418818Y-11650698D01*
X-5418818Y-11650698D02*
X-5409294Y-11669746D01*
X-5409294Y-11669746D02*
X-5399771Y-11679269D01*
X-5399771Y-11679269D02*
X-5380723Y-11688793D01*
X-5380723Y-11688793D02*
X-5342628Y-11688793D01*
X-5342628Y-11688793D02*
X-5323580Y-11679269D01*
X-5323580Y-11679269D02*
X-5314056Y-11669746D01*
X-5314056Y-11669746D02*
X-5304532Y-11650698D01*
X-5133104Y-11631650D02*
X-5133104Y-11764984D01*
X-5180723Y-11555460D02*
X-5228342Y-11698317D01*
X-5228342Y-11698317D02*
X-5104532Y-11698317D01*
X-5037866Y-11564984D02*
X-5037866Y-11603079D01*
X-4961675Y-11564984D02*
X-4961675Y-11603079D01*
X-4666437Y-11841174D02*
X-4675961Y-11831650D01*
X-4675961Y-11831650D02*
X-4695009Y-11803079D01*
X-4695009Y-11803079D02*
X-4704532Y-11784031D01*
X-4704532Y-11784031D02*
X-4714056Y-11755460D01*
X-4714056Y-11755460D02*
X-4723580Y-11707841D01*
X-4723580Y-11707841D02*
X-4723580Y-11669746D01*
X-4723580Y-11669746D02*
X-4714056Y-11622127D01*
X-4714056Y-11622127D02*
X-4704532Y-11593555D01*
X-4704532Y-11593555D02*
X-4695009Y-11574508D01*
X-4695009Y-11574508D02*
X-4675961Y-11545936D01*
X-4675961Y-11545936D02*
X-4666437Y-11536412D01*
X-4599770Y-11584031D02*
X-4590247Y-11574508D01*
X-4590247Y-11574508D02*
X-4571199Y-11564984D01*
X-4571199Y-11564984D02*
X-4523580Y-11564984D01*
X-4523580Y-11564984D02*
X-4504532Y-11574508D01*
X-4504532Y-11574508D02*
X-4495009Y-11584031D01*
X-4495009Y-11584031D02*
X-4485485Y-11603079D01*
X-4485485Y-11603079D02*
X-4485485Y-11622127D01*
X-4485485Y-11622127D02*
X-4495009Y-11650698D01*
X-4495009Y-11650698D02*
X-4609294Y-11764984D01*
X-4609294Y-11764984D02*
X-4485485Y-11764984D01*
X-4314056Y-11564984D02*
X-4352151Y-11564984D01*
X-4352151Y-11564984D02*
X-4371199Y-11574508D01*
X-4371199Y-11574508D02*
X-4380723Y-11584031D01*
X-4380723Y-11584031D02*
X-4399770Y-11612603D01*
X-4399770Y-11612603D02*
X-4409294Y-11650698D01*
X-4409294Y-11650698D02*
X-4409294Y-11726888D01*
X-4409294Y-11726888D02*
X-4399770Y-11745936D01*
X-4399770Y-11745936D02*
X-4390247Y-11755460D01*
X-4390247Y-11755460D02*
X-4371199Y-11764984D01*
X-4371199Y-11764984D02*
X-4333104Y-11764984D01*
X-4333104Y-11764984D02*
X-4314056Y-11755460D01*
X-4314056Y-11755460D02*
X-4304532Y-11745936D01*
X-4304532Y-11745936D02*
X-4295009Y-11726888D01*
X-4295009Y-11726888D02*
X-4295009Y-11679269D01*
X-4295009Y-11679269D02*
X-4304532Y-11660222D01*
X-4304532Y-11660222D02*
X-4314056Y-11650698D01*
X-4314056Y-11650698D02*
X-4333104Y-11641174D01*
X-4333104Y-11641174D02*
X-4371199Y-11641174D01*
X-4371199Y-11641174D02*
X-4390247Y-11650698D01*
X-4390247Y-11650698D02*
X-4399770Y-11660222D01*
X-4399770Y-11660222D02*
X-4409294Y-11679269D01*
X-4056913Y-11764984D02*
X-4056913Y-11564984D01*
X-3971199Y-11764984D02*
X-3971199Y-11660222D01*
X-3971199Y-11660222D02*
X-3980723Y-11641174D01*
X-3980723Y-11641174D02*
X-3999770Y-11631650D01*
X-3999770Y-11631650D02*
X-4028342Y-11631650D01*
X-4028342Y-11631650D02*
X-4047389Y-11641174D01*
X-4047389Y-11641174D02*
X-4056913Y-11650698D01*
X-3847389Y-11764984D02*
X-3866437Y-11755460D01*
X-3866437Y-11755460D02*
X-3875961Y-11745936D01*
X-3875961Y-11745936D02*
X-3885485Y-11726888D01*
X-3885485Y-11726888D02*
X-3885485Y-11669746D01*
X-3885485Y-11669746D02*
X-3875961Y-11650698D01*
X-3875961Y-11650698D02*
X-3866437Y-11641174D01*
X-3866437Y-11641174D02*
X-3847389Y-11631650D01*
X-3847389Y-11631650D02*
X-3818818Y-11631650D01*
X-3818818Y-11631650D02*
X-3799770Y-11641174D01*
X-3799770Y-11641174D02*
X-3790246Y-11650698D01*
X-3790246Y-11650698D02*
X-3780723Y-11669746D01*
X-3780723Y-11669746D02*
X-3780723Y-11726888D01*
X-3780723Y-11726888D02*
X-3790246Y-11745936D01*
X-3790246Y-11745936D02*
X-3799770Y-11755460D01*
X-3799770Y-11755460D02*
X-3818818Y-11764984D01*
X-3818818Y-11764984D02*
X-3847389Y-11764984D01*
X-3666437Y-11764984D02*
X-3685485Y-11755460D01*
X-3685485Y-11755460D02*
X-3695008Y-11736412D01*
X-3695008Y-11736412D02*
X-3695008Y-11564984D01*
X-3514056Y-11755460D02*
X-3533104Y-11764984D01*
X-3533104Y-11764984D02*
X-3571199Y-11764984D01*
X-3571199Y-11764984D02*
X-3590246Y-11755460D01*
X-3590246Y-11755460D02*
X-3599770Y-11736412D01*
X-3599770Y-11736412D02*
X-3599770Y-11660222D01*
X-3599770Y-11660222D02*
X-3590246Y-11641174D01*
X-3590246Y-11641174D02*
X-3571199Y-11631650D01*
X-3571199Y-11631650D02*
X-3533104Y-11631650D01*
X-3533104Y-11631650D02*
X-3514056Y-11641174D01*
X-3514056Y-11641174D02*
X-3504532Y-11660222D01*
X-3504532Y-11660222D02*
X-3504532Y-11679269D01*
X-3504532Y-11679269D02*
X-3599770Y-11698317D01*
X-3428342Y-11755460D02*
X-3409294Y-11764984D01*
X-3409294Y-11764984D02*
X-3371199Y-11764984D01*
X-3371199Y-11764984D02*
X-3352151Y-11755460D01*
X-3352151Y-11755460D02*
X-3342627Y-11736412D01*
X-3342627Y-11736412D02*
X-3342627Y-11726888D01*
X-3342627Y-11726888D02*
X-3352151Y-11707841D01*
X-3352151Y-11707841D02*
X-3371199Y-11698317D01*
X-3371199Y-11698317D02*
X-3399770Y-11698317D01*
X-3399770Y-11698317D02*
X-3418818Y-11688793D01*
X-3418818Y-11688793D02*
X-3428342Y-11669746D01*
X-3428342Y-11669746D02*
X-3428342Y-11660222D01*
X-3428342Y-11660222D02*
X-3418818Y-11641174D01*
X-3418818Y-11641174D02*
X-3399770Y-11631650D01*
X-3399770Y-11631650D02*
X-3371199Y-11631650D01*
X-3371199Y-11631650D02*
X-3352151Y-11641174D01*
X-3275961Y-11841174D02*
X-3266437Y-11831650D01*
X-3266437Y-11831650D02*
X-3247389Y-11803079D01*
X-3247389Y-11803079D02*
X-3237865Y-11784031D01*
X-3237865Y-11784031D02*
X-3228342Y-11755460D01*
X-3228342Y-11755460D02*
X-3218818Y-11707841D01*
X-3218818Y-11707841D02*
X-3218818Y-11669746D01*
X-3218818Y-11669746D02*
X-3228342Y-11622127D01*
X-3228342Y-11622127D02*
X-3237865Y-11593555D01*
X-3237865Y-11593555D02*
X-3247389Y-11574508D01*
X-3247389Y-11574508D02*
X-3266437Y-11545936D01*
X-3266437Y-11545936D02*
X-3275961Y-11536412D01*
D13*
X-8292500Y-11988500D02*
X-8241500Y-11937500D01*
X-8292500Y-11886500D01*
X-8343500Y-11937500D01*
X-8292500Y-11988500D01*
D11*
X-7875961Y-12028984D02*
X-7990247Y-12028984D01*
X-7933104Y-12028984D02*
X-7933104Y-11828984D01*
X-7933104Y-11828984D02*
X-7952152Y-11857555D01*
X-7952152Y-11857555D02*
X-7971199Y-11876603D01*
X-7971199Y-11876603D02*
X-7990247Y-11886127D01*
X-7790247Y-12009936D02*
X-7780723Y-12019460D01*
X-7780723Y-12019460D02*
X-7790247Y-12028984D01*
X-7790247Y-12028984D02*
X-7799771Y-12019460D01*
X-7799771Y-12019460D02*
X-7790247Y-12009936D01*
X-7790247Y-12009936D02*
X-7790247Y-12028984D01*
X-7656914Y-11828984D02*
X-7637866Y-11828984D01*
X-7637866Y-11828984D02*
X-7618818Y-11838508D01*
X-7618818Y-11838508D02*
X-7609294Y-11848031D01*
X-7609294Y-11848031D02*
X-7599771Y-11867079D01*
X-7599771Y-11867079D02*
X-7590247Y-11905174D01*
X-7590247Y-11905174D02*
X-7590247Y-11952793D01*
X-7590247Y-11952793D02*
X-7599771Y-11990888D01*
X-7599771Y-11990888D02*
X-7609294Y-12009936D01*
X-7609294Y-12009936D02*
X-7618818Y-12019460D01*
X-7618818Y-12019460D02*
X-7637866Y-12028984D01*
X-7637866Y-12028984D02*
X-7656914Y-12028984D01*
X-7656914Y-12028984D02*
X-7675961Y-12019460D01*
X-7675961Y-12019460D02*
X-7685485Y-12009936D01*
X-7685485Y-12009936D02*
X-7695009Y-11990888D01*
X-7695009Y-11990888D02*
X-7704533Y-11952793D01*
X-7704533Y-11952793D02*
X-7704533Y-11905174D01*
X-7704533Y-11905174D02*
X-7695009Y-11867079D01*
X-7695009Y-11867079D02*
X-7685485Y-11848031D01*
X-7685485Y-11848031D02*
X-7675961Y-11838508D01*
X-7675961Y-11838508D02*
X-7656914Y-11828984D01*
X-7514056Y-11848031D02*
X-7504533Y-11838508D01*
X-7504533Y-11838508D02*
X-7485485Y-11828984D01*
X-7485485Y-11828984D02*
X-7437866Y-11828984D01*
X-7437866Y-11828984D02*
X-7418818Y-11838508D01*
X-7418818Y-11838508D02*
X-7409294Y-11848031D01*
X-7409294Y-11848031D02*
X-7399771Y-11867079D01*
X-7399771Y-11867079D02*
X-7399771Y-11886127D01*
X-7399771Y-11886127D02*
X-7409294Y-11914698D01*
X-7409294Y-11914698D02*
X-7523580Y-12028984D01*
X-7523580Y-12028984D02*
X-7399771Y-12028984D01*
X-7275961Y-11828984D02*
X-7256913Y-11828984D01*
X-7256913Y-11828984D02*
X-7237866Y-11838508D01*
X-7237866Y-11838508D02*
X-7228342Y-11848031D01*
X-7228342Y-11848031D02*
X-7218818Y-11867079D01*
X-7218818Y-11867079D02*
X-7209294Y-11905174D01*
X-7209294Y-11905174D02*
X-7209294Y-11952793D01*
X-7209294Y-11952793D02*
X-7218818Y-11990888D01*
X-7218818Y-11990888D02*
X-7228342Y-12009936D01*
X-7228342Y-12009936D02*
X-7237866Y-12019460D01*
X-7237866Y-12019460D02*
X-7256913Y-12028984D01*
X-7256913Y-12028984D02*
X-7275961Y-12028984D01*
X-7275961Y-12028984D02*
X-7295009Y-12019460D01*
X-7295009Y-12019460D02*
X-7304533Y-12009936D01*
X-7304533Y-12009936D02*
X-7314056Y-11990888D01*
X-7314056Y-11990888D02*
X-7323580Y-11952793D01*
X-7323580Y-11952793D02*
X-7323580Y-11905174D01*
X-7323580Y-11905174D02*
X-7314056Y-11867079D01*
X-7314056Y-11867079D02*
X-7304533Y-11848031D01*
X-7304533Y-11848031D02*
X-7295009Y-11838508D01*
X-7295009Y-11838508D02*
X-7275961Y-11828984D01*
X-7123580Y-12028984D02*
X-7123580Y-11895650D01*
X-7123580Y-11914698D02*
X-7114056Y-11905174D01*
X-7114056Y-11905174D02*
X-7095009Y-11895650D01*
X-7095009Y-11895650D02*
X-7066437Y-11895650D01*
X-7066437Y-11895650D02*
X-7047390Y-11905174D01*
X-7047390Y-11905174D02*
X-7037866Y-11924222D01*
X-7037866Y-11924222D02*
X-7037866Y-12028984D01*
X-7037866Y-11924222D02*
X-7028342Y-11905174D01*
X-7028342Y-11905174D02*
X-7009294Y-11895650D01*
X-7009294Y-11895650D02*
X-6980723Y-11895650D01*
X-6980723Y-11895650D02*
X-6961675Y-11905174D01*
X-6961675Y-11905174D02*
X-6952152Y-11924222D01*
X-6952152Y-11924222D02*
X-6952152Y-12028984D01*
X-6856913Y-12028984D02*
X-6856913Y-11895650D01*
X-6856913Y-11914698D02*
X-6847390Y-11905174D01*
X-6847390Y-11905174D02*
X-6828342Y-11895650D01*
X-6828342Y-11895650D02*
X-6799771Y-11895650D01*
X-6799771Y-11895650D02*
X-6780723Y-11905174D01*
X-6780723Y-11905174D02*
X-6771199Y-11924222D01*
X-6771199Y-11924222D02*
X-6771199Y-12028984D01*
X-6771199Y-11924222D02*
X-6761675Y-11905174D01*
X-6761675Y-11905174D02*
X-6742628Y-11895650D01*
X-6742628Y-11895650D02*
X-6714056Y-11895650D01*
X-6714056Y-11895650D02*
X-6695009Y-11905174D01*
X-6695009Y-11905174D02*
X-6685485Y-11924222D01*
X-6685485Y-11924222D02*
X-6685485Y-12028984D01*
X-6295009Y-11819460D02*
X-6466437Y-12076603D01*
X-6037866Y-11828984D02*
X-6018818Y-11828984D01*
X-6018818Y-11828984D02*
X-5999770Y-11838508D01*
X-5999770Y-11838508D02*
X-5990247Y-11848031D01*
X-5990247Y-11848031D02*
X-5980723Y-11867079D01*
X-5980723Y-11867079D02*
X-5971199Y-11905174D01*
X-5971199Y-11905174D02*
X-5971199Y-11952793D01*
X-5971199Y-11952793D02*
X-5980723Y-11990888D01*
X-5980723Y-11990888D02*
X-5990247Y-12009936D01*
X-5990247Y-12009936D02*
X-5999770Y-12019460D01*
X-5999770Y-12019460D02*
X-6018818Y-12028984D01*
X-6018818Y-12028984D02*
X-6037866Y-12028984D01*
X-6037866Y-12028984D02*
X-6056913Y-12019460D01*
X-6056913Y-12019460D02*
X-6066437Y-12009936D01*
X-6066437Y-12009936D02*
X-6075961Y-11990888D01*
X-6075961Y-11990888D02*
X-6085485Y-11952793D01*
X-6085485Y-11952793D02*
X-6085485Y-11905174D01*
X-6085485Y-11905174D02*
X-6075961Y-11867079D01*
X-6075961Y-11867079D02*
X-6066437Y-11848031D01*
X-6066437Y-11848031D02*
X-6056913Y-11838508D01*
X-6056913Y-11838508D02*
X-6037866Y-11828984D01*
X-5885485Y-12009936D02*
X-5875961Y-12019460D01*
X-5875961Y-12019460D02*
X-5885485Y-12028984D01*
X-5885485Y-12028984D02*
X-5895009Y-12019460D01*
X-5895009Y-12019460D02*
X-5885485Y-12009936D01*
X-5885485Y-12009936D02*
X-5885485Y-12028984D01*
X-5752151Y-11828984D02*
X-5733104Y-11828984D01*
X-5733104Y-11828984D02*
X-5714056Y-11838508D01*
X-5714056Y-11838508D02*
X-5704532Y-11848031D01*
X-5704532Y-11848031D02*
X-5695009Y-11867079D01*
X-5695009Y-11867079D02*
X-5685485Y-11905174D01*
X-5685485Y-11905174D02*
X-5685485Y-11952793D01*
X-5685485Y-11952793D02*
X-5695009Y-11990888D01*
X-5695009Y-11990888D02*
X-5704532Y-12009936D01*
X-5704532Y-12009936D02*
X-5714056Y-12019460D01*
X-5714056Y-12019460D02*
X-5733104Y-12028984D01*
X-5733104Y-12028984D02*
X-5752151Y-12028984D01*
X-5752151Y-12028984D02*
X-5771199Y-12019460D01*
X-5771199Y-12019460D02*
X-5780723Y-12009936D01*
X-5780723Y-12009936D02*
X-5790247Y-11990888D01*
X-5790247Y-11990888D02*
X-5799770Y-11952793D01*
X-5799770Y-11952793D02*
X-5799770Y-11905174D01*
X-5799770Y-11905174D02*
X-5790247Y-11867079D01*
X-5790247Y-11867079D02*
X-5780723Y-11848031D01*
X-5780723Y-11848031D02*
X-5771199Y-11838508D01*
X-5771199Y-11838508D02*
X-5752151Y-11828984D01*
X-5514056Y-11895650D02*
X-5514056Y-12028984D01*
X-5561675Y-11819460D02*
X-5609294Y-11962317D01*
X-5609294Y-11962317D02*
X-5485485Y-11962317D01*
X-5371199Y-11828984D02*
X-5352151Y-11828984D01*
X-5352151Y-11828984D02*
X-5333104Y-11838508D01*
X-5333104Y-11838508D02*
X-5323580Y-11848031D01*
X-5323580Y-11848031D02*
X-5314056Y-11867079D01*
X-5314056Y-11867079D02*
X-5304532Y-11905174D01*
X-5304532Y-11905174D02*
X-5304532Y-11952793D01*
X-5304532Y-11952793D02*
X-5314056Y-11990888D01*
X-5314056Y-11990888D02*
X-5323580Y-12009936D01*
X-5323580Y-12009936D02*
X-5333104Y-12019460D01*
X-5333104Y-12019460D02*
X-5352151Y-12028984D01*
X-5352151Y-12028984D02*
X-5371199Y-12028984D01*
X-5371199Y-12028984D02*
X-5390247Y-12019460D01*
X-5390247Y-12019460D02*
X-5399771Y-12009936D01*
X-5399771Y-12009936D02*
X-5409294Y-11990888D01*
X-5409294Y-11990888D02*
X-5418818Y-11952793D01*
X-5418818Y-11952793D02*
X-5418818Y-11905174D01*
X-5418818Y-11905174D02*
X-5409294Y-11867079D01*
X-5409294Y-11867079D02*
X-5399771Y-11848031D01*
X-5399771Y-11848031D02*
X-5390247Y-11838508D01*
X-5390247Y-11838508D02*
X-5371199Y-11828984D01*
X-5228342Y-11848031D02*
X-5218818Y-11838508D01*
X-5218818Y-11838508D02*
X-5199771Y-11828984D01*
X-5199771Y-11828984D02*
X-5152151Y-11828984D01*
X-5152151Y-11828984D02*
X-5133104Y-11838508D01*
X-5133104Y-11838508D02*
X-5123580Y-11848031D01*
X-5123580Y-11848031D02*
X-5114056Y-11867079D01*
X-5114056Y-11867079D02*
X-5114056Y-11886127D01*
X-5114056Y-11886127D02*
X-5123580Y-11914698D01*
X-5123580Y-11914698D02*
X-5237866Y-12028984D01*
X-5237866Y-12028984D02*
X-5114056Y-12028984D01*
X-5037866Y-11828984D02*
X-5037866Y-11867079D01*
X-4961675Y-11828984D02*
X-4961675Y-11867079D01*
X-4666437Y-12105174D02*
X-4675961Y-12095650D01*
X-4675961Y-12095650D02*
X-4695009Y-12067079D01*
X-4695009Y-12067079D02*
X-4704532Y-12048031D01*
X-4704532Y-12048031D02*
X-4714056Y-12019460D01*
X-4714056Y-12019460D02*
X-4723580Y-11971841D01*
X-4723580Y-11971841D02*
X-4723580Y-11933746D01*
X-4723580Y-11933746D02*
X-4714056Y-11886127D01*
X-4714056Y-11886127D02*
X-4704532Y-11857555D01*
X-4704532Y-11857555D02*
X-4695009Y-11838508D01*
X-4695009Y-11838508D02*
X-4675961Y-11809936D01*
X-4675961Y-11809936D02*
X-4666437Y-11800412D01*
X-4504532Y-11828984D02*
X-4542628Y-11828984D01*
X-4542628Y-11828984D02*
X-4561675Y-11838508D01*
X-4561675Y-11838508D02*
X-4571199Y-11848031D01*
X-4571199Y-11848031D02*
X-4590247Y-11876603D01*
X-4590247Y-11876603D02*
X-4599770Y-11914698D01*
X-4599770Y-11914698D02*
X-4599770Y-11990888D01*
X-4599770Y-11990888D02*
X-4590247Y-12009936D01*
X-4590247Y-12009936D02*
X-4580723Y-12019460D01*
X-4580723Y-12019460D02*
X-4561675Y-12028984D01*
X-4561675Y-12028984D02*
X-4523580Y-12028984D01*
X-4523580Y-12028984D02*
X-4504532Y-12019460D01*
X-4504532Y-12019460D02*
X-4495009Y-12009936D01*
X-4495009Y-12009936D02*
X-4485485Y-11990888D01*
X-4485485Y-11990888D02*
X-4485485Y-11943269D01*
X-4485485Y-11943269D02*
X-4495009Y-11924222D01*
X-4495009Y-11924222D02*
X-4504532Y-11914698D01*
X-4504532Y-11914698D02*
X-4523580Y-11905174D01*
X-4523580Y-11905174D02*
X-4561675Y-11905174D01*
X-4561675Y-11905174D02*
X-4580723Y-11914698D01*
X-4580723Y-11914698D02*
X-4590247Y-11924222D01*
X-4590247Y-11924222D02*
X-4599770Y-11943269D01*
X-4247389Y-12028984D02*
X-4247389Y-11828984D01*
X-4161675Y-12028984D02*
X-4161675Y-11924222D01*
X-4161675Y-11924222D02*
X-4171199Y-11905174D01*
X-4171199Y-11905174D02*
X-4190246Y-11895650D01*
X-4190246Y-11895650D02*
X-4218818Y-11895650D01*
X-4218818Y-11895650D02*
X-4237866Y-11905174D01*
X-4237866Y-11905174D02*
X-4247389Y-11914698D01*
X-4037866Y-12028984D02*
X-4056913Y-12019460D01*
X-4056913Y-12019460D02*
X-4066437Y-12009936D01*
X-4066437Y-12009936D02*
X-4075961Y-11990888D01*
X-4075961Y-11990888D02*
X-4075961Y-11933746D01*
X-4075961Y-11933746D02*
X-4066437Y-11914698D01*
X-4066437Y-11914698D02*
X-4056913Y-11905174D01*
X-4056913Y-11905174D02*
X-4037866Y-11895650D01*
X-4037866Y-11895650D02*
X-4009294Y-11895650D01*
X-4009294Y-11895650D02*
X-3990246Y-11905174D01*
X-3990246Y-11905174D02*
X-3980723Y-11914698D01*
X-3980723Y-11914698D02*
X-3971199Y-11933746D01*
X-3971199Y-11933746D02*
X-3971199Y-11990888D01*
X-3971199Y-11990888D02*
X-3980723Y-12009936D01*
X-3980723Y-12009936D02*
X-3990246Y-12019460D01*
X-3990246Y-12019460D02*
X-4009294Y-12028984D01*
X-4009294Y-12028984D02*
X-4037866Y-12028984D01*
X-3856913Y-12028984D02*
X-3875961Y-12019460D01*
X-3875961Y-12019460D02*
X-3885485Y-12000412D01*
X-3885485Y-12000412D02*
X-3885485Y-11828984D01*
X-3704532Y-12019460D02*
X-3723580Y-12028984D01*
X-3723580Y-12028984D02*
X-3761675Y-12028984D01*
X-3761675Y-12028984D02*
X-3780723Y-12019460D01*
X-3780723Y-12019460D02*
X-3790246Y-12000412D01*
X-3790246Y-12000412D02*
X-3790246Y-11924222D01*
X-3790246Y-11924222D02*
X-3780723Y-11905174D01*
X-3780723Y-11905174D02*
X-3761675Y-11895650D01*
X-3761675Y-11895650D02*
X-3723580Y-11895650D01*
X-3723580Y-11895650D02*
X-3704532Y-11905174D01*
X-3704532Y-11905174D02*
X-3695008Y-11924222D01*
X-3695008Y-11924222D02*
X-3695008Y-11943269D01*
X-3695008Y-11943269D02*
X-3790246Y-11962317D01*
X-3618818Y-12019460D02*
X-3599770Y-12028984D01*
X-3599770Y-12028984D02*
X-3561675Y-12028984D01*
X-3561675Y-12028984D02*
X-3542627Y-12019460D01*
X-3542627Y-12019460D02*
X-3533104Y-12000412D01*
X-3533104Y-12000412D02*
X-3533104Y-11990888D01*
X-3533104Y-11990888D02*
X-3542627Y-11971841D01*
X-3542627Y-11971841D02*
X-3561675Y-11962317D01*
X-3561675Y-11962317D02*
X-3590246Y-11962317D01*
X-3590246Y-11962317D02*
X-3609294Y-11952793D01*
X-3609294Y-11952793D02*
X-3618818Y-11933746D01*
X-3618818Y-11933746D02*
X-3618818Y-11924222D01*
X-3618818Y-11924222D02*
X-3609294Y-11905174D01*
X-3609294Y-11905174D02*
X-3590246Y-11895650D01*
X-3590246Y-11895650D02*
X-3561675Y-11895650D01*
X-3561675Y-11895650D02*
X-3542627Y-11905174D01*
X-3466437Y-12105174D02*
X-3456913Y-12095650D01*
X-3456913Y-12095650D02*
X-3437865Y-12067079D01*
X-3437865Y-12067079D02*
X-3428342Y-12048031D01*
X-3428342Y-12048031D02*
X-3418818Y-12019460D01*
X-3418818Y-12019460D02*
X-3409294Y-11971841D01*
X-3409294Y-11971841D02*
X-3409294Y-11933746D01*
X-3409294Y-11933746D02*
X-3418818Y-11886127D01*
X-3418818Y-11886127D02*
X-3428342Y-11857555D01*
X-3428342Y-11857555D02*
X-3437865Y-11838508D01*
X-3437865Y-11838508D02*
X-3456913Y-11809936D01*
X-3456913Y-11809936D02*
X-3466437Y-11800412D01*
D14*
X-8351482Y-12146509D02*
X-8241500Y-12256491D01*
X-8241500Y-12146509D02*
X-8351482Y-12256491D01*
X-8241500Y-12201500D02*
G75*
G02*
X-8351482Y-12201500I-54991J0D01*
G01*
X-8351482Y-12201500D02*
G75*
G02*
X-8241500Y-12201500I54991J0D01*
G01*
D11*
X-7875961Y-12292984D02*
X-7990247Y-12292984D01*
X-7933104Y-12292984D02*
X-7933104Y-12092984D01*
X-7933104Y-12092984D02*
X-7952152Y-12121555D01*
X-7952152Y-12121555D02*
X-7971199Y-12140603D01*
X-7971199Y-12140603D02*
X-7990247Y-12150127D01*
X-7790247Y-12273936D02*
X-7780723Y-12283460D01*
X-7780723Y-12283460D02*
X-7790247Y-12292984D01*
X-7790247Y-12292984D02*
X-7799771Y-12283460D01*
X-7799771Y-12283460D02*
X-7790247Y-12273936D01*
X-7790247Y-12273936D02*
X-7790247Y-12292984D01*
X-7590247Y-12292984D02*
X-7704533Y-12292984D01*
X-7647390Y-12292984D02*
X-7647390Y-12092984D01*
X-7647390Y-12092984D02*
X-7666437Y-12121555D01*
X-7666437Y-12121555D02*
X-7685485Y-12140603D01*
X-7685485Y-12140603D02*
X-7704533Y-12150127D01*
X-7466437Y-12092984D02*
X-7447390Y-12092984D01*
X-7447390Y-12092984D02*
X-7428342Y-12102508D01*
X-7428342Y-12102508D02*
X-7418818Y-12112031D01*
X-7418818Y-12112031D02*
X-7409294Y-12131079D01*
X-7409294Y-12131079D02*
X-7399771Y-12169174D01*
X-7399771Y-12169174D02*
X-7399771Y-12216793D01*
X-7399771Y-12216793D02*
X-7409294Y-12254888D01*
X-7409294Y-12254888D02*
X-7418818Y-12273936D01*
X-7418818Y-12273936D02*
X-7428342Y-12283460D01*
X-7428342Y-12283460D02*
X-7447390Y-12292984D01*
X-7447390Y-12292984D02*
X-7466437Y-12292984D01*
X-7466437Y-12292984D02*
X-7485485Y-12283460D01*
X-7485485Y-12283460D02*
X-7495009Y-12273936D01*
X-7495009Y-12273936D02*
X-7504533Y-12254888D01*
X-7504533Y-12254888D02*
X-7514056Y-12216793D01*
X-7514056Y-12216793D02*
X-7514056Y-12169174D01*
X-7514056Y-12169174D02*
X-7504533Y-12131079D01*
X-7504533Y-12131079D02*
X-7495009Y-12112031D01*
X-7495009Y-12112031D02*
X-7485485Y-12102508D01*
X-7485485Y-12102508D02*
X-7466437Y-12092984D01*
X-7275961Y-12092984D02*
X-7256913Y-12092984D01*
X-7256913Y-12092984D02*
X-7237866Y-12102508D01*
X-7237866Y-12102508D02*
X-7228342Y-12112031D01*
X-7228342Y-12112031D02*
X-7218818Y-12131079D01*
X-7218818Y-12131079D02*
X-7209294Y-12169174D01*
X-7209294Y-12169174D02*
X-7209294Y-12216793D01*
X-7209294Y-12216793D02*
X-7218818Y-12254888D01*
X-7218818Y-12254888D02*
X-7228342Y-12273936D01*
X-7228342Y-12273936D02*
X-7237866Y-12283460D01*
X-7237866Y-12283460D02*
X-7256913Y-12292984D01*
X-7256913Y-12292984D02*
X-7275961Y-12292984D01*
X-7275961Y-12292984D02*
X-7295009Y-12283460D01*
X-7295009Y-12283460D02*
X-7304533Y-12273936D01*
X-7304533Y-12273936D02*
X-7314056Y-12254888D01*
X-7314056Y-12254888D02*
X-7323580Y-12216793D01*
X-7323580Y-12216793D02*
X-7323580Y-12169174D01*
X-7323580Y-12169174D02*
X-7314056Y-12131079D01*
X-7314056Y-12131079D02*
X-7304533Y-12112031D01*
X-7304533Y-12112031D02*
X-7295009Y-12102508D01*
X-7295009Y-12102508D02*
X-7275961Y-12092984D01*
X-7123580Y-12292984D02*
X-7123580Y-12159650D01*
X-7123580Y-12178698D02*
X-7114056Y-12169174D01*
X-7114056Y-12169174D02*
X-7095009Y-12159650D01*
X-7095009Y-12159650D02*
X-7066437Y-12159650D01*
X-7066437Y-12159650D02*
X-7047390Y-12169174D01*
X-7047390Y-12169174D02*
X-7037866Y-12188222D01*
X-7037866Y-12188222D02*
X-7037866Y-12292984D01*
X-7037866Y-12188222D02*
X-7028342Y-12169174D01*
X-7028342Y-12169174D02*
X-7009294Y-12159650D01*
X-7009294Y-12159650D02*
X-6980723Y-12159650D01*
X-6980723Y-12159650D02*
X-6961675Y-12169174D01*
X-6961675Y-12169174D02*
X-6952152Y-12188222D01*
X-6952152Y-12188222D02*
X-6952152Y-12292984D01*
X-6856913Y-12292984D02*
X-6856913Y-12159650D01*
X-6856913Y-12178698D02*
X-6847390Y-12169174D01*
X-6847390Y-12169174D02*
X-6828342Y-12159650D01*
X-6828342Y-12159650D02*
X-6799771Y-12159650D01*
X-6799771Y-12159650D02*
X-6780723Y-12169174D01*
X-6780723Y-12169174D02*
X-6771199Y-12188222D01*
X-6771199Y-12188222D02*
X-6771199Y-12292984D01*
X-6771199Y-12188222D02*
X-6761675Y-12169174D01*
X-6761675Y-12169174D02*
X-6742628Y-12159650D01*
X-6742628Y-12159650D02*
X-6714056Y-12159650D01*
X-6714056Y-12159650D02*
X-6695009Y-12169174D01*
X-6695009Y-12169174D02*
X-6685485Y-12188222D01*
X-6685485Y-12188222D02*
X-6685485Y-12292984D01*
X-6295009Y-12083460D02*
X-6466437Y-12340603D01*
X-6037866Y-12092984D02*
X-6018818Y-12092984D01*
X-6018818Y-12092984D02*
X-5999770Y-12102508D01*
X-5999770Y-12102508D02*
X-5990247Y-12112031D01*
X-5990247Y-12112031D02*
X-5980723Y-12131079D01*
X-5980723Y-12131079D02*
X-5971199Y-12169174D01*
X-5971199Y-12169174D02*
X-5971199Y-12216793D01*
X-5971199Y-12216793D02*
X-5980723Y-12254888D01*
X-5980723Y-12254888D02*
X-5990247Y-12273936D01*
X-5990247Y-12273936D02*
X-5999770Y-12283460D01*
X-5999770Y-12283460D02*
X-6018818Y-12292984D01*
X-6018818Y-12292984D02*
X-6037866Y-12292984D01*
X-6037866Y-12292984D02*
X-6056913Y-12283460D01*
X-6056913Y-12283460D02*
X-6066437Y-12273936D01*
X-6066437Y-12273936D02*
X-6075961Y-12254888D01*
X-6075961Y-12254888D02*
X-6085485Y-12216793D01*
X-6085485Y-12216793D02*
X-6085485Y-12169174D01*
X-6085485Y-12169174D02*
X-6075961Y-12131079D01*
X-6075961Y-12131079D02*
X-6066437Y-12112031D01*
X-6066437Y-12112031D02*
X-6056913Y-12102508D01*
X-6056913Y-12102508D02*
X-6037866Y-12092984D01*
X-5885485Y-12273936D02*
X-5875961Y-12283460D01*
X-5875961Y-12283460D02*
X-5885485Y-12292984D01*
X-5885485Y-12292984D02*
X-5895009Y-12283460D01*
X-5895009Y-12283460D02*
X-5885485Y-12273936D01*
X-5885485Y-12273936D02*
X-5885485Y-12292984D01*
X-5752151Y-12092984D02*
X-5733104Y-12092984D01*
X-5733104Y-12092984D02*
X-5714056Y-12102508D01*
X-5714056Y-12102508D02*
X-5704532Y-12112031D01*
X-5704532Y-12112031D02*
X-5695009Y-12131079D01*
X-5695009Y-12131079D02*
X-5685485Y-12169174D01*
X-5685485Y-12169174D02*
X-5685485Y-12216793D01*
X-5685485Y-12216793D02*
X-5695009Y-12254888D01*
X-5695009Y-12254888D02*
X-5704532Y-12273936D01*
X-5704532Y-12273936D02*
X-5714056Y-12283460D01*
X-5714056Y-12283460D02*
X-5733104Y-12292984D01*
X-5733104Y-12292984D02*
X-5752151Y-12292984D01*
X-5752151Y-12292984D02*
X-5771199Y-12283460D01*
X-5771199Y-12283460D02*
X-5780723Y-12273936D01*
X-5780723Y-12273936D02*
X-5790247Y-12254888D01*
X-5790247Y-12254888D02*
X-5799770Y-12216793D01*
X-5799770Y-12216793D02*
X-5799770Y-12169174D01*
X-5799770Y-12169174D02*
X-5790247Y-12131079D01*
X-5790247Y-12131079D02*
X-5780723Y-12112031D01*
X-5780723Y-12112031D02*
X-5771199Y-12102508D01*
X-5771199Y-12102508D02*
X-5752151Y-12092984D01*
X-5514056Y-12159650D02*
X-5514056Y-12292984D01*
X-5561675Y-12083460D02*
X-5609294Y-12226317D01*
X-5609294Y-12226317D02*
X-5485485Y-12226317D01*
X-5428342Y-12092984D02*
X-5304532Y-12092984D01*
X-5304532Y-12092984D02*
X-5371199Y-12169174D01*
X-5371199Y-12169174D02*
X-5342628Y-12169174D01*
X-5342628Y-12169174D02*
X-5323580Y-12178698D01*
X-5323580Y-12178698D02*
X-5314056Y-12188222D01*
X-5314056Y-12188222D02*
X-5304532Y-12207269D01*
X-5304532Y-12207269D02*
X-5304532Y-12254888D01*
X-5304532Y-12254888D02*
X-5314056Y-12273936D01*
X-5314056Y-12273936D02*
X-5323580Y-12283460D01*
X-5323580Y-12283460D02*
X-5342628Y-12292984D01*
X-5342628Y-12292984D02*
X-5399771Y-12292984D01*
X-5399771Y-12292984D02*
X-5418818Y-12283460D01*
X-5418818Y-12283460D02*
X-5428342Y-12273936D01*
X-5237866Y-12092984D02*
X-5114056Y-12092984D01*
X-5114056Y-12092984D02*
X-5180723Y-12169174D01*
X-5180723Y-12169174D02*
X-5152151Y-12169174D01*
X-5152151Y-12169174D02*
X-5133104Y-12178698D01*
X-5133104Y-12178698D02*
X-5123580Y-12188222D01*
X-5123580Y-12188222D02*
X-5114056Y-12207269D01*
X-5114056Y-12207269D02*
X-5114056Y-12254888D01*
X-5114056Y-12254888D02*
X-5123580Y-12273936D01*
X-5123580Y-12273936D02*
X-5133104Y-12283460D01*
X-5133104Y-12283460D02*
X-5152151Y-12292984D01*
X-5152151Y-12292984D02*
X-5209294Y-12292984D01*
X-5209294Y-12292984D02*
X-5228342Y-12283460D01*
X-5228342Y-12283460D02*
X-5237866Y-12273936D01*
X-5037866Y-12092984D02*
X-5037866Y-12131079D01*
X-4961675Y-12092984D02*
X-4961675Y-12131079D01*
X-4666437Y-12369174D02*
X-4675961Y-12359650D01*
X-4675961Y-12359650D02*
X-4695009Y-12331079D01*
X-4695009Y-12331079D02*
X-4704532Y-12312031D01*
X-4704532Y-12312031D02*
X-4714056Y-12283460D01*
X-4714056Y-12283460D02*
X-4723580Y-12235841D01*
X-4723580Y-12235841D02*
X-4723580Y-12197746D01*
X-4723580Y-12197746D02*
X-4714056Y-12150127D01*
X-4714056Y-12150127D02*
X-4704532Y-12121555D01*
X-4704532Y-12121555D02*
X-4695009Y-12102508D01*
X-4695009Y-12102508D02*
X-4675961Y-12073936D01*
X-4675961Y-12073936D02*
X-4666437Y-12064412D01*
X-4561675Y-12178698D02*
X-4580723Y-12169174D01*
X-4580723Y-12169174D02*
X-4590247Y-12159650D01*
X-4590247Y-12159650D02*
X-4599770Y-12140603D01*
X-4599770Y-12140603D02*
X-4599770Y-12131079D01*
X-4599770Y-12131079D02*
X-4590247Y-12112031D01*
X-4590247Y-12112031D02*
X-4580723Y-12102508D01*
X-4580723Y-12102508D02*
X-4561675Y-12092984D01*
X-4561675Y-12092984D02*
X-4523580Y-12092984D01*
X-4523580Y-12092984D02*
X-4504532Y-12102508D01*
X-4504532Y-12102508D02*
X-4495009Y-12112031D01*
X-4495009Y-12112031D02*
X-4485485Y-12131079D01*
X-4485485Y-12131079D02*
X-4485485Y-12140603D01*
X-4485485Y-12140603D02*
X-4495009Y-12159650D01*
X-4495009Y-12159650D02*
X-4504532Y-12169174D01*
X-4504532Y-12169174D02*
X-4523580Y-12178698D01*
X-4523580Y-12178698D02*
X-4561675Y-12178698D01*
X-4561675Y-12178698D02*
X-4580723Y-12188222D01*
X-4580723Y-12188222D02*
X-4590247Y-12197746D01*
X-4590247Y-12197746D02*
X-4599770Y-12216793D01*
X-4599770Y-12216793D02*
X-4599770Y-12254888D01*
X-4599770Y-12254888D02*
X-4590247Y-12273936D01*
X-4590247Y-12273936D02*
X-4580723Y-12283460D01*
X-4580723Y-12283460D02*
X-4561675Y-12292984D01*
X-4561675Y-12292984D02*
X-4523580Y-12292984D01*
X-4523580Y-12292984D02*
X-4504532Y-12283460D01*
X-4504532Y-12283460D02*
X-4495009Y-12273936D01*
X-4495009Y-12273936D02*
X-4485485Y-12254888D01*
X-4485485Y-12254888D02*
X-4485485Y-12216793D01*
X-4485485Y-12216793D02*
X-4495009Y-12197746D01*
X-4495009Y-12197746D02*
X-4504532Y-12188222D01*
X-4504532Y-12188222D02*
X-4523580Y-12178698D01*
X-4247389Y-12292984D02*
X-4247389Y-12092984D01*
X-4161675Y-12292984D02*
X-4161675Y-12188222D01*
X-4161675Y-12188222D02*
X-4171199Y-12169174D01*
X-4171199Y-12169174D02*
X-4190246Y-12159650D01*
X-4190246Y-12159650D02*
X-4218818Y-12159650D01*
X-4218818Y-12159650D02*
X-4237866Y-12169174D01*
X-4237866Y-12169174D02*
X-4247389Y-12178698D01*
X-4037866Y-12292984D02*
X-4056913Y-12283460D01*
X-4056913Y-12283460D02*
X-4066437Y-12273936D01*
X-4066437Y-12273936D02*
X-4075961Y-12254888D01*
X-4075961Y-12254888D02*
X-4075961Y-12197746D01*
X-4075961Y-12197746D02*
X-4066437Y-12178698D01*
X-4066437Y-12178698D02*
X-4056913Y-12169174D01*
X-4056913Y-12169174D02*
X-4037866Y-12159650D01*
X-4037866Y-12159650D02*
X-4009294Y-12159650D01*
X-4009294Y-12159650D02*
X-3990246Y-12169174D01*
X-3990246Y-12169174D02*
X-3980723Y-12178698D01*
X-3980723Y-12178698D02*
X-3971199Y-12197746D01*
X-3971199Y-12197746D02*
X-3971199Y-12254888D01*
X-3971199Y-12254888D02*
X-3980723Y-12273936D01*
X-3980723Y-12273936D02*
X-3990246Y-12283460D01*
X-3990246Y-12283460D02*
X-4009294Y-12292984D01*
X-4009294Y-12292984D02*
X-4037866Y-12292984D01*
X-3856913Y-12292984D02*
X-3875961Y-12283460D01*
X-3875961Y-12283460D02*
X-3885485Y-12264412D01*
X-3885485Y-12264412D02*
X-3885485Y-12092984D01*
X-3704532Y-12283460D02*
X-3723580Y-12292984D01*
X-3723580Y-12292984D02*
X-3761675Y-12292984D01*
X-3761675Y-12292984D02*
X-3780723Y-12283460D01*
X-3780723Y-12283460D02*
X-3790246Y-12264412D01*
X-3790246Y-12264412D02*
X-3790246Y-12188222D01*
X-3790246Y-12188222D02*
X-3780723Y-12169174D01*
X-3780723Y-12169174D02*
X-3761675Y-12159650D01*
X-3761675Y-12159650D02*
X-3723580Y-12159650D01*
X-3723580Y-12159650D02*
X-3704532Y-12169174D01*
X-3704532Y-12169174D02*
X-3695008Y-12188222D01*
X-3695008Y-12188222D02*
X-3695008Y-12207269D01*
X-3695008Y-12207269D02*
X-3790246Y-12226317D01*
X-3618818Y-12283460D02*
X-3599770Y-12292984D01*
X-3599770Y-12292984D02*
X-3561675Y-12292984D01*
X-3561675Y-12292984D02*
X-3542627Y-12283460D01*
X-3542627Y-12283460D02*
X-3533104Y-12264412D01*
X-3533104Y-12264412D02*
X-3533104Y-12254888D01*
X-3533104Y-12254888D02*
X-3542627Y-12235841D01*
X-3542627Y-12235841D02*
X-3561675Y-12226317D01*
X-3561675Y-12226317D02*
X-3590246Y-12226317D01*
X-3590246Y-12226317D02*
X-3609294Y-12216793D01*
X-3609294Y-12216793D02*
X-3618818Y-12197746D01*
X-3618818Y-12197746D02*
X-3618818Y-12188222D01*
X-3618818Y-12188222D02*
X-3609294Y-12169174D01*
X-3609294Y-12169174D02*
X-3590246Y-12159650D01*
X-3590246Y-12159650D02*
X-3561675Y-12159650D01*
X-3561675Y-12159650D02*
X-3542627Y-12169174D01*
X-3466437Y-12369174D02*
X-3456913Y-12359650D01*
X-3456913Y-12359650D02*
X-3437865Y-12331079D01*
X-3437865Y-12331079D02*
X-3428342Y-12312031D01*
X-3428342Y-12312031D02*
X-3418818Y-12283460D01*
X-3418818Y-12283460D02*
X-3409294Y-12235841D01*
X-3409294Y-12235841D02*
X-3409294Y-12197746D01*
X-3409294Y-12197746D02*
X-3418818Y-12150127D01*
X-3418818Y-12150127D02*
X-3428342Y-12121555D01*
X-3428342Y-12121555D02*
X-3437865Y-12102508D01*
X-3437865Y-12102508D02*
X-3456913Y-12073936D01*
X-3456913Y-12073936D02*
X-3466437Y-12064412D01*
D15*
X-8351502Y-12410499D02*
X-8241500Y-12520501D01*
X-8241500Y-12410499D02*
X-8351502Y-12520501D01*
X-8296501Y-12410499D02*
X-8296501Y-12520501D01*
X-8351502Y-12465500D02*
X-8241500Y-12465500D01*
D11*
X-7875961Y-12556984D02*
X-7990247Y-12556984D01*
X-7933104Y-12556984D02*
X-7933104Y-12356984D01*
X-7933104Y-12356984D02*
X-7952152Y-12385555D01*
X-7952152Y-12385555D02*
X-7971199Y-12404603D01*
X-7971199Y-12404603D02*
X-7990247Y-12414127D01*
X-7790247Y-12537936D02*
X-7780723Y-12547460D01*
X-7780723Y-12547460D02*
X-7790247Y-12556984D01*
X-7790247Y-12556984D02*
X-7799771Y-12547460D01*
X-7799771Y-12547460D02*
X-7790247Y-12537936D01*
X-7790247Y-12537936D02*
X-7790247Y-12556984D01*
X-7590247Y-12556984D02*
X-7704533Y-12556984D01*
X-7647390Y-12556984D02*
X-7647390Y-12356984D01*
X-7647390Y-12356984D02*
X-7666437Y-12385555D01*
X-7666437Y-12385555D02*
X-7685485Y-12404603D01*
X-7685485Y-12404603D02*
X-7704533Y-12414127D01*
X-7466437Y-12356984D02*
X-7447390Y-12356984D01*
X-7447390Y-12356984D02*
X-7428342Y-12366508D01*
X-7428342Y-12366508D02*
X-7418818Y-12376031D01*
X-7418818Y-12376031D02*
X-7409294Y-12395079D01*
X-7409294Y-12395079D02*
X-7399771Y-12433174D01*
X-7399771Y-12433174D02*
X-7399771Y-12480793D01*
X-7399771Y-12480793D02*
X-7409294Y-12518888D01*
X-7409294Y-12518888D02*
X-7418818Y-12537936D01*
X-7418818Y-12537936D02*
X-7428342Y-12547460D01*
X-7428342Y-12547460D02*
X-7447390Y-12556984D01*
X-7447390Y-12556984D02*
X-7466437Y-12556984D01*
X-7466437Y-12556984D02*
X-7485485Y-12547460D01*
X-7485485Y-12547460D02*
X-7495009Y-12537936D01*
X-7495009Y-12537936D02*
X-7504533Y-12518888D01*
X-7504533Y-12518888D02*
X-7514056Y-12480793D01*
X-7514056Y-12480793D02*
X-7514056Y-12433174D01*
X-7514056Y-12433174D02*
X-7504533Y-12395079D01*
X-7504533Y-12395079D02*
X-7495009Y-12376031D01*
X-7495009Y-12376031D02*
X-7485485Y-12366508D01*
X-7485485Y-12366508D02*
X-7466437Y-12356984D01*
X-7275961Y-12356984D02*
X-7256913Y-12356984D01*
X-7256913Y-12356984D02*
X-7237866Y-12366508D01*
X-7237866Y-12366508D02*
X-7228342Y-12376031D01*
X-7228342Y-12376031D02*
X-7218818Y-12395079D01*
X-7218818Y-12395079D02*
X-7209294Y-12433174D01*
X-7209294Y-12433174D02*
X-7209294Y-12480793D01*
X-7209294Y-12480793D02*
X-7218818Y-12518888D01*
X-7218818Y-12518888D02*
X-7228342Y-12537936D01*
X-7228342Y-12537936D02*
X-7237866Y-12547460D01*
X-7237866Y-12547460D02*
X-7256913Y-12556984D01*
X-7256913Y-12556984D02*
X-7275961Y-12556984D01*
X-7275961Y-12556984D02*
X-7295009Y-12547460D01*
X-7295009Y-12547460D02*
X-7304533Y-12537936D01*
X-7304533Y-12537936D02*
X-7314056Y-12518888D01*
X-7314056Y-12518888D02*
X-7323580Y-12480793D01*
X-7323580Y-12480793D02*
X-7323580Y-12433174D01*
X-7323580Y-12433174D02*
X-7314056Y-12395079D01*
X-7314056Y-12395079D02*
X-7304533Y-12376031D01*
X-7304533Y-12376031D02*
X-7295009Y-12366508D01*
X-7295009Y-12366508D02*
X-7275961Y-12356984D01*
X-7123580Y-12556984D02*
X-7123580Y-12423650D01*
X-7123580Y-12442698D02*
X-7114056Y-12433174D01*
X-7114056Y-12433174D02*
X-7095009Y-12423650D01*
X-7095009Y-12423650D02*
X-7066437Y-12423650D01*
X-7066437Y-12423650D02*
X-7047390Y-12433174D01*
X-7047390Y-12433174D02*
X-7037866Y-12452222D01*
X-7037866Y-12452222D02*
X-7037866Y-12556984D01*
X-7037866Y-12452222D02*
X-7028342Y-12433174D01*
X-7028342Y-12433174D02*
X-7009294Y-12423650D01*
X-7009294Y-12423650D02*
X-6980723Y-12423650D01*
X-6980723Y-12423650D02*
X-6961675Y-12433174D01*
X-6961675Y-12433174D02*
X-6952152Y-12452222D01*
X-6952152Y-12452222D02*
X-6952152Y-12556984D01*
X-6856913Y-12556984D02*
X-6856913Y-12423650D01*
X-6856913Y-12442698D02*
X-6847390Y-12433174D01*
X-6847390Y-12433174D02*
X-6828342Y-12423650D01*
X-6828342Y-12423650D02*
X-6799771Y-12423650D01*
X-6799771Y-12423650D02*
X-6780723Y-12433174D01*
X-6780723Y-12433174D02*
X-6771199Y-12452222D01*
X-6771199Y-12452222D02*
X-6771199Y-12556984D01*
X-6771199Y-12452222D02*
X-6761675Y-12433174D01*
X-6761675Y-12433174D02*
X-6742628Y-12423650D01*
X-6742628Y-12423650D02*
X-6714056Y-12423650D01*
X-6714056Y-12423650D02*
X-6695009Y-12433174D01*
X-6695009Y-12433174D02*
X-6685485Y-12452222D01*
X-6685485Y-12452222D02*
X-6685485Y-12556984D01*
X-6295009Y-12347460D02*
X-6466437Y-12604603D01*
X-6037866Y-12356984D02*
X-6018818Y-12356984D01*
X-6018818Y-12356984D02*
X-5999770Y-12366508D01*
X-5999770Y-12366508D02*
X-5990247Y-12376031D01*
X-5990247Y-12376031D02*
X-5980723Y-12395079D01*
X-5980723Y-12395079D02*
X-5971199Y-12433174D01*
X-5971199Y-12433174D02*
X-5971199Y-12480793D01*
X-5971199Y-12480793D02*
X-5980723Y-12518888D01*
X-5980723Y-12518888D02*
X-5990247Y-12537936D01*
X-5990247Y-12537936D02*
X-5999770Y-12547460D01*
X-5999770Y-12547460D02*
X-6018818Y-12556984D01*
X-6018818Y-12556984D02*
X-6037866Y-12556984D01*
X-6037866Y-12556984D02*
X-6056913Y-12547460D01*
X-6056913Y-12547460D02*
X-6066437Y-12537936D01*
X-6066437Y-12537936D02*
X-6075961Y-12518888D01*
X-6075961Y-12518888D02*
X-6085485Y-12480793D01*
X-6085485Y-12480793D02*
X-6085485Y-12433174D01*
X-6085485Y-12433174D02*
X-6075961Y-12395079D01*
X-6075961Y-12395079D02*
X-6066437Y-12376031D01*
X-6066437Y-12376031D02*
X-6056913Y-12366508D01*
X-6056913Y-12366508D02*
X-6037866Y-12356984D01*
X-5885485Y-12537936D02*
X-5875961Y-12547460D01*
X-5875961Y-12547460D02*
X-5885485Y-12556984D01*
X-5885485Y-12556984D02*
X-5895009Y-12547460D01*
X-5895009Y-12547460D02*
X-5885485Y-12537936D01*
X-5885485Y-12537936D02*
X-5885485Y-12556984D01*
X-5752151Y-12356984D02*
X-5733104Y-12356984D01*
X-5733104Y-12356984D02*
X-5714056Y-12366508D01*
X-5714056Y-12366508D02*
X-5704532Y-12376031D01*
X-5704532Y-12376031D02*
X-5695009Y-12395079D01*
X-5695009Y-12395079D02*
X-5685485Y-12433174D01*
X-5685485Y-12433174D02*
X-5685485Y-12480793D01*
X-5685485Y-12480793D02*
X-5695009Y-12518888D01*
X-5695009Y-12518888D02*
X-5704532Y-12537936D01*
X-5704532Y-12537936D02*
X-5714056Y-12547460D01*
X-5714056Y-12547460D02*
X-5733104Y-12556984D01*
X-5733104Y-12556984D02*
X-5752151Y-12556984D01*
X-5752151Y-12556984D02*
X-5771199Y-12547460D01*
X-5771199Y-12547460D02*
X-5780723Y-12537936D01*
X-5780723Y-12537936D02*
X-5790247Y-12518888D01*
X-5790247Y-12518888D02*
X-5799770Y-12480793D01*
X-5799770Y-12480793D02*
X-5799770Y-12433174D01*
X-5799770Y-12433174D02*
X-5790247Y-12395079D01*
X-5790247Y-12395079D02*
X-5780723Y-12376031D01*
X-5780723Y-12376031D02*
X-5771199Y-12366508D01*
X-5771199Y-12366508D02*
X-5752151Y-12356984D01*
X-5514056Y-12423650D02*
X-5514056Y-12556984D01*
X-5561675Y-12347460D02*
X-5609294Y-12490317D01*
X-5609294Y-12490317D02*
X-5485485Y-12490317D01*
X-5428342Y-12356984D02*
X-5304532Y-12356984D01*
X-5304532Y-12356984D02*
X-5371199Y-12433174D01*
X-5371199Y-12433174D02*
X-5342628Y-12433174D01*
X-5342628Y-12433174D02*
X-5323580Y-12442698D01*
X-5323580Y-12442698D02*
X-5314056Y-12452222D01*
X-5314056Y-12452222D02*
X-5304532Y-12471269D01*
X-5304532Y-12471269D02*
X-5304532Y-12518888D01*
X-5304532Y-12518888D02*
X-5314056Y-12537936D01*
X-5314056Y-12537936D02*
X-5323580Y-12547460D01*
X-5323580Y-12547460D02*
X-5342628Y-12556984D01*
X-5342628Y-12556984D02*
X-5399771Y-12556984D01*
X-5399771Y-12556984D02*
X-5418818Y-12547460D01*
X-5418818Y-12547460D02*
X-5428342Y-12537936D01*
X-5237866Y-12356984D02*
X-5114056Y-12356984D01*
X-5114056Y-12356984D02*
X-5180723Y-12433174D01*
X-5180723Y-12433174D02*
X-5152151Y-12433174D01*
X-5152151Y-12433174D02*
X-5133104Y-12442698D01*
X-5133104Y-12442698D02*
X-5123580Y-12452222D01*
X-5123580Y-12452222D02*
X-5114056Y-12471269D01*
X-5114056Y-12471269D02*
X-5114056Y-12518888D01*
X-5114056Y-12518888D02*
X-5123580Y-12537936D01*
X-5123580Y-12537936D02*
X-5133104Y-12547460D01*
X-5133104Y-12547460D02*
X-5152151Y-12556984D01*
X-5152151Y-12556984D02*
X-5209294Y-12556984D01*
X-5209294Y-12556984D02*
X-5228342Y-12547460D01*
X-5228342Y-12547460D02*
X-5237866Y-12537936D01*
X-5037866Y-12356984D02*
X-5037866Y-12395079D01*
X-4961675Y-12356984D02*
X-4961675Y-12395079D01*
X-4666437Y-12633174D02*
X-4675961Y-12623650D01*
X-4675961Y-12623650D02*
X-4695009Y-12595079D01*
X-4695009Y-12595079D02*
X-4704532Y-12576031D01*
X-4704532Y-12576031D02*
X-4714056Y-12547460D01*
X-4714056Y-12547460D02*
X-4723580Y-12499841D01*
X-4723580Y-12499841D02*
X-4723580Y-12461746D01*
X-4723580Y-12461746D02*
X-4714056Y-12414127D01*
X-4714056Y-12414127D02*
X-4704532Y-12385555D01*
X-4704532Y-12385555D02*
X-4695009Y-12366508D01*
X-4695009Y-12366508D02*
X-4675961Y-12337936D01*
X-4675961Y-12337936D02*
X-4666437Y-12328412D01*
X-4485485Y-12556984D02*
X-4599770Y-12556984D01*
X-4542628Y-12556984D02*
X-4542628Y-12356984D01*
X-4542628Y-12356984D02*
X-4561675Y-12385555D01*
X-4561675Y-12385555D02*
X-4580723Y-12404603D01*
X-4580723Y-12404603D02*
X-4599770Y-12414127D01*
X-4314056Y-12356984D02*
X-4352151Y-12356984D01*
X-4352151Y-12356984D02*
X-4371199Y-12366508D01*
X-4371199Y-12366508D02*
X-4380723Y-12376031D01*
X-4380723Y-12376031D02*
X-4399770Y-12404603D01*
X-4399770Y-12404603D02*
X-4409294Y-12442698D01*
X-4409294Y-12442698D02*
X-4409294Y-12518888D01*
X-4409294Y-12518888D02*
X-4399770Y-12537936D01*
X-4399770Y-12537936D02*
X-4390247Y-12547460D01*
X-4390247Y-12547460D02*
X-4371199Y-12556984D01*
X-4371199Y-12556984D02*
X-4333104Y-12556984D01*
X-4333104Y-12556984D02*
X-4314056Y-12547460D01*
X-4314056Y-12547460D02*
X-4304532Y-12537936D01*
X-4304532Y-12537936D02*
X-4295009Y-12518888D01*
X-4295009Y-12518888D02*
X-4295009Y-12471269D01*
X-4295009Y-12471269D02*
X-4304532Y-12452222D01*
X-4304532Y-12452222D02*
X-4314056Y-12442698D01*
X-4314056Y-12442698D02*
X-4333104Y-12433174D01*
X-4333104Y-12433174D02*
X-4371199Y-12433174D01*
X-4371199Y-12433174D02*
X-4390247Y-12442698D01*
X-4390247Y-12442698D02*
X-4399770Y-12452222D01*
X-4399770Y-12452222D02*
X-4409294Y-12471269D01*
X-4056913Y-12556984D02*
X-4056913Y-12356984D01*
X-3971199Y-12556984D02*
X-3971199Y-12452222D01*
X-3971199Y-12452222D02*
X-3980723Y-12433174D01*
X-3980723Y-12433174D02*
X-3999770Y-12423650D01*
X-3999770Y-12423650D02*
X-4028342Y-12423650D01*
X-4028342Y-12423650D02*
X-4047389Y-12433174D01*
X-4047389Y-12433174D02*
X-4056913Y-12442698D01*
X-3847389Y-12556984D02*
X-3866437Y-12547460D01*
X-3866437Y-12547460D02*
X-3875961Y-12537936D01*
X-3875961Y-12537936D02*
X-3885485Y-12518888D01*
X-3885485Y-12518888D02*
X-3885485Y-12461746D01*
X-3885485Y-12461746D02*
X-3875961Y-12442698D01*
X-3875961Y-12442698D02*
X-3866437Y-12433174D01*
X-3866437Y-12433174D02*
X-3847389Y-12423650D01*
X-3847389Y-12423650D02*
X-3818818Y-12423650D01*
X-3818818Y-12423650D02*
X-3799770Y-12433174D01*
X-3799770Y-12433174D02*
X-3790246Y-12442698D01*
X-3790246Y-12442698D02*
X-3780723Y-12461746D01*
X-3780723Y-12461746D02*
X-3780723Y-12518888D01*
X-3780723Y-12518888D02*
X-3790246Y-12537936D01*
X-3790246Y-12537936D02*
X-3799770Y-12547460D01*
X-3799770Y-12547460D02*
X-3818818Y-12556984D01*
X-3818818Y-12556984D02*
X-3847389Y-12556984D01*
X-3666437Y-12556984D02*
X-3685485Y-12547460D01*
X-3685485Y-12547460D02*
X-3695008Y-12528412D01*
X-3695008Y-12528412D02*
X-3695008Y-12356984D01*
X-3514056Y-12547460D02*
X-3533104Y-12556984D01*
X-3533104Y-12556984D02*
X-3571199Y-12556984D01*
X-3571199Y-12556984D02*
X-3590246Y-12547460D01*
X-3590246Y-12547460D02*
X-3599770Y-12528412D01*
X-3599770Y-12528412D02*
X-3599770Y-12452222D01*
X-3599770Y-12452222D02*
X-3590246Y-12433174D01*
X-3590246Y-12433174D02*
X-3571199Y-12423650D01*
X-3571199Y-12423650D02*
X-3533104Y-12423650D01*
X-3533104Y-12423650D02*
X-3514056Y-12433174D01*
X-3514056Y-12433174D02*
X-3504532Y-12452222D01*
X-3504532Y-12452222D02*
X-3504532Y-12471269D01*
X-3504532Y-12471269D02*
X-3599770Y-12490317D01*
X-3428342Y-12547460D02*
X-3409294Y-12556984D01*
X-3409294Y-12556984D02*
X-3371199Y-12556984D01*
X-3371199Y-12556984D02*
X-3352151Y-12547460D01*
X-3352151Y-12547460D02*
X-3342627Y-12528412D01*
X-3342627Y-12528412D02*
X-3342627Y-12518888D01*
X-3342627Y-12518888D02*
X-3352151Y-12499841D01*
X-3352151Y-12499841D02*
X-3371199Y-12490317D01*
X-3371199Y-12490317D02*
X-3399770Y-12490317D01*
X-3399770Y-12490317D02*
X-3418818Y-12480793D01*
X-3418818Y-12480793D02*
X-3428342Y-12461746D01*
X-3428342Y-12461746D02*
X-3428342Y-12452222D01*
X-3428342Y-12452222D02*
X-3418818Y-12433174D01*
X-3418818Y-12433174D02*
X-3399770Y-12423650D01*
X-3399770Y-12423650D02*
X-3371199Y-12423650D01*
X-3371199Y-12423650D02*
X-3352151Y-12433174D01*
X-3275961Y-12633174D02*
X-3266437Y-12623650D01*
X-3266437Y-12623650D02*
X-3247389Y-12595079D01*
X-3247389Y-12595079D02*
X-3237865Y-12576031D01*
X-3237865Y-12576031D02*
X-3228342Y-12547460D01*
X-3228342Y-12547460D02*
X-3218818Y-12499841D01*
X-3218818Y-12499841D02*
X-3218818Y-12461746D01*
X-3218818Y-12461746D02*
X-3228342Y-12414127D01*
X-3228342Y-12414127D02*
X-3237865Y-12385555D01*
X-3237865Y-12385555D02*
X-3247389Y-12366508D01*
X-3247389Y-12366508D02*
X-3266437Y-12337936D01*
X-3266437Y-12337936D02*
X-3275961Y-12328412D01*
D16*
X-8361500Y-12669500D02*
X-8241500Y-12789500D01*
X-8241500Y-12669500D02*
X-8361500Y-12789500D01*
X-8259073Y-12771927D02*
X-8259073Y-12687073D01*
X-8343927Y-12687073D01*
X-8343927Y-12771927D01*
X-8259073Y-12771927D01*
D11*
X-7875961Y-12820984D02*
X-7990247Y-12820984D01*
X-7933104Y-12820984D02*
X-7933104Y-12620984D01*
X-7933104Y-12620984D02*
X-7952152Y-12649555D01*
X-7952152Y-12649555D02*
X-7971199Y-12668603D01*
X-7971199Y-12668603D02*
X-7990247Y-12678127D01*
X-7790247Y-12801936D02*
X-7780723Y-12811460D01*
X-7780723Y-12811460D02*
X-7790247Y-12820984D01*
X-7790247Y-12820984D02*
X-7799771Y-12811460D01*
X-7799771Y-12811460D02*
X-7790247Y-12801936D01*
X-7790247Y-12801936D02*
X-7790247Y-12820984D01*
X-7704533Y-12640031D02*
X-7695009Y-12630508D01*
X-7695009Y-12630508D02*
X-7675961Y-12620984D01*
X-7675961Y-12620984D02*
X-7628342Y-12620984D01*
X-7628342Y-12620984D02*
X-7609294Y-12630508D01*
X-7609294Y-12630508D02*
X-7599771Y-12640031D01*
X-7599771Y-12640031D02*
X-7590247Y-12659079D01*
X-7590247Y-12659079D02*
X-7590247Y-12678127D01*
X-7590247Y-12678127D02*
X-7599771Y-12706698D01*
X-7599771Y-12706698D02*
X-7714056Y-12820984D01*
X-7714056Y-12820984D02*
X-7590247Y-12820984D01*
X-7466437Y-12620984D02*
X-7447390Y-12620984D01*
X-7447390Y-12620984D02*
X-7428342Y-12630508D01*
X-7428342Y-12630508D02*
X-7418818Y-12640031D01*
X-7418818Y-12640031D02*
X-7409294Y-12659079D01*
X-7409294Y-12659079D02*
X-7399771Y-12697174D01*
X-7399771Y-12697174D02*
X-7399771Y-12744793D01*
X-7399771Y-12744793D02*
X-7409294Y-12782888D01*
X-7409294Y-12782888D02*
X-7418818Y-12801936D01*
X-7418818Y-12801936D02*
X-7428342Y-12811460D01*
X-7428342Y-12811460D02*
X-7447390Y-12820984D01*
X-7447390Y-12820984D02*
X-7466437Y-12820984D01*
X-7466437Y-12820984D02*
X-7485485Y-12811460D01*
X-7485485Y-12811460D02*
X-7495009Y-12801936D01*
X-7495009Y-12801936D02*
X-7504533Y-12782888D01*
X-7504533Y-12782888D02*
X-7514056Y-12744793D01*
X-7514056Y-12744793D02*
X-7514056Y-12697174D01*
X-7514056Y-12697174D02*
X-7504533Y-12659079D01*
X-7504533Y-12659079D02*
X-7495009Y-12640031D01*
X-7495009Y-12640031D02*
X-7485485Y-12630508D01*
X-7485485Y-12630508D02*
X-7466437Y-12620984D01*
X-7275961Y-12620984D02*
X-7256913Y-12620984D01*
X-7256913Y-12620984D02*
X-7237866Y-12630508D01*
X-7237866Y-12630508D02*
X-7228342Y-12640031D01*
X-7228342Y-12640031D02*
X-7218818Y-12659079D01*
X-7218818Y-12659079D02*
X-7209294Y-12697174D01*
X-7209294Y-12697174D02*
X-7209294Y-12744793D01*
X-7209294Y-12744793D02*
X-7218818Y-12782888D01*
X-7218818Y-12782888D02*
X-7228342Y-12801936D01*
X-7228342Y-12801936D02*
X-7237866Y-12811460D01*
X-7237866Y-12811460D02*
X-7256913Y-12820984D01*
X-7256913Y-12820984D02*
X-7275961Y-12820984D01*
X-7275961Y-12820984D02*
X-7295009Y-12811460D01*
X-7295009Y-12811460D02*
X-7304533Y-12801936D01*
X-7304533Y-12801936D02*
X-7314056Y-12782888D01*
X-7314056Y-12782888D02*
X-7323580Y-12744793D01*
X-7323580Y-12744793D02*
X-7323580Y-12697174D01*
X-7323580Y-12697174D02*
X-7314056Y-12659079D01*
X-7314056Y-12659079D02*
X-7304533Y-12640031D01*
X-7304533Y-12640031D02*
X-7295009Y-12630508D01*
X-7295009Y-12630508D02*
X-7275961Y-12620984D01*
X-7123580Y-12820984D02*
X-7123580Y-12687650D01*
X-7123580Y-12706698D02*
X-7114056Y-12697174D01*
X-7114056Y-12697174D02*
X-7095009Y-12687650D01*
X-7095009Y-12687650D02*
X-7066437Y-12687650D01*
X-7066437Y-12687650D02*
X-7047390Y-12697174D01*
X-7047390Y-12697174D02*
X-7037866Y-12716222D01*
X-7037866Y-12716222D02*
X-7037866Y-12820984D01*
X-7037866Y-12716222D02*
X-7028342Y-12697174D01*
X-7028342Y-12697174D02*
X-7009294Y-12687650D01*
X-7009294Y-12687650D02*
X-6980723Y-12687650D01*
X-6980723Y-12687650D02*
X-6961675Y-12697174D01*
X-6961675Y-12697174D02*
X-6952152Y-12716222D01*
X-6952152Y-12716222D02*
X-6952152Y-12820984D01*
X-6856913Y-12820984D02*
X-6856913Y-12687650D01*
X-6856913Y-12706698D02*
X-6847390Y-12697174D01*
X-6847390Y-12697174D02*
X-6828342Y-12687650D01*
X-6828342Y-12687650D02*
X-6799771Y-12687650D01*
X-6799771Y-12687650D02*
X-6780723Y-12697174D01*
X-6780723Y-12697174D02*
X-6771199Y-12716222D01*
X-6771199Y-12716222D02*
X-6771199Y-12820984D01*
X-6771199Y-12716222D02*
X-6761675Y-12697174D01*
X-6761675Y-12697174D02*
X-6742628Y-12687650D01*
X-6742628Y-12687650D02*
X-6714056Y-12687650D01*
X-6714056Y-12687650D02*
X-6695009Y-12697174D01*
X-6695009Y-12697174D02*
X-6685485Y-12716222D01*
X-6685485Y-12716222D02*
X-6685485Y-12820984D01*
X-6295009Y-12611460D02*
X-6466437Y-12868603D01*
X-6037866Y-12620984D02*
X-6018818Y-12620984D01*
X-6018818Y-12620984D02*
X-5999770Y-12630508D01*
X-5999770Y-12630508D02*
X-5990247Y-12640031D01*
X-5990247Y-12640031D02*
X-5980723Y-12659079D01*
X-5980723Y-12659079D02*
X-5971199Y-12697174D01*
X-5971199Y-12697174D02*
X-5971199Y-12744793D01*
X-5971199Y-12744793D02*
X-5980723Y-12782888D01*
X-5980723Y-12782888D02*
X-5990247Y-12801936D01*
X-5990247Y-12801936D02*
X-5999770Y-12811460D01*
X-5999770Y-12811460D02*
X-6018818Y-12820984D01*
X-6018818Y-12820984D02*
X-6037866Y-12820984D01*
X-6037866Y-12820984D02*
X-6056913Y-12811460D01*
X-6056913Y-12811460D02*
X-6066437Y-12801936D01*
X-6066437Y-12801936D02*
X-6075961Y-12782888D01*
X-6075961Y-12782888D02*
X-6085485Y-12744793D01*
X-6085485Y-12744793D02*
X-6085485Y-12697174D01*
X-6085485Y-12697174D02*
X-6075961Y-12659079D01*
X-6075961Y-12659079D02*
X-6066437Y-12640031D01*
X-6066437Y-12640031D02*
X-6056913Y-12630508D01*
X-6056913Y-12630508D02*
X-6037866Y-12620984D01*
X-5885485Y-12801936D02*
X-5875961Y-12811460D01*
X-5875961Y-12811460D02*
X-5885485Y-12820984D01*
X-5885485Y-12820984D02*
X-5895009Y-12811460D01*
X-5895009Y-12811460D02*
X-5885485Y-12801936D01*
X-5885485Y-12801936D02*
X-5885485Y-12820984D01*
X-5752151Y-12620984D02*
X-5733104Y-12620984D01*
X-5733104Y-12620984D02*
X-5714056Y-12630508D01*
X-5714056Y-12630508D02*
X-5704532Y-12640031D01*
X-5704532Y-12640031D02*
X-5695009Y-12659079D01*
X-5695009Y-12659079D02*
X-5685485Y-12697174D01*
X-5685485Y-12697174D02*
X-5685485Y-12744793D01*
X-5685485Y-12744793D02*
X-5695009Y-12782888D01*
X-5695009Y-12782888D02*
X-5704532Y-12801936D01*
X-5704532Y-12801936D02*
X-5714056Y-12811460D01*
X-5714056Y-12811460D02*
X-5733104Y-12820984D01*
X-5733104Y-12820984D02*
X-5752151Y-12820984D01*
X-5752151Y-12820984D02*
X-5771199Y-12811460D01*
X-5771199Y-12811460D02*
X-5780723Y-12801936D01*
X-5780723Y-12801936D02*
X-5790247Y-12782888D01*
X-5790247Y-12782888D02*
X-5799770Y-12744793D01*
X-5799770Y-12744793D02*
X-5799770Y-12697174D01*
X-5799770Y-12697174D02*
X-5790247Y-12659079D01*
X-5790247Y-12659079D02*
X-5780723Y-12640031D01*
X-5780723Y-12640031D02*
X-5771199Y-12630508D01*
X-5771199Y-12630508D02*
X-5752151Y-12620984D01*
X-5514056Y-12687650D02*
X-5514056Y-12820984D01*
X-5561675Y-12611460D02*
X-5609294Y-12754317D01*
X-5609294Y-12754317D02*
X-5485485Y-12754317D01*
X-5428342Y-12620984D02*
X-5295009Y-12620984D01*
X-5295009Y-12620984D02*
X-5380723Y-12820984D01*
X-5228342Y-12640031D02*
X-5218818Y-12630508D01*
X-5218818Y-12630508D02*
X-5199771Y-12620984D01*
X-5199771Y-12620984D02*
X-5152151Y-12620984D01*
X-5152151Y-12620984D02*
X-5133104Y-12630508D01*
X-5133104Y-12630508D02*
X-5123580Y-12640031D01*
X-5123580Y-12640031D02*
X-5114056Y-12659079D01*
X-5114056Y-12659079D02*
X-5114056Y-12678127D01*
X-5114056Y-12678127D02*
X-5123580Y-12706698D01*
X-5123580Y-12706698D02*
X-5237866Y-12820984D01*
X-5237866Y-12820984D02*
X-5114056Y-12820984D01*
X-5037866Y-12620984D02*
X-5037866Y-12659079D01*
X-4961675Y-12620984D02*
X-4961675Y-12659079D01*
X-4666437Y-12897174D02*
X-4675961Y-12887650D01*
X-4675961Y-12887650D02*
X-4695009Y-12859079D01*
X-4695009Y-12859079D02*
X-4704532Y-12840031D01*
X-4704532Y-12840031D02*
X-4714056Y-12811460D01*
X-4714056Y-12811460D02*
X-4723580Y-12763841D01*
X-4723580Y-12763841D02*
X-4723580Y-12725746D01*
X-4723580Y-12725746D02*
X-4714056Y-12678127D01*
X-4714056Y-12678127D02*
X-4704532Y-12649555D01*
X-4704532Y-12649555D02*
X-4695009Y-12630508D01*
X-4695009Y-12630508D02*
X-4675961Y-12601936D01*
X-4675961Y-12601936D02*
X-4666437Y-12592412D01*
X-4504532Y-12620984D02*
X-4542628Y-12620984D01*
X-4542628Y-12620984D02*
X-4561675Y-12630508D01*
X-4561675Y-12630508D02*
X-4571199Y-12640031D01*
X-4571199Y-12640031D02*
X-4590247Y-12668603D01*
X-4590247Y-12668603D02*
X-4599770Y-12706698D01*
X-4599770Y-12706698D02*
X-4599770Y-12782888D01*
X-4599770Y-12782888D02*
X-4590247Y-12801936D01*
X-4590247Y-12801936D02*
X-4580723Y-12811460D01*
X-4580723Y-12811460D02*
X-4561675Y-12820984D01*
X-4561675Y-12820984D02*
X-4523580Y-12820984D01*
X-4523580Y-12820984D02*
X-4504532Y-12811460D01*
X-4504532Y-12811460D02*
X-4495009Y-12801936D01*
X-4495009Y-12801936D02*
X-4485485Y-12782888D01*
X-4485485Y-12782888D02*
X-4485485Y-12735269D01*
X-4485485Y-12735269D02*
X-4495009Y-12716222D01*
X-4495009Y-12716222D02*
X-4504532Y-12706698D01*
X-4504532Y-12706698D02*
X-4523580Y-12697174D01*
X-4523580Y-12697174D02*
X-4561675Y-12697174D01*
X-4561675Y-12697174D02*
X-4580723Y-12706698D01*
X-4580723Y-12706698D02*
X-4590247Y-12716222D01*
X-4590247Y-12716222D02*
X-4599770Y-12735269D01*
X-4247389Y-12820984D02*
X-4247389Y-12620984D01*
X-4161675Y-12820984D02*
X-4161675Y-12716222D01*
X-4161675Y-12716222D02*
X-4171199Y-12697174D01*
X-4171199Y-12697174D02*
X-4190246Y-12687650D01*
X-4190246Y-12687650D02*
X-4218818Y-12687650D01*
X-4218818Y-12687650D02*
X-4237866Y-12697174D01*
X-4237866Y-12697174D02*
X-4247389Y-12706698D01*
X-4037866Y-12820984D02*
X-4056913Y-12811460D01*
X-4056913Y-12811460D02*
X-4066437Y-12801936D01*
X-4066437Y-12801936D02*
X-4075961Y-12782888D01*
X-4075961Y-12782888D02*
X-4075961Y-12725746D01*
X-4075961Y-12725746D02*
X-4066437Y-12706698D01*
X-4066437Y-12706698D02*
X-4056913Y-12697174D01*
X-4056913Y-12697174D02*
X-4037866Y-12687650D01*
X-4037866Y-12687650D02*
X-4009294Y-12687650D01*
X-4009294Y-12687650D02*
X-3990246Y-12697174D01*
X-3990246Y-12697174D02*
X-3980723Y-12706698D01*
X-3980723Y-12706698D02*
X-3971199Y-12725746D01*
X-3971199Y-12725746D02*
X-3971199Y-12782888D01*
X-3971199Y-12782888D02*
X-3980723Y-12801936D01*
X-3980723Y-12801936D02*
X-3990246Y-12811460D01*
X-3990246Y-12811460D02*
X-4009294Y-12820984D01*
X-4009294Y-12820984D02*
X-4037866Y-12820984D01*
X-3856913Y-12820984D02*
X-3875961Y-12811460D01*
X-3875961Y-12811460D02*
X-3885485Y-12792412D01*
X-3885485Y-12792412D02*
X-3885485Y-12620984D01*
X-3704532Y-12811460D02*
X-3723580Y-12820984D01*
X-3723580Y-12820984D02*
X-3761675Y-12820984D01*
X-3761675Y-12820984D02*
X-3780723Y-12811460D01*
X-3780723Y-12811460D02*
X-3790246Y-12792412D01*
X-3790246Y-12792412D02*
X-3790246Y-12716222D01*
X-3790246Y-12716222D02*
X-3780723Y-12697174D01*
X-3780723Y-12697174D02*
X-3761675Y-12687650D01*
X-3761675Y-12687650D02*
X-3723580Y-12687650D01*
X-3723580Y-12687650D02*
X-3704532Y-12697174D01*
X-3704532Y-12697174D02*
X-3695008Y-12716222D01*
X-3695008Y-12716222D02*
X-3695008Y-12735269D01*
X-3695008Y-12735269D02*
X-3790246Y-12754317D01*
X-3618818Y-12811460D02*
X-3599770Y-12820984D01*
X-3599770Y-12820984D02*
X-3561675Y-12820984D01*
X-3561675Y-12820984D02*
X-3542627Y-12811460D01*
X-3542627Y-12811460D02*
X-3533104Y-12792412D01*
X-3533104Y-12792412D02*
X-3533104Y-12782888D01*
X-3533104Y-12782888D02*
X-3542627Y-12763841D01*
X-3542627Y-12763841D02*
X-3561675Y-12754317D01*
X-3561675Y-12754317D02*
X-3590246Y-12754317D01*
X-3590246Y-12754317D02*
X-3609294Y-12744793D01*
X-3609294Y-12744793D02*
X-3618818Y-12725746D01*
X-3618818Y-12725746D02*
X-3618818Y-12716222D01*
X-3618818Y-12716222D02*
X-3609294Y-12697174D01*
X-3609294Y-12697174D02*
X-3590246Y-12687650D01*
X-3590246Y-12687650D02*
X-3561675Y-12687650D01*
X-3561675Y-12687650D02*
X-3542627Y-12697174D01*
X-3466437Y-12897174D02*
X-3456913Y-12887650D01*
X-3456913Y-12887650D02*
X-3437865Y-12859079D01*
X-3437865Y-12859079D02*
X-3428342Y-12840031D01*
X-3428342Y-12840031D02*
X-3418818Y-12811460D01*
X-3418818Y-12811460D02*
X-3409294Y-12763841D01*
X-3409294Y-12763841D02*
X-3409294Y-12725746D01*
X-3409294Y-12725746D02*
X-3418818Y-12678127D01*
X-3418818Y-12678127D02*
X-3428342Y-12649555D01*
X-3428342Y-12649555D02*
X-3437865Y-12630508D01*
X-3437865Y-12630508D02*
X-3456913Y-12601936D01*
X-3456913Y-12601936D02*
X-3466437Y-12592412D01*
D17*
X-8421500Y-12903500D02*
X-8241500Y-13083500D01*
X-8241500Y-12903500D02*
X-8421500Y-13083500D01*
X-8331500Y-13083500D02*
X-8241500Y-12993500D01*
X-8331500Y-12903500D01*
X-8421500Y-12993500D01*
X-8331500Y-13083500D01*
D11*
X-7875961Y-13084984D02*
X-7990247Y-13084984D01*
X-7933104Y-13084984D02*
X-7933104Y-12884984D01*
X-7933104Y-12884984D02*
X-7952152Y-12913555D01*
X-7952152Y-12913555D02*
X-7971199Y-12932603D01*
X-7971199Y-12932603D02*
X-7990247Y-12942127D01*
X-7790247Y-13065936D02*
X-7780723Y-13075460D01*
X-7780723Y-13075460D02*
X-7790247Y-13084984D01*
X-7790247Y-13084984D02*
X-7799771Y-13075460D01*
X-7799771Y-13075460D02*
X-7790247Y-13065936D01*
X-7790247Y-13065936D02*
X-7790247Y-13084984D01*
X-7666437Y-12970698D02*
X-7685485Y-12961174D01*
X-7685485Y-12961174D02*
X-7695009Y-12951650D01*
X-7695009Y-12951650D02*
X-7704533Y-12932603D01*
X-7704533Y-12932603D02*
X-7704533Y-12923079D01*
X-7704533Y-12923079D02*
X-7695009Y-12904031D01*
X-7695009Y-12904031D02*
X-7685485Y-12894508D01*
X-7685485Y-12894508D02*
X-7666437Y-12884984D01*
X-7666437Y-12884984D02*
X-7628342Y-12884984D01*
X-7628342Y-12884984D02*
X-7609294Y-12894508D01*
X-7609294Y-12894508D02*
X-7599771Y-12904031D01*
X-7599771Y-12904031D02*
X-7590247Y-12923079D01*
X-7590247Y-12923079D02*
X-7590247Y-12932603D01*
X-7590247Y-12932603D02*
X-7599771Y-12951650D01*
X-7599771Y-12951650D02*
X-7609294Y-12961174D01*
X-7609294Y-12961174D02*
X-7628342Y-12970698D01*
X-7628342Y-12970698D02*
X-7666437Y-12970698D01*
X-7666437Y-12970698D02*
X-7685485Y-12980222D01*
X-7685485Y-12980222D02*
X-7695009Y-12989746D01*
X-7695009Y-12989746D02*
X-7704533Y-13008793D01*
X-7704533Y-13008793D02*
X-7704533Y-13046888D01*
X-7704533Y-13046888D02*
X-7695009Y-13065936D01*
X-7695009Y-13065936D02*
X-7685485Y-13075460D01*
X-7685485Y-13075460D02*
X-7666437Y-13084984D01*
X-7666437Y-13084984D02*
X-7628342Y-13084984D01*
X-7628342Y-13084984D02*
X-7609294Y-13075460D01*
X-7609294Y-13075460D02*
X-7599771Y-13065936D01*
X-7599771Y-13065936D02*
X-7590247Y-13046888D01*
X-7590247Y-13046888D02*
X-7590247Y-13008793D01*
X-7590247Y-13008793D02*
X-7599771Y-12989746D01*
X-7599771Y-12989746D02*
X-7609294Y-12980222D01*
X-7609294Y-12980222D02*
X-7628342Y-12970698D01*
X-7466437Y-12884984D02*
X-7447390Y-12884984D01*
X-7447390Y-12884984D02*
X-7428342Y-12894508D01*
X-7428342Y-12894508D02*
X-7418818Y-12904031D01*
X-7418818Y-12904031D02*
X-7409294Y-12923079D01*
X-7409294Y-12923079D02*
X-7399771Y-12961174D01*
X-7399771Y-12961174D02*
X-7399771Y-13008793D01*
X-7399771Y-13008793D02*
X-7409294Y-13046888D01*
X-7409294Y-13046888D02*
X-7418818Y-13065936D01*
X-7418818Y-13065936D02*
X-7428342Y-13075460D01*
X-7428342Y-13075460D02*
X-7447390Y-13084984D01*
X-7447390Y-13084984D02*
X-7466437Y-13084984D01*
X-7466437Y-13084984D02*
X-7485485Y-13075460D01*
X-7485485Y-13075460D02*
X-7495009Y-13065936D01*
X-7495009Y-13065936D02*
X-7504533Y-13046888D01*
X-7504533Y-13046888D02*
X-7514056Y-13008793D01*
X-7514056Y-13008793D02*
X-7514056Y-12961174D01*
X-7514056Y-12961174D02*
X-7504533Y-12923079D01*
X-7504533Y-12923079D02*
X-7495009Y-12904031D01*
X-7495009Y-12904031D02*
X-7485485Y-12894508D01*
X-7485485Y-12894508D02*
X-7466437Y-12884984D01*
X-7275961Y-12884984D02*
X-7256913Y-12884984D01*
X-7256913Y-12884984D02*
X-7237866Y-12894508D01*
X-7237866Y-12894508D02*
X-7228342Y-12904031D01*
X-7228342Y-12904031D02*
X-7218818Y-12923079D01*
X-7218818Y-12923079D02*
X-7209294Y-12961174D01*
X-7209294Y-12961174D02*
X-7209294Y-13008793D01*
X-7209294Y-13008793D02*
X-7218818Y-13046888D01*
X-7218818Y-13046888D02*
X-7228342Y-13065936D01*
X-7228342Y-13065936D02*
X-7237866Y-13075460D01*
X-7237866Y-13075460D02*
X-7256913Y-13084984D01*
X-7256913Y-13084984D02*
X-7275961Y-13084984D01*
X-7275961Y-13084984D02*
X-7295009Y-13075460D01*
X-7295009Y-13075460D02*
X-7304533Y-13065936D01*
X-7304533Y-13065936D02*
X-7314056Y-13046888D01*
X-7314056Y-13046888D02*
X-7323580Y-13008793D01*
X-7323580Y-13008793D02*
X-7323580Y-12961174D01*
X-7323580Y-12961174D02*
X-7314056Y-12923079D01*
X-7314056Y-12923079D02*
X-7304533Y-12904031D01*
X-7304533Y-12904031D02*
X-7295009Y-12894508D01*
X-7295009Y-12894508D02*
X-7275961Y-12884984D01*
X-7123580Y-13084984D02*
X-7123580Y-12951650D01*
X-7123580Y-12970698D02*
X-7114056Y-12961174D01*
X-7114056Y-12961174D02*
X-7095009Y-12951650D01*
X-7095009Y-12951650D02*
X-7066437Y-12951650D01*
X-7066437Y-12951650D02*
X-7047390Y-12961174D01*
X-7047390Y-12961174D02*
X-7037866Y-12980222D01*
X-7037866Y-12980222D02*
X-7037866Y-13084984D01*
X-7037866Y-12980222D02*
X-7028342Y-12961174D01*
X-7028342Y-12961174D02*
X-7009294Y-12951650D01*
X-7009294Y-12951650D02*
X-6980723Y-12951650D01*
X-6980723Y-12951650D02*
X-6961675Y-12961174D01*
X-6961675Y-12961174D02*
X-6952152Y-12980222D01*
X-6952152Y-12980222D02*
X-6952152Y-13084984D01*
X-6856913Y-13084984D02*
X-6856913Y-12951650D01*
X-6856913Y-12970698D02*
X-6847390Y-12961174D01*
X-6847390Y-12961174D02*
X-6828342Y-12951650D01*
X-6828342Y-12951650D02*
X-6799771Y-12951650D01*
X-6799771Y-12951650D02*
X-6780723Y-12961174D01*
X-6780723Y-12961174D02*
X-6771199Y-12980222D01*
X-6771199Y-12980222D02*
X-6771199Y-13084984D01*
X-6771199Y-12980222D02*
X-6761675Y-12961174D01*
X-6761675Y-12961174D02*
X-6742628Y-12951650D01*
X-6742628Y-12951650D02*
X-6714056Y-12951650D01*
X-6714056Y-12951650D02*
X-6695009Y-12961174D01*
X-6695009Y-12961174D02*
X-6685485Y-12980222D01*
X-6685485Y-12980222D02*
X-6685485Y-13084984D01*
X-6295009Y-12875460D02*
X-6466437Y-13132603D01*
X-6037866Y-12884984D02*
X-6018818Y-12884984D01*
X-6018818Y-12884984D02*
X-5999770Y-12894508D01*
X-5999770Y-12894508D02*
X-5990247Y-12904031D01*
X-5990247Y-12904031D02*
X-5980723Y-12923079D01*
X-5980723Y-12923079D02*
X-5971199Y-12961174D01*
X-5971199Y-12961174D02*
X-5971199Y-13008793D01*
X-5971199Y-13008793D02*
X-5980723Y-13046888D01*
X-5980723Y-13046888D02*
X-5990247Y-13065936D01*
X-5990247Y-13065936D02*
X-5999770Y-13075460D01*
X-5999770Y-13075460D02*
X-6018818Y-13084984D01*
X-6018818Y-13084984D02*
X-6037866Y-13084984D01*
X-6037866Y-13084984D02*
X-6056913Y-13075460D01*
X-6056913Y-13075460D02*
X-6066437Y-13065936D01*
X-6066437Y-13065936D02*
X-6075961Y-13046888D01*
X-6075961Y-13046888D02*
X-6085485Y-13008793D01*
X-6085485Y-13008793D02*
X-6085485Y-12961174D01*
X-6085485Y-12961174D02*
X-6075961Y-12923079D01*
X-6075961Y-12923079D02*
X-6066437Y-12904031D01*
X-6066437Y-12904031D02*
X-6056913Y-12894508D01*
X-6056913Y-12894508D02*
X-6037866Y-12884984D01*
X-5885485Y-13065936D02*
X-5875961Y-13075460D01*
X-5875961Y-13075460D02*
X-5885485Y-13084984D01*
X-5885485Y-13084984D02*
X-5895009Y-13075460D01*
X-5895009Y-13075460D02*
X-5885485Y-13065936D01*
X-5885485Y-13065936D02*
X-5885485Y-13084984D01*
X-5752151Y-12884984D02*
X-5733104Y-12884984D01*
X-5733104Y-12884984D02*
X-5714056Y-12894508D01*
X-5714056Y-12894508D02*
X-5704532Y-12904031D01*
X-5704532Y-12904031D02*
X-5695009Y-12923079D01*
X-5695009Y-12923079D02*
X-5685485Y-12961174D01*
X-5685485Y-12961174D02*
X-5685485Y-13008793D01*
X-5685485Y-13008793D02*
X-5695009Y-13046888D01*
X-5695009Y-13046888D02*
X-5704532Y-13065936D01*
X-5704532Y-13065936D02*
X-5714056Y-13075460D01*
X-5714056Y-13075460D02*
X-5733104Y-13084984D01*
X-5733104Y-13084984D02*
X-5752151Y-13084984D01*
X-5752151Y-13084984D02*
X-5771199Y-13075460D01*
X-5771199Y-13075460D02*
X-5780723Y-13065936D01*
X-5780723Y-13065936D02*
X-5790247Y-13046888D01*
X-5790247Y-13046888D02*
X-5799770Y-13008793D01*
X-5799770Y-13008793D02*
X-5799770Y-12961174D01*
X-5799770Y-12961174D02*
X-5790247Y-12923079D01*
X-5790247Y-12923079D02*
X-5780723Y-12904031D01*
X-5780723Y-12904031D02*
X-5771199Y-12894508D01*
X-5771199Y-12894508D02*
X-5752151Y-12884984D01*
X-5618818Y-12884984D02*
X-5485485Y-12884984D01*
X-5485485Y-12884984D02*
X-5571199Y-13084984D01*
X-5371199Y-12884984D02*
X-5352151Y-12884984D01*
X-5352151Y-12884984D02*
X-5333104Y-12894508D01*
X-5333104Y-12894508D02*
X-5323580Y-12904031D01*
X-5323580Y-12904031D02*
X-5314056Y-12923079D01*
X-5314056Y-12923079D02*
X-5304532Y-12961174D01*
X-5304532Y-12961174D02*
X-5304532Y-13008793D01*
X-5304532Y-13008793D02*
X-5314056Y-13046888D01*
X-5314056Y-13046888D02*
X-5323580Y-13065936D01*
X-5323580Y-13065936D02*
X-5333104Y-13075460D01*
X-5333104Y-13075460D02*
X-5352151Y-13084984D01*
X-5352151Y-13084984D02*
X-5371199Y-13084984D01*
X-5371199Y-13084984D02*
X-5390247Y-13075460D01*
X-5390247Y-13075460D02*
X-5399771Y-13065936D01*
X-5399771Y-13065936D02*
X-5409294Y-13046888D01*
X-5409294Y-13046888D02*
X-5418818Y-13008793D01*
X-5418818Y-13008793D02*
X-5418818Y-12961174D01*
X-5418818Y-12961174D02*
X-5409294Y-12923079D01*
X-5409294Y-12923079D02*
X-5399771Y-12904031D01*
X-5399771Y-12904031D02*
X-5390247Y-12894508D01*
X-5390247Y-12894508D02*
X-5371199Y-12884984D01*
X-5209294Y-13084984D02*
X-5171199Y-13084984D01*
X-5171199Y-13084984D02*
X-5152151Y-13075460D01*
X-5152151Y-13075460D02*
X-5142628Y-13065936D01*
X-5142628Y-13065936D02*
X-5123580Y-13037365D01*
X-5123580Y-13037365D02*
X-5114056Y-12999269D01*
X-5114056Y-12999269D02*
X-5114056Y-12923079D01*
X-5114056Y-12923079D02*
X-5123580Y-12904031D01*
X-5123580Y-12904031D02*
X-5133104Y-12894508D01*
X-5133104Y-12894508D02*
X-5152151Y-12884984D01*
X-5152151Y-12884984D02*
X-5190247Y-12884984D01*
X-5190247Y-12884984D02*
X-5209294Y-12894508D01*
X-5209294Y-12894508D02*
X-5218818Y-12904031D01*
X-5218818Y-12904031D02*
X-5228342Y-12923079D01*
X-5228342Y-12923079D02*
X-5228342Y-12970698D01*
X-5228342Y-12970698D02*
X-5218818Y-12989746D01*
X-5218818Y-12989746D02*
X-5209294Y-12999269D01*
X-5209294Y-12999269D02*
X-5190247Y-13008793D01*
X-5190247Y-13008793D02*
X-5152151Y-13008793D01*
X-5152151Y-13008793D02*
X-5133104Y-12999269D01*
X-5133104Y-12999269D02*
X-5123580Y-12989746D01*
X-5123580Y-12989746D02*
X-5114056Y-12970698D01*
X-5037866Y-12884984D02*
X-5037866Y-12923079D01*
X-4961675Y-12884984D02*
X-4961675Y-12923079D01*
X-4666437Y-13161174D02*
X-4675961Y-13151650D01*
X-4675961Y-13151650D02*
X-4695009Y-13123079D01*
X-4695009Y-13123079D02*
X-4704532Y-13104031D01*
X-4704532Y-13104031D02*
X-4714056Y-13075460D01*
X-4714056Y-13075460D02*
X-4723580Y-13027841D01*
X-4723580Y-13027841D02*
X-4723580Y-12989746D01*
X-4723580Y-12989746D02*
X-4714056Y-12942127D01*
X-4714056Y-12942127D02*
X-4704532Y-12913555D01*
X-4704532Y-12913555D02*
X-4695009Y-12894508D01*
X-4695009Y-12894508D02*
X-4675961Y-12865936D01*
X-4675961Y-12865936D02*
X-4666437Y-12856412D01*
X-4599770Y-12904031D02*
X-4590247Y-12894508D01*
X-4590247Y-12894508D02*
X-4571199Y-12884984D01*
X-4571199Y-12884984D02*
X-4523580Y-12884984D01*
X-4523580Y-12884984D02*
X-4504532Y-12894508D01*
X-4504532Y-12894508D02*
X-4495009Y-12904031D01*
X-4495009Y-12904031D02*
X-4485485Y-12923079D01*
X-4485485Y-12923079D02*
X-4485485Y-12942127D01*
X-4485485Y-12942127D02*
X-4495009Y-12970698D01*
X-4495009Y-12970698D02*
X-4609294Y-13084984D01*
X-4609294Y-13084984D02*
X-4485485Y-13084984D01*
X-4247389Y-13084984D02*
X-4247389Y-12884984D01*
X-4161675Y-13084984D02*
X-4161675Y-12980222D01*
X-4161675Y-12980222D02*
X-4171199Y-12961174D01*
X-4171199Y-12961174D02*
X-4190246Y-12951650D01*
X-4190246Y-12951650D02*
X-4218818Y-12951650D01*
X-4218818Y-12951650D02*
X-4237866Y-12961174D01*
X-4237866Y-12961174D02*
X-4247389Y-12970698D01*
X-4037866Y-13084984D02*
X-4056913Y-13075460D01*
X-4056913Y-13075460D02*
X-4066437Y-13065936D01*
X-4066437Y-13065936D02*
X-4075961Y-13046888D01*
X-4075961Y-13046888D02*
X-4075961Y-12989746D01*
X-4075961Y-12989746D02*
X-4066437Y-12970698D01*
X-4066437Y-12970698D02*
X-4056913Y-12961174D01*
X-4056913Y-12961174D02*
X-4037866Y-12951650D01*
X-4037866Y-12951650D02*
X-4009294Y-12951650D01*
X-4009294Y-12951650D02*
X-3990246Y-12961174D01*
X-3990246Y-12961174D02*
X-3980723Y-12970698D01*
X-3980723Y-12970698D02*
X-3971199Y-12989746D01*
X-3971199Y-12989746D02*
X-3971199Y-13046888D01*
X-3971199Y-13046888D02*
X-3980723Y-13065936D01*
X-3980723Y-13065936D02*
X-3990246Y-13075460D01*
X-3990246Y-13075460D02*
X-4009294Y-13084984D01*
X-4009294Y-13084984D02*
X-4037866Y-13084984D01*
X-3856913Y-13084984D02*
X-3875961Y-13075460D01*
X-3875961Y-13075460D02*
X-3885485Y-13056412D01*
X-3885485Y-13056412D02*
X-3885485Y-12884984D01*
X-3704532Y-13075460D02*
X-3723580Y-13084984D01*
X-3723580Y-13084984D02*
X-3761675Y-13084984D01*
X-3761675Y-13084984D02*
X-3780723Y-13075460D01*
X-3780723Y-13075460D02*
X-3790246Y-13056412D01*
X-3790246Y-13056412D02*
X-3790246Y-12980222D01*
X-3790246Y-12980222D02*
X-3780723Y-12961174D01*
X-3780723Y-12961174D02*
X-3761675Y-12951650D01*
X-3761675Y-12951650D02*
X-3723580Y-12951650D01*
X-3723580Y-12951650D02*
X-3704532Y-12961174D01*
X-3704532Y-12961174D02*
X-3695008Y-12980222D01*
X-3695008Y-12980222D02*
X-3695008Y-12999269D01*
X-3695008Y-12999269D02*
X-3790246Y-13018317D01*
X-3618818Y-13075460D02*
X-3599770Y-13084984D01*
X-3599770Y-13084984D02*
X-3561675Y-13084984D01*
X-3561675Y-13084984D02*
X-3542627Y-13075460D01*
X-3542627Y-13075460D02*
X-3533104Y-13056412D01*
X-3533104Y-13056412D02*
X-3533104Y-13046888D01*
X-3533104Y-13046888D02*
X-3542627Y-13027841D01*
X-3542627Y-13027841D02*
X-3561675Y-13018317D01*
X-3561675Y-13018317D02*
X-3590246Y-13018317D01*
X-3590246Y-13018317D02*
X-3609294Y-13008793D01*
X-3609294Y-13008793D02*
X-3618818Y-12989746D01*
X-3618818Y-12989746D02*
X-3618818Y-12980222D01*
X-3618818Y-12980222D02*
X-3609294Y-12961174D01*
X-3609294Y-12961174D02*
X-3590246Y-12951650D01*
X-3590246Y-12951650D02*
X-3561675Y-12951650D01*
X-3561675Y-12951650D02*
X-3542627Y-12961174D01*
X-3466437Y-13161174D02*
X-3456913Y-13151650D01*
X-3456913Y-13151650D02*
X-3437865Y-13123079D01*
X-3437865Y-13123079D02*
X-3428342Y-13104031D01*
X-3428342Y-13104031D02*
X-3418818Y-13075460D01*
X-3418818Y-13075460D02*
X-3409294Y-13027841D01*
X-3409294Y-13027841D02*
X-3409294Y-12989746D01*
X-3409294Y-12989746D02*
X-3418818Y-12942127D01*
X-3418818Y-12942127D02*
X-3428342Y-12913555D01*
X-3428342Y-12913555D02*
X-3437865Y-12894508D01*
X-3437865Y-12894508D02*
X-3456913Y-12865936D01*
X-3456913Y-12865936D02*
X-3466437Y-12856412D01*
X-8341500Y-13193500D02*
X-8341500Y-13393500D01*
X-8441500Y-13293500D02*
X-8241500Y-13293500D01*
X-8241500Y-13293500D02*
G75*
G02*
X-8441500Y-13293500I-100000J0D01*
G01*
X-8441500Y-13293500D02*
G75*
G02*
X-8241500Y-13293500I100000J0D01*
G01*
X-7990247Y-13204031D02*
X-7980723Y-13194508D01*
X-7980723Y-13194508D02*
X-7961675Y-13184984D01*
X-7961675Y-13184984D02*
X-7914056Y-13184984D01*
X-7914056Y-13184984D02*
X-7895009Y-13194508D01*
X-7895009Y-13194508D02*
X-7885485Y-13204031D01*
X-7885485Y-13204031D02*
X-7875961Y-13223079D01*
X-7875961Y-13223079D02*
X-7875961Y-13242127D01*
X-7875961Y-13242127D02*
X-7885485Y-13270698D01*
X-7885485Y-13270698D02*
X-7999771Y-13384984D01*
X-7999771Y-13384984D02*
X-7875961Y-13384984D01*
X-7790247Y-13365936D02*
X-7780723Y-13375460D01*
X-7780723Y-13375460D02*
X-7790247Y-13384984D01*
X-7790247Y-13384984D02*
X-7799771Y-13375460D01*
X-7799771Y-13375460D02*
X-7790247Y-13365936D01*
X-7790247Y-13365936D02*
X-7790247Y-13384984D01*
X-7704533Y-13204031D02*
X-7695009Y-13194508D01*
X-7695009Y-13194508D02*
X-7675961Y-13184984D01*
X-7675961Y-13184984D02*
X-7628342Y-13184984D01*
X-7628342Y-13184984D02*
X-7609294Y-13194508D01*
X-7609294Y-13194508D02*
X-7599771Y-13204031D01*
X-7599771Y-13204031D02*
X-7590247Y-13223079D01*
X-7590247Y-13223079D02*
X-7590247Y-13242127D01*
X-7590247Y-13242127D02*
X-7599771Y-13270698D01*
X-7599771Y-13270698D02*
X-7714056Y-13384984D01*
X-7714056Y-13384984D02*
X-7590247Y-13384984D01*
X-7466437Y-13184984D02*
X-7447390Y-13184984D01*
X-7447390Y-13184984D02*
X-7428342Y-13194508D01*
X-7428342Y-13194508D02*
X-7418818Y-13204031D01*
X-7418818Y-13204031D02*
X-7409294Y-13223079D01*
X-7409294Y-13223079D02*
X-7399771Y-13261174D01*
X-7399771Y-13261174D02*
X-7399771Y-13308793D01*
X-7399771Y-13308793D02*
X-7409294Y-13346888D01*
X-7409294Y-13346888D02*
X-7418818Y-13365936D01*
X-7418818Y-13365936D02*
X-7428342Y-13375460D01*
X-7428342Y-13375460D02*
X-7447390Y-13384984D01*
X-7447390Y-13384984D02*
X-7466437Y-13384984D01*
X-7466437Y-13384984D02*
X-7485485Y-13375460D01*
X-7485485Y-13375460D02*
X-7495009Y-13365936D01*
X-7495009Y-13365936D02*
X-7504533Y-13346888D01*
X-7504533Y-13346888D02*
X-7514056Y-13308793D01*
X-7514056Y-13308793D02*
X-7514056Y-13261174D01*
X-7514056Y-13261174D02*
X-7504533Y-13223079D01*
X-7504533Y-13223079D02*
X-7495009Y-13204031D01*
X-7495009Y-13204031D02*
X-7485485Y-13194508D01*
X-7485485Y-13194508D02*
X-7466437Y-13184984D01*
X-7275961Y-13184984D02*
X-7256913Y-13184984D01*
X-7256913Y-13184984D02*
X-7237866Y-13194508D01*
X-7237866Y-13194508D02*
X-7228342Y-13204031D01*
X-7228342Y-13204031D02*
X-7218818Y-13223079D01*
X-7218818Y-13223079D02*
X-7209294Y-13261174D01*
X-7209294Y-13261174D02*
X-7209294Y-13308793D01*
X-7209294Y-13308793D02*
X-7218818Y-13346888D01*
X-7218818Y-13346888D02*
X-7228342Y-13365936D01*
X-7228342Y-13365936D02*
X-7237866Y-13375460D01*
X-7237866Y-13375460D02*
X-7256913Y-13384984D01*
X-7256913Y-13384984D02*
X-7275961Y-13384984D01*
X-7275961Y-13384984D02*
X-7295009Y-13375460D01*
X-7295009Y-13375460D02*
X-7304533Y-13365936D01*
X-7304533Y-13365936D02*
X-7314056Y-13346888D01*
X-7314056Y-13346888D02*
X-7323580Y-13308793D01*
X-7323580Y-13308793D02*
X-7323580Y-13261174D01*
X-7323580Y-13261174D02*
X-7314056Y-13223079D01*
X-7314056Y-13223079D02*
X-7304533Y-13204031D01*
X-7304533Y-13204031D02*
X-7295009Y-13194508D01*
X-7295009Y-13194508D02*
X-7275961Y-13184984D01*
X-7123580Y-13384984D02*
X-7123580Y-13251650D01*
X-7123580Y-13270698D02*
X-7114056Y-13261174D01*
X-7114056Y-13261174D02*
X-7095009Y-13251650D01*
X-7095009Y-13251650D02*
X-7066437Y-13251650D01*
X-7066437Y-13251650D02*
X-7047390Y-13261174D01*
X-7047390Y-13261174D02*
X-7037866Y-13280222D01*
X-7037866Y-13280222D02*
X-7037866Y-13384984D01*
X-7037866Y-13280222D02*
X-7028342Y-13261174D01*
X-7028342Y-13261174D02*
X-7009294Y-13251650D01*
X-7009294Y-13251650D02*
X-6980723Y-13251650D01*
X-6980723Y-13251650D02*
X-6961675Y-13261174D01*
X-6961675Y-13261174D02*
X-6952152Y-13280222D01*
X-6952152Y-13280222D02*
X-6952152Y-13384984D01*
X-6856913Y-13384984D02*
X-6856913Y-13251650D01*
X-6856913Y-13270698D02*
X-6847390Y-13261174D01*
X-6847390Y-13261174D02*
X-6828342Y-13251650D01*
X-6828342Y-13251650D02*
X-6799771Y-13251650D01*
X-6799771Y-13251650D02*
X-6780723Y-13261174D01*
X-6780723Y-13261174D02*
X-6771199Y-13280222D01*
X-6771199Y-13280222D02*
X-6771199Y-13384984D01*
X-6771199Y-13280222D02*
X-6761675Y-13261174D01*
X-6761675Y-13261174D02*
X-6742628Y-13251650D01*
X-6742628Y-13251650D02*
X-6714056Y-13251650D01*
X-6714056Y-13251650D02*
X-6695009Y-13261174D01*
X-6695009Y-13261174D02*
X-6685485Y-13280222D01*
X-6685485Y-13280222D02*
X-6685485Y-13384984D01*
X-6295009Y-13175460D02*
X-6466437Y-13432603D01*
X-6037866Y-13184984D02*
X-6018818Y-13184984D01*
X-6018818Y-13184984D02*
X-5999770Y-13194508D01*
X-5999770Y-13194508D02*
X-5990247Y-13204031D01*
X-5990247Y-13204031D02*
X-5980723Y-13223079D01*
X-5980723Y-13223079D02*
X-5971199Y-13261174D01*
X-5971199Y-13261174D02*
X-5971199Y-13308793D01*
X-5971199Y-13308793D02*
X-5980723Y-13346888D01*
X-5980723Y-13346888D02*
X-5990247Y-13365936D01*
X-5990247Y-13365936D02*
X-5999770Y-13375460D01*
X-5999770Y-13375460D02*
X-6018818Y-13384984D01*
X-6018818Y-13384984D02*
X-6037866Y-13384984D01*
X-6037866Y-13384984D02*
X-6056913Y-13375460D01*
X-6056913Y-13375460D02*
X-6066437Y-13365936D01*
X-6066437Y-13365936D02*
X-6075961Y-13346888D01*
X-6075961Y-13346888D02*
X-6085485Y-13308793D01*
X-6085485Y-13308793D02*
X-6085485Y-13261174D01*
X-6085485Y-13261174D02*
X-6075961Y-13223079D01*
X-6075961Y-13223079D02*
X-6066437Y-13204031D01*
X-6066437Y-13204031D02*
X-6056913Y-13194508D01*
X-6056913Y-13194508D02*
X-6037866Y-13184984D01*
X-5885485Y-13365936D02*
X-5875961Y-13375460D01*
X-5875961Y-13375460D02*
X-5885485Y-13384984D01*
X-5885485Y-13384984D02*
X-5895009Y-13375460D01*
X-5895009Y-13375460D02*
X-5885485Y-13365936D01*
X-5885485Y-13365936D02*
X-5885485Y-13384984D01*
X-5752151Y-13184984D02*
X-5733104Y-13184984D01*
X-5733104Y-13184984D02*
X-5714056Y-13194508D01*
X-5714056Y-13194508D02*
X-5704532Y-13204031D01*
X-5704532Y-13204031D02*
X-5695009Y-13223079D01*
X-5695009Y-13223079D02*
X-5685485Y-13261174D01*
X-5685485Y-13261174D02*
X-5685485Y-13308793D01*
X-5685485Y-13308793D02*
X-5695009Y-13346888D01*
X-5695009Y-13346888D02*
X-5704532Y-13365936D01*
X-5704532Y-13365936D02*
X-5714056Y-13375460D01*
X-5714056Y-13375460D02*
X-5733104Y-13384984D01*
X-5733104Y-13384984D02*
X-5752151Y-13384984D01*
X-5752151Y-13384984D02*
X-5771199Y-13375460D01*
X-5771199Y-13375460D02*
X-5780723Y-13365936D01*
X-5780723Y-13365936D02*
X-5790247Y-13346888D01*
X-5790247Y-13346888D02*
X-5799770Y-13308793D01*
X-5799770Y-13308793D02*
X-5799770Y-13261174D01*
X-5799770Y-13261174D02*
X-5790247Y-13223079D01*
X-5790247Y-13223079D02*
X-5780723Y-13204031D01*
X-5780723Y-13204031D02*
X-5771199Y-13194508D01*
X-5771199Y-13194508D02*
X-5752151Y-13184984D01*
X-5571199Y-13270698D02*
X-5590247Y-13261174D01*
X-5590247Y-13261174D02*
X-5599770Y-13251650D01*
X-5599770Y-13251650D02*
X-5609294Y-13232603D01*
X-5609294Y-13232603D02*
X-5609294Y-13223079D01*
X-5609294Y-13223079D02*
X-5599770Y-13204031D01*
X-5599770Y-13204031D02*
X-5590247Y-13194508D01*
X-5590247Y-13194508D02*
X-5571199Y-13184984D01*
X-5571199Y-13184984D02*
X-5533104Y-13184984D01*
X-5533104Y-13184984D02*
X-5514056Y-13194508D01*
X-5514056Y-13194508D02*
X-5504532Y-13204031D01*
X-5504532Y-13204031D02*
X-5495009Y-13223079D01*
X-5495009Y-13223079D02*
X-5495009Y-13232603D01*
X-5495009Y-13232603D02*
X-5504532Y-13251650D01*
X-5504532Y-13251650D02*
X-5514056Y-13261174D01*
X-5514056Y-13261174D02*
X-5533104Y-13270698D01*
X-5533104Y-13270698D02*
X-5571199Y-13270698D01*
X-5571199Y-13270698D02*
X-5590247Y-13280222D01*
X-5590247Y-13280222D02*
X-5599770Y-13289746D01*
X-5599770Y-13289746D02*
X-5609294Y-13308793D01*
X-5609294Y-13308793D02*
X-5609294Y-13346888D01*
X-5609294Y-13346888D02*
X-5599770Y-13365936D01*
X-5599770Y-13365936D02*
X-5590247Y-13375460D01*
X-5590247Y-13375460D02*
X-5571199Y-13384984D01*
X-5571199Y-13384984D02*
X-5533104Y-13384984D01*
X-5533104Y-13384984D02*
X-5514056Y-13375460D01*
X-5514056Y-13375460D02*
X-5504532Y-13365936D01*
X-5504532Y-13365936D02*
X-5495009Y-13346888D01*
X-5495009Y-13346888D02*
X-5495009Y-13308793D01*
X-5495009Y-13308793D02*
X-5504532Y-13289746D01*
X-5504532Y-13289746D02*
X-5514056Y-13280222D01*
X-5514056Y-13280222D02*
X-5533104Y-13270698D01*
X-5323580Y-13184984D02*
X-5361675Y-13184984D01*
X-5361675Y-13184984D02*
X-5380723Y-13194508D01*
X-5380723Y-13194508D02*
X-5390247Y-13204031D01*
X-5390247Y-13204031D02*
X-5409294Y-13232603D01*
X-5409294Y-13232603D02*
X-5418818Y-13270698D01*
X-5418818Y-13270698D02*
X-5418818Y-13346888D01*
X-5418818Y-13346888D02*
X-5409294Y-13365936D01*
X-5409294Y-13365936D02*
X-5399771Y-13375460D01*
X-5399771Y-13375460D02*
X-5380723Y-13384984D01*
X-5380723Y-13384984D02*
X-5342628Y-13384984D01*
X-5342628Y-13384984D02*
X-5323580Y-13375460D01*
X-5323580Y-13375460D02*
X-5314056Y-13365936D01*
X-5314056Y-13365936D02*
X-5304532Y-13346888D01*
X-5304532Y-13346888D02*
X-5304532Y-13299269D01*
X-5304532Y-13299269D02*
X-5314056Y-13280222D01*
X-5314056Y-13280222D02*
X-5323580Y-13270698D01*
X-5323580Y-13270698D02*
X-5342628Y-13261174D01*
X-5342628Y-13261174D02*
X-5380723Y-13261174D01*
X-5380723Y-13261174D02*
X-5399771Y-13270698D01*
X-5399771Y-13270698D02*
X-5409294Y-13280222D01*
X-5409294Y-13280222D02*
X-5418818Y-13299269D01*
X-5133104Y-13184984D02*
X-5171199Y-13184984D01*
X-5171199Y-13184984D02*
X-5190247Y-13194508D01*
X-5190247Y-13194508D02*
X-5199771Y-13204031D01*
X-5199771Y-13204031D02*
X-5218818Y-13232603D01*
X-5218818Y-13232603D02*
X-5228342Y-13270698D01*
X-5228342Y-13270698D02*
X-5228342Y-13346888D01*
X-5228342Y-13346888D02*
X-5218818Y-13365936D01*
X-5218818Y-13365936D02*
X-5209294Y-13375460D01*
X-5209294Y-13375460D02*
X-5190247Y-13384984D01*
X-5190247Y-13384984D02*
X-5152151Y-13384984D01*
X-5152151Y-13384984D02*
X-5133104Y-13375460D01*
X-5133104Y-13375460D02*
X-5123580Y-13365936D01*
X-5123580Y-13365936D02*
X-5114056Y-13346888D01*
X-5114056Y-13346888D02*
X-5114056Y-13299269D01*
X-5114056Y-13299269D02*
X-5123580Y-13280222D01*
X-5123580Y-13280222D02*
X-5133104Y-13270698D01*
X-5133104Y-13270698D02*
X-5152151Y-13261174D01*
X-5152151Y-13261174D02*
X-5190247Y-13261174D01*
X-5190247Y-13261174D02*
X-5209294Y-13270698D01*
X-5209294Y-13270698D02*
X-5218818Y-13280222D01*
X-5218818Y-13280222D02*
X-5228342Y-13299269D01*
X-5037866Y-13184984D02*
X-5037866Y-13223079D01*
X-4961675Y-13184984D02*
X-4961675Y-13223079D01*
X-4666437Y-13461174D02*
X-4675961Y-13451650D01*
X-4675961Y-13451650D02*
X-4695009Y-13423079D01*
X-4695009Y-13423079D02*
X-4704532Y-13404031D01*
X-4704532Y-13404031D02*
X-4714056Y-13375460D01*
X-4714056Y-13375460D02*
X-4723580Y-13327841D01*
X-4723580Y-13327841D02*
X-4723580Y-13289746D01*
X-4723580Y-13289746D02*
X-4714056Y-13242127D01*
X-4714056Y-13242127D02*
X-4704532Y-13213555D01*
X-4704532Y-13213555D02*
X-4695009Y-13194508D01*
X-4695009Y-13194508D02*
X-4675961Y-13165936D01*
X-4675961Y-13165936D02*
X-4666437Y-13156412D01*
X-4599770Y-13204031D02*
X-4590247Y-13194508D01*
X-4590247Y-13194508D02*
X-4571199Y-13184984D01*
X-4571199Y-13184984D02*
X-4523580Y-13184984D01*
X-4523580Y-13184984D02*
X-4504532Y-13194508D01*
X-4504532Y-13194508D02*
X-4495009Y-13204031D01*
X-4495009Y-13204031D02*
X-4485485Y-13223079D01*
X-4485485Y-13223079D02*
X-4485485Y-13242127D01*
X-4485485Y-13242127D02*
X-4495009Y-13270698D01*
X-4495009Y-13270698D02*
X-4609294Y-13384984D01*
X-4609294Y-13384984D02*
X-4485485Y-13384984D01*
X-4247389Y-13384984D02*
X-4247389Y-13184984D01*
X-4161675Y-13384984D02*
X-4161675Y-13280222D01*
X-4161675Y-13280222D02*
X-4171199Y-13261174D01*
X-4171199Y-13261174D02*
X-4190246Y-13251650D01*
X-4190246Y-13251650D02*
X-4218818Y-13251650D01*
X-4218818Y-13251650D02*
X-4237866Y-13261174D01*
X-4237866Y-13261174D02*
X-4247389Y-13270698D01*
X-4037866Y-13384984D02*
X-4056913Y-13375460D01*
X-4056913Y-13375460D02*
X-4066437Y-13365936D01*
X-4066437Y-13365936D02*
X-4075961Y-13346888D01*
X-4075961Y-13346888D02*
X-4075961Y-13289746D01*
X-4075961Y-13289746D02*
X-4066437Y-13270698D01*
X-4066437Y-13270698D02*
X-4056913Y-13261174D01*
X-4056913Y-13261174D02*
X-4037866Y-13251650D01*
X-4037866Y-13251650D02*
X-4009294Y-13251650D01*
X-4009294Y-13251650D02*
X-3990246Y-13261174D01*
X-3990246Y-13261174D02*
X-3980723Y-13270698D01*
X-3980723Y-13270698D02*
X-3971199Y-13289746D01*
X-3971199Y-13289746D02*
X-3971199Y-13346888D01*
X-3971199Y-13346888D02*
X-3980723Y-13365936D01*
X-3980723Y-13365936D02*
X-3990246Y-13375460D01*
X-3990246Y-13375460D02*
X-4009294Y-13384984D01*
X-4009294Y-13384984D02*
X-4037866Y-13384984D01*
X-3856913Y-13384984D02*
X-3875961Y-13375460D01*
X-3875961Y-13375460D02*
X-3885485Y-13356412D01*
X-3885485Y-13356412D02*
X-3885485Y-13184984D01*
X-3704532Y-13375460D02*
X-3723580Y-13384984D01*
X-3723580Y-13384984D02*
X-3761675Y-13384984D01*
X-3761675Y-13384984D02*
X-3780723Y-13375460D01*
X-3780723Y-13375460D02*
X-3790246Y-13356412D01*
X-3790246Y-13356412D02*
X-3790246Y-13280222D01*
X-3790246Y-13280222D02*
X-3780723Y-13261174D01*
X-3780723Y-13261174D02*
X-3761675Y-13251650D01*
X-3761675Y-13251650D02*
X-3723580Y-13251650D01*
X-3723580Y-13251650D02*
X-3704532Y-13261174D01*
X-3704532Y-13261174D02*
X-3695008Y-13280222D01*
X-3695008Y-13280222D02*
X-3695008Y-13299269D01*
X-3695008Y-13299269D02*
X-3790246Y-13318317D01*
X-3618818Y-13375460D02*
X-3599770Y-13384984D01*
X-3599770Y-13384984D02*
X-3561675Y-13384984D01*
X-3561675Y-13384984D02*
X-3542627Y-13375460D01*
X-3542627Y-13375460D02*
X-3533104Y-13356412D01*
X-3533104Y-13356412D02*
X-3533104Y-13346888D01*
X-3533104Y-13346888D02*
X-3542627Y-13327841D01*
X-3542627Y-13327841D02*
X-3561675Y-13318317D01*
X-3561675Y-13318317D02*
X-3590246Y-13318317D01*
X-3590246Y-13318317D02*
X-3609294Y-13308793D01*
X-3609294Y-13308793D02*
X-3618818Y-13289746D01*
X-3618818Y-13289746D02*
X-3618818Y-13280222D01*
X-3618818Y-13280222D02*
X-3609294Y-13261174D01*
X-3609294Y-13261174D02*
X-3590246Y-13251650D01*
X-3590246Y-13251650D02*
X-3561675Y-13251650D01*
X-3561675Y-13251650D02*
X-3542627Y-13261174D01*
X-3466437Y-13461174D02*
X-3456913Y-13451650D01*
X-3456913Y-13451650D02*
X-3437865Y-13423079D01*
X-3437865Y-13423079D02*
X-3428342Y-13404031D01*
X-3428342Y-13404031D02*
X-3418818Y-13375460D01*
X-3418818Y-13375460D02*
X-3409294Y-13327841D01*
X-3409294Y-13327841D02*
X-3409294Y-13289746D01*
X-3409294Y-13289746D02*
X-3418818Y-13242127D01*
X-3418818Y-13242127D02*
X-3428342Y-13213555D01*
X-3428342Y-13213555D02*
X-3437865Y-13194508D01*
X-3437865Y-13194508D02*
X-3456913Y-13165936D01*
X-3456913Y-13165936D02*
X-3466437Y-13156412D01*
X-8270789Y-13684211D02*
X-8270789Y-13542789D01*
X-8412211Y-13542789D01*
X-8412211Y-13684211D01*
X-8270789Y-13684211D01*
X-8241500Y-13613500D02*
G75*
G02*
X-8441500Y-13613500I-100000J0D01*
G01*
X-8441500Y-13613500D02*
G75*
G02*
X-8241500Y-13613500I100000J0D01*
G01*
X-7895009Y-13571650D02*
X-7895009Y-13704984D01*
X-7942628Y-13495460D02*
X-7990247Y-13638317D01*
X-7990247Y-13638317D02*
X-7866437Y-13638317D01*
X-7790247Y-13685936D02*
X-7780723Y-13695460D01*
X-7780723Y-13695460D02*
X-7790247Y-13704984D01*
X-7790247Y-13704984D02*
X-7799771Y-13695460D01*
X-7799771Y-13695460D02*
X-7790247Y-13685936D01*
X-7790247Y-13685936D02*
X-7790247Y-13704984D01*
X-7714056Y-13504984D02*
X-7590247Y-13504984D01*
X-7590247Y-13504984D02*
X-7656914Y-13581174D01*
X-7656914Y-13581174D02*
X-7628342Y-13581174D01*
X-7628342Y-13581174D02*
X-7609294Y-13590698D01*
X-7609294Y-13590698D02*
X-7599771Y-13600222D01*
X-7599771Y-13600222D02*
X-7590247Y-13619269D01*
X-7590247Y-13619269D02*
X-7590247Y-13666888D01*
X-7590247Y-13666888D02*
X-7599771Y-13685936D01*
X-7599771Y-13685936D02*
X-7609294Y-13695460D01*
X-7609294Y-13695460D02*
X-7628342Y-13704984D01*
X-7628342Y-13704984D02*
X-7685485Y-13704984D01*
X-7685485Y-13704984D02*
X-7704533Y-13695460D01*
X-7704533Y-13695460D02*
X-7714056Y-13685936D01*
X-7466437Y-13504984D02*
X-7447390Y-13504984D01*
X-7447390Y-13504984D02*
X-7428342Y-13514508D01*
X-7428342Y-13514508D02*
X-7418818Y-13524031D01*
X-7418818Y-13524031D02*
X-7409294Y-13543079D01*
X-7409294Y-13543079D02*
X-7399771Y-13581174D01*
X-7399771Y-13581174D02*
X-7399771Y-13628793D01*
X-7399771Y-13628793D02*
X-7409294Y-13666888D01*
X-7409294Y-13666888D02*
X-7418818Y-13685936D01*
X-7418818Y-13685936D02*
X-7428342Y-13695460D01*
X-7428342Y-13695460D02*
X-7447390Y-13704984D01*
X-7447390Y-13704984D02*
X-7466437Y-13704984D01*
X-7466437Y-13704984D02*
X-7485485Y-13695460D01*
X-7485485Y-13695460D02*
X-7495009Y-13685936D01*
X-7495009Y-13685936D02*
X-7504533Y-13666888D01*
X-7504533Y-13666888D02*
X-7514056Y-13628793D01*
X-7514056Y-13628793D02*
X-7514056Y-13581174D01*
X-7514056Y-13581174D02*
X-7504533Y-13543079D01*
X-7504533Y-13543079D02*
X-7495009Y-13524031D01*
X-7495009Y-13524031D02*
X-7485485Y-13514508D01*
X-7485485Y-13514508D02*
X-7466437Y-13504984D01*
X-7275961Y-13504984D02*
X-7256913Y-13504984D01*
X-7256913Y-13504984D02*
X-7237866Y-13514508D01*
X-7237866Y-13514508D02*
X-7228342Y-13524031D01*
X-7228342Y-13524031D02*
X-7218818Y-13543079D01*
X-7218818Y-13543079D02*
X-7209294Y-13581174D01*
X-7209294Y-13581174D02*
X-7209294Y-13628793D01*
X-7209294Y-13628793D02*
X-7218818Y-13666888D01*
X-7218818Y-13666888D02*
X-7228342Y-13685936D01*
X-7228342Y-13685936D02*
X-7237866Y-13695460D01*
X-7237866Y-13695460D02*
X-7256913Y-13704984D01*
X-7256913Y-13704984D02*
X-7275961Y-13704984D01*
X-7275961Y-13704984D02*
X-7295009Y-13695460D01*
X-7295009Y-13695460D02*
X-7304533Y-13685936D01*
X-7304533Y-13685936D02*
X-7314056Y-13666888D01*
X-7314056Y-13666888D02*
X-7323580Y-13628793D01*
X-7323580Y-13628793D02*
X-7323580Y-13581174D01*
X-7323580Y-13581174D02*
X-7314056Y-13543079D01*
X-7314056Y-13543079D02*
X-7304533Y-13524031D01*
X-7304533Y-13524031D02*
X-7295009Y-13514508D01*
X-7295009Y-13514508D02*
X-7275961Y-13504984D01*
X-7123580Y-13704984D02*
X-7123580Y-13571650D01*
X-7123580Y-13590698D02*
X-7114056Y-13581174D01*
X-7114056Y-13581174D02*
X-7095009Y-13571650D01*
X-7095009Y-13571650D02*
X-7066437Y-13571650D01*
X-7066437Y-13571650D02*
X-7047390Y-13581174D01*
X-7047390Y-13581174D02*
X-7037866Y-13600222D01*
X-7037866Y-13600222D02*
X-7037866Y-13704984D01*
X-7037866Y-13600222D02*
X-7028342Y-13581174D01*
X-7028342Y-13581174D02*
X-7009294Y-13571650D01*
X-7009294Y-13571650D02*
X-6980723Y-13571650D01*
X-6980723Y-13571650D02*
X-6961675Y-13581174D01*
X-6961675Y-13581174D02*
X-6952152Y-13600222D01*
X-6952152Y-13600222D02*
X-6952152Y-13704984D01*
X-6856913Y-13704984D02*
X-6856913Y-13571650D01*
X-6856913Y-13590698D02*
X-6847390Y-13581174D01*
X-6847390Y-13581174D02*
X-6828342Y-13571650D01*
X-6828342Y-13571650D02*
X-6799771Y-13571650D01*
X-6799771Y-13571650D02*
X-6780723Y-13581174D01*
X-6780723Y-13581174D02*
X-6771199Y-13600222D01*
X-6771199Y-13600222D02*
X-6771199Y-13704984D01*
X-6771199Y-13600222D02*
X-6761675Y-13581174D01*
X-6761675Y-13581174D02*
X-6742628Y-13571650D01*
X-6742628Y-13571650D02*
X-6714056Y-13571650D01*
X-6714056Y-13571650D02*
X-6695009Y-13581174D01*
X-6695009Y-13581174D02*
X-6685485Y-13600222D01*
X-6685485Y-13600222D02*
X-6685485Y-13704984D01*
X-6295009Y-13495460D02*
X-6466437Y-13752603D01*
X-6037866Y-13504984D02*
X-6018818Y-13504984D01*
X-6018818Y-13504984D02*
X-5999770Y-13514508D01*
X-5999770Y-13514508D02*
X-5990247Y-13524031D01*
X-5990247Y-13524031D02*
X-5980723Y-13543079D01*
X-5980723Y-13543079D02*
X-5971199Y-13581174D01*
X-5971199Y-13581174D02*
X-5971199Y-13628793D01*
X-5971199Y-13628793D02*
X-5980723Y-13666888D01*
X-5980723Y-13666888D02*
X-5990247Y-13685936D01*
X-5990247Y-13685936D02*
X-5999770Y-13695460D01*
X-5999770Y-13695460D02*
X-6018818Y-13704984D01*
X-6018818Y-13704984D02*
X-6037866Y-13704984D01*
X-6037866Y-13704984D02*
X-6056913Y-13695460D01*
X-6056913Y-13695460D02*
X-6066437Y-13685936D01*
X-6066437Y-13685936D02*
X-6075961Y-13666888D01*
X-6075961Y-13666888D02*
X-6085485Y-13628793D01*
X-6085485Y-13628793D02*
X-6085485Y-13581174D01*
X-6085485Y-13581174D02*
X-6075961Y-13543079D01*
X-6075961Y-13543079D02*
X-6066437Y-13524031D01*
X-6066437Y-13524031D02*
X-6056913Y-13514508D01*
X-6056913Y-13514508D02*
X-6037866Y-13504984D01*
X-5885485Y-13685936D02*
X-5875961Y-13695460D01*
X-5875961Y-13695460D02*
X-5885485Y-13704984D01*
X-5885485Y-13704984D02*
X-5895009Y-13695460D01*
X-5895009Y-13695460D02*
X-5885485Y-13685936D01*
X-5885485Y-13685936D02*
X-5885485Y-13704984D01*
X-5685485Y-13704984D02*
X-5799770Y-13704984D01*
X-5742628Y-13704984D02*
X-5742628Y-13504984D01*
X-5742628Y-13504984D02*
X-5761675Y-13533555D01*
X-5761675Y-13533555D02*
X-5780723Y-13552603D01*
X-5780723Y-13552603D02*
X-5799770Y-13562127D01*
X-5514056Y-13504984D02*
X-5552152Y-13504984D01*
X-5552152Y-13504984D02*
X-5571199Y-13514508D01*
X-5571199Y-13514508D02*
X-5580723Y-13524031D01*
X-5580723Y-13524031D02*
X-5599770Y-13552603D01*
X-5599770Y-13552603D02*
X-5609294Y-13590698D01*
X-5609294Y-13590698D02*
X-5609294Y-13666888D01*
X-5609294Y-13666888D02*
X-5599770Y-13685936D01*
X-5599770Y-13685936D02*
X-5590247Y-13695460D01*
X-5590247Y-13695460D02*
X-5571199Y-13704984D01*
X-5571199Y-13704984D02*
X-5533104Y-13704984D01*
X-5533104Y-13704984D02*
X-5514056Y-13695460D01*
X-5514056Y-13695460D02*
X-5504532Y-13685936D01*
X-5504532Y-13685936D02*
X-5495009Y-13666888D01*
X-5495009Y-13666888D02*
X-5495009Y-13619269D01*
X-5495009Y-13619269D02*
X-5504532Y-13600222D01*
X-5504532Y-13600222D02*
X-5514056Y-13590698D01*
X-5514056Y-13590698D02*
X-5533104Y-13581174D01*
X-5533104Y-13581174D02*
X-5571199Y-13581174D01*
X-5571199Y-13581174D02*
X-5590247Y-13590698D01*
X-5590247Y-13590698D02*
X-5599770Y-13600222D01*
X-5599770Y-13600222D02*
X-5609294Y-13619269D01*
X-5399771Y-13704984D02*
X-5361675Y-13704984D01*
X-5361675Y-13704984D02*
X-5342628Y-13695460D01*
X-5342628Y-13695460D02*
X-5333104Y-13685936D01*
X-5333104Y-13685936D02*
X-5314056Y-13657365D01*
X-5314056Y-13657365D02*
X-5304532Y-13619269D01*
X-5304532Y-13619269D02*
X-5304532Y-13543079D01*
X-5304532Y-13543079D02*
X-5314056Y-13524031D01*
X-5314056Y-13524031D02*
X-5323580Y-13514508D01*
X-5323580Y-13514508D02*
X-5342628Y-13504984D01*
X-5342628Y-13504984D02*
X-5380723Y-13504984D01*
X-5380723Y-13504984D02*
X-5399771Y-13514508D01*
X-5399771Y-13514508D02*
X-5409294Y-13524031D01*
X-5409294Y-13524031D02*
X-5418818Y-13543079D01*
X-5418818Y-13543079D02*
X-5418818Y-13590698D01*
X-5418818Y-13590698D02*
X-5409294Y-13609746D01*
X-5409294Y-13609746D02*
X-5399771Y-13619269D01*
X-5399771Y-13619269D02*
X-5380723Y-13628793D01*
X-5380723Y-13628793D02*
X-5342628Y-13628793D01*
X-5342628Y-13628793D02*
X-5323580Y-13619269D01*
X-5323580Y-13619269D02*
X-5314056Y-13609746D01*
X-5314056Y-13609746D02*
X-5304532Y-13590698D01*
X-5237866Y-13504984D02*
X-5114056Y-13504984D01*
X-5114056Y-13504984D02*
X-5180723Y-13581174D01*
X-5180723Y-13581174D02*
X-5152151Y-13581174D01*
X-5152151Y-13581174D02*
X-5133104Y-13590698D01*
X-5133104Y-13590698D02*
X-5123580Y-13600222D01*
X-5123580Y-13600222D02*
X-5114056Y-13619269D01*
X-5114056Y-13619269D02*
X-5114056Y-13666888D01*
X-5114056Y-13666888D02*
X-5123580Y-13685936D01*
X-5123580Y-13685936D02*
X-5133104Y-13695460D01*
X-5133104Y-13695460D02*
X-5152151Y-13704984D01*
X-5152151Y-13704984D02*
X-5209294Y-13704984D01*
X-5209294Y-13704984D02*
X-5228342Y-13695460D01*
X-5228342Y-13695460D02*
X-5237866Y-13685936D01*
X-5037866Y-13504984D02*
X-5037866Y-13543079D01*
X-4961675Y-13504984D02*
X-4961675Y-13543079D01*
X-4666437Y-13781174D02*
X-4675961Y-13771650D01*
X-4675961Y-13771650D02*
X-4695009Y-13743079D01*
X-4695009Y-13743079D02*
X-4704532Y-13724031D01*
X-4704532Y-13724031D02*
X-4714056Y-13695460D01*
X-4714056Y-13695460D02*
X-4723580Y-13647841D01*
X-4723580Y-13647841D02*
X-4723580Y-13609746D01*
X-4723580Y-13609746D02*
X-4714056Y-13562127D01*
X-4714056Y-13562127D02*
X-4704532Y-13533555D01*
X-4704532Y-13533555D02*
X-4695009Y-13514508D01*
X-4695009Y-13514508D02*
X-4675961Y-13485936D01*
X-4675961Y-13485936D02*
X-4666437Y-13476412D01*
X-4504532Y-13571650D02*
X-4504532Y-13704984D01*
X-4552151Y-13495460D02*
X-4599770Y-13638317D01*
X-4599770Y-13638317D02*
X-4475961Y-13638317D01*
X-4247389Y-13704984D02*
X-4247389Y-13504984D01*
X-4161675Y-13704984D02*
X-4161675Y-13600222D01*
X-4161675Y-13600222D02*
X-4171199Y-13581174D01*
X-4171199Y-13581174D02*
X-4190246Y-13571650D01*
X-4190246Y-13571650D02*
X-4218818Y-13571650D01*
X-4218818Y-13571650D02*
X-4237866Y-13581174D01*
X-4237866Y-13581174D02*
X-4247389Y-13590698D01*
X-4037866Y-13704984D02*
X-4056913Y-13695460D01*
X-4056913Y-13695460D02*
X-4066437Y-13685936D01*
X-4066437Y-13685936D02*
X-4075961Y-13666888D01*
X-4075961Y-13666888D02*
X-4075961Y-13609746D01*
X-4075961Y-13609746D02*
X-4066437Y-13590698D01*
X-4066437Y-13590698D02*
X-4056913Y-13581174D01*
X-4056913Y-13581174D02*
X-4037866Y-13571650D01*
X-4037866Y-13571650D02*
X-4009294Y-13571650D01*
X-4009294Y-13571650D02*
X-3990246Y-13581174D01*
X-3990246Y-13581174D02*
X-3980723Y-13590698D01*
X-3980723Y-13590698D02*
X-3971199Y-13609746D01*
X-3971199Y-13609746D02*
X-3971199Y-13666888D01*
X-3971199Y-13666888D02*
X-3980723Y-13685936D01*
X-3980723Y-13685936D02*
X-3990246Y-13695460D01*
X-3990246Y-13695460D02*
X-4009294Y-13704984D01*
X-4009294Y-13704984D02*
X-4037866Y-13704984D01*
X-3856913Y-13704984D02*
X-3875961Y-13695460D01*
X-3875961Y-13695460D02*
X-3885485Y-13676412D01*
X-3885485Y-13676412D02*
X-3885485Y-13504984D01*
X-3704532Y-13695460D02*
X-3723580Y-13704984D01*
X-3723580Y-13704984D02*
X-3761675Y-13704984D01*
X-3761675Y-13704984D02*
X-3780723Y-13695460D01*
X-3780723Y-13695460D02*
X-3790246Y-13676412D01*
X-3790246Y-13676412D02*
X-3790246Y-13600222D01*
X-3790246Y-13600222D02*
X-3780723Y-13581174D01*
X-3780723Y-13581174D02*
X-3761675Y-13571650D01*
X-3761675Y-13571650D02*
X-3723580Y-13571650D01*
X-3723580Y-13571650D02*
X-3704532Y-13581174D01*
X-3704532Y-13581174D02*
X-3695008Y-13600222D01*
X-3695008Y-13600222D02*
X-3695008Y-13619269D01*
X-3695008Y-13619269D02*
X-3790246Y-13638317D01*
X-3618818Y-13695460D02*
X-3599770Y-13704984D01*
X-3599770Y-13704984D02*
X-3561675Y-13704984D01*
X-3561675Y-13704984D02*
X-3542627Y-13695460D01*
X-3542627Y-13695460D02*
X-3533104Y-13676412D01*
X-3533104Y-13676412D02*
X-3533104Y-13666888D01*
X-3533104Y-13666888D02*
X-3542627Y-13647841D01*
X-3542627Y-13647841D02*
X-3561675Y-13638317D01*
X-3561675Y-13638317D02*
X-3590246Y-13638317D01*
X-3590246Y-13638317D02*
X-3609294Y-13628793D01*
X-3609294Y-13628793D02*
X-3618818Y-13609746D01*
X-3618818Y-13609746D02*
X-3618818Y-13600222D01*
X-3618818Y-13600222D02*
X-3609294Y-13581174D01*
X-3609294Y-13581174D02*
X-3590246Y-13571650D01*
X-3590246Y-13571650D02*
X-3561675Y-13571650D01*
X-3561675Y-13571650D02*
X-3542627Y-13581174D01*
X-3466437Y-13781174D02*
X-3456913Y-13771650D01*
X-3456913Y-13771650D02*
X-3437865Y-13743079D01*
X-3437865Y-13743079D02*
X-3428342Y-13724031D01*
X-3428342Y-13724031D02*
X-3418818Y-13695460D01*
X-3418818Y-13695460D02*
X-3409294Y-13647841D01*
X-3409294Y-13647841D02*
X-3409294Y-13609746D01*
X-3409294Y-13609746D02*
X-3418818Y-13562127D01*
X-3418818Y-13562127D02*
X-3428342Y-13533555D01*
X-3428342Y-13533555D02*
X-3437865Y-13514508D01*
X-3437865Y-13514508D02*
X-3456913Y-13485936D01*
X-3456913Y-13485936D02*
X-3466437Y-13476412D01*
M02*
