%TF.GenerationSoftware,KiCad,Pcbnew,8.0.3*%
%TF.CreationDate,2024-07-01T16:21:36+02:00*%
%TF.ProjectId,bottomPCB,626f7474-6f6d-4504-9342-2e6b69636164,rev?*%
%TF.SameCoordinates,Original*%
%TF.FileFunction,Soldermask,Bot*%
%TF.FilePolarity,Negative*%
%FSLAX46Y46*%
G04 Gerber Fmt 4.6, Leading zero omitted, Abs format (unit mm)*
G04 Created by KiCad (PCBNEW 8.0.3) date 2024-07-01 16:21:36*
%MOMM*%
%LPD*%
G01*
G04 APERTURE LIST*
%ADD10R,1.308000X1.308000*%
%ADD11C,8.600000*%
%ADD12O,3.016000X1.508000*%
%ADD13R,1.700000X1.700000*%
%ADD14O,1.700000X1.700000*%
%ADD15R,2.000000X2.000000*%
%ADD16C,2.000000*%
%ADD17C,3.200000*%
%ADD18C,2.180000*%
%ADD19C,1.530000*%
%ADD20R,1.800000X1.800000*%
%ADD21C,1.800000*%
%ADD22O,1.270000X2.540000*%
%ADD23R,1.108000X1.108000*%
%ADD24C,2.500000*%
%ADD25C,1.524003*%
G04 APERTURE END LIST*
D10*
%TO.C,ESCON-V4*%
X-47574800Y13121400D03*
X-50114800Y13121400D03*
X-52654800Y13121400D03*
X-55194800Y13121400D03*
X-45034800Y13121400D03*
X-57734800Y13121400D03*
%TD*%
D11*
%TO.C,H2*%
X-75000000Y-25000000D03*
%TD*%
D12*
%TO.C,Taster_LED1*%
X8070000Y-89865000D03*
X8070000Y-92405000D03*
X8070000Y-94945000D03*
X8070000Y-97485000D03*
X30930000Y-97485000D03*
X30930000Y-94945000D03*
X30930000Y-92405000D03*
X30930000Y-89865000D03*
%TD*%
D13*
%TO.C,J4*%
X83600000Y-600000D03*
D14*
X81060000Y-600000D03*
X83600000Y-3140000D03*
X81060000Y-3140000D03*
X83600000Y-5679999D03*
X81060000Y-5680000D03*
%TD*%
D11*
%TO.C,H1*%
X10000000Y20000000D03*
%TD*%
%TO.C,H3*%
X95000000Y-25000000D03*
%TD*%
D10*
%TO.C,ESCON-V3*%
X-44425200Y-27121400D03*
X-41885200Y-27121400D03*
X-39345200Y-27121400D03*
X-36805200Y-27121400D03*
X-46965200Y-27121400D03*
X-34265200Y-27121400D03*
%TD*%
D15*
%TO.C,A1*%
X-74156503Y13470003D03*
D16*
X-74156503Y10970003D03*
X-74156503Y8470003D03*
%TD*%
D10*
%TO.C,ESCON-V2*%
X65425200Y-14878600D03*
X62885200Y-14878600D03*
X60345200Y-14878600D03*
X57805200Y-14878600D03*
X67965200Y-14878600D03*
X55265200Y-14878600D03*
%TD*%
%TO.C,ESCON-V1*%
X67574800Y2878600D03*
X70114800Y2878600D03*
X72654800Y2878600D03*
X75194800Y2878600D03*
X65034800Y2878600D03*
X77734800Y2878600D03*
%TD*%
%TO.C,ESCON-V5*%
X-8621400Y-57074800D03*
X-8621400Y-59614800D03*
X-8621400Y-62154800D03*
X-8621400Y-64694800D03*
X-8621400Y-54534800D03*
X-8621400Y-67234800D03*
%TD*%
D17*
%TO.C,CN2*%
X-27000000Y-3000000D03*
X-27000000Y-8000000D03*
%TD*%
D13*
%TO.C,LB-S1*%
X-22025000Y-27750000D03*
D14*
X-22025000Y-25210000D03*
%TD*%
D18*
%TO.C,D36V28FX1*%
X44670000Y11070000D03*
X31170000Y-4930000D03*
D19*
X40500000Y9460000D03*
X40500000Y12000000D03*
X37960000Y12000000D03*
X35420000Y12000000D03*
X32880000Y12000000D03*
X30340000Y12000000D03*
%TD*%
D13*
%TO.C,J3*%
X-3750000Y-35475000D03*
D14*
X-1210000Y-35475000D03*
%TD*%
D15*
%TO.C,A2*%
X94156504Y8529997D03*
D16*
X94156504Y11029997D03*
X94156504Y13529997D03*
%TD*%
D13*
%TO.C,J2*%
X-17000000Y-25000000D03*
D14*
X-17000000Y-27540000D03*
X-14460000Y-25000000D03*
X-14460000Y-27540000D03*
X-11920001Y-25000000D03*
X-11920000Y-27540000D03*
%TD*%
D20*
%TO.C,C-Big1*%
X-78813500Y-17270003D03*
D21*
X-78813500Y-14729997D03*
%TD*%
D13*
%TO.C,LB-L1*%
X86025000Y7250000D03*
D14*
X86025000Y4710000D03*
%TD*%
D22*
%TO.C,Kicker1*%
X-21177750Y18713750D03*
X-18637750Y18713750D03*
X-16097750Y18713750D03*
X-13557750Y18713750D03*
X-11017750Y18713750D03*
X-8477750Y18713750D03*
X-5937750Y18713750D03*
X-3397750Y18713750D03*
D23*
X-22447750Y-4146250D03*
D22*
X-11017750Y-3511250D03*
X-8477750Y-3511250D03*
X-5937749Y-3511250D03*
X-3397750Y-3511250D03*
%TD*%
D24*
%TO.C,U3*%
X-36600000Y-4600000D03*
X-36600000Y-9600000D03*
D21*
X-46600000Y-12600000D03*
X-46600000Y-1600000D03*
%TD*%
D25*
%TO.C,Prog.1*%
X-1500000Y-94500000D03*
X-1500000Y-97040006D03*
X-4040005Y-94499999D03*
X-4040004Y-97040006D03*
X-6580012Y-94500000D03*
X-6580011Y-97040007D03*
X-9120016Y-94500000D03*
X-9120016Y-97040006D03*
%TD*%
D20*
%TO.C,I2C2*%
X25959994Y-62500000D03*
D21*
X28500000Y-62500000D03*
X25959994Y-65040005D03*
X28500000Y-65040005D03*
X25959994Y-67580010D03*
X28500000Y-67580010D03*
%TD*%
D20*
%TO.C,I2C1*%
X25959994Y-43919990D03*
D21*
X28500000Y-43919990D03*
X25959994Y-46459995D03*
X28500000Y-46459995D03*
X25959994Y-49000000D03*
X28500000Y-49000000D03*
%TD*%
D11*
%TO.C,H4*%
X10000000Y-80000000D03*
%TD*%
M02*
