%TF.GenerationSoftware,KiCad,Pcbnew,8.0.3*%
%TF.CreationDate,2024-07-01T16:21:35+02:00*%
%TF.ProjectId,bottomPCB,626f7474-6f6d-4504-9342-2e6b69636164,rev?*%
%TF.SameCoordinates,Original*%
%TF.FileFunction,Paste,Top*%
%TF.FilePolarity,Positive*%
%FSLAX46Y46*%
G04 Gerber Fmt 4.6, Leading zero omitted, Abs format (unit mm)*
G04 Created by KiCad (PCBNEW 8.0.3) date 2024-07-01 16:21:35*
%MOMM*%
%LPD*%
G01*
G04 APERTURE LIST*
%ADD10R,2.464999X1.050013*%
%ADD11R,2.464999X3.540005*%
%ADD12R,1.650013X4.500000*%
%ADD13R,0.806477X0.864008*%
%ADD14R,4.500000X1.650013*%
%ADD15R,2.000000X0.900000*%
%ADD16R,0.900000X2.000000*%
%ADD17R,4.100000X4.100000*%
%ADD18R,0.900000X0.800000*%
%ADD19R,2.264999X1.000000*%
%ADD20R,0.864008X0.806477*%
G04 APERTURE END LIST*
D10*
%TO.C,U9*%
X94142495Y2254812D03*
X94142495Y-45163D03*
X94142495Y-2345138D03*
D11*
X99857507Y-45163D03*
%TD*%
D12*
%TO.C,C7*%
X40500000Y-14500127D03*
X40500000Y-23499873D03*
%TD*%
D13*
%TO.C,R3*%
X26500000Y-10500000D03*
X24993268Y-10500000D03*
%TD*%
D14*
%TO.C,C8*%
X26500127Y20000000D03*
X35499873Y20000000D03*
%TD*%
D13*
%TO.C,R8*%
X-1707518Y-75552653D03*
X-200786Y-75552653D03*
%TD*%
D15*
%TO.C,U2*%
X1769622Y-7823381D03*
X1769622Y-9093384D03*
X1769622Y-10363386D03*
X1769622Y-11633389D03*
X1769622Y-12903391D03*
X1769622Y-14173394D03*
X1769622Y-15443396D03*
X1769622Y-16713399D03*
X1769622Y-17983402D03*
X1769622Y-19253404D03*
X1769622Y-20523407D03*
X1769622Y-21793409D03*
X1769622Y-23063412D03*
X1769622Y-24333414D03*
D16*
X5054610Y-25833541D03*
X6324613Y-25833541D03*
X7594615Y-25833541D03*
X8864618Y-25833541D03*
X10134620Y-25833541D03*
X11404623Y-25833541D03*
X12674625Y-25833541D03*
X13944628Y-25833541D03*
X15214630Y-25833541D03*
X16484633Y-25833541D03*
D15*
X19769622Y-24333414D03*
X19769622Y-23063412D03*
X19769622Y-21793409D03*
X19769622Y-20523407D03*
X19769622Y-19253404D03*
X19769622Y-17983402D03*
X19769622Y-16713399D03*
X19769622Y-15443396D03*
X19769622Y-14173394D03*
X19769622Y-12903391D03*
X19769622Y-11633389D03*
X19769622Y-10363386D03*
X19769622Y-9093384D03*
X19769622Y-7823381D03*
D17*
X10089662Y-15163742D03*
%TD*%
D10*
%TO.C,U8*%
X94142494Y-5700025D03*
X94142494Y-8000000D03*
X94142494Y-10299975D03*
D11*
X99857506Y-8000000D03*
%TD*%
D18*
%TO.C,C3*%
X-5000000Y-8700024D03*
X-5000000Y-7299976D03*
%TD*%
D19*
%TO.C,LED1*%
X-9915036Y-75999746D03*
X-9915037Y-77499873D03*
X-9915036Y-79000000D03*
X-5500000Y-79000000D03*
X-5499999Y-77499873D03*
X-5500000Y-75999746D03*
%TD*%
D13*
%TO.C,R7*%
X22993270Y-26000000D03*
X24500000Y-26000000D03*
%TD*%
%TO.C,R9*%
X-1707518Y-77499873D03*
X-200786Y-77499873D03*
%TD*%
%TO.C,R13*%
X-20746634Y-20540000D03*
X-22253366Y-20540000D03*
%TD*%
D20*
%TO.C,R1*%
X-11000000Y-7246634D03*
X-11000000Y-8753366D03*
%TD*%
D13*
%TO.C,R2*%
X26500000Y-14000000D03*
X24993268Y-14000000D03*
%TD*%
D20*
%TO.C,R4*%
X-25500000Y-23746634D03*
X-25500000Y-25253366D03*
%TD*%
%TO.C,R6*%
X-2000000Y-10500000D03*
X-2000000Y-8993268D03*
%TD*%
D12*
%TO.C,C4*%
X11000000Y-56500127D03*
X11000000Y-65499873D03*
%TD*%
D13*
%TO.C,R12*%
X-20746634Y-16500000D03*
X-22253366Y-16500000D03*
%TD*%
D20*
%TO.C,R5*%
X86000000Y2000000D03*
X86000000Y493268D03*
%TD*%
D13*
%TO.C,R11*%
X-20746634Y-18500000D03*
X-22253366Y-18500000D03*
%TD*%
D18*
%TO.C,C6*%
X-32000000Y-8700024D03*
X-32000000Y-7299976D03*
%TD*%
D13*
%TO.C,R10*%
X-1707518Y-79499873D03*
X-200786Y-79499873D03*
%TD*%
D14*
%TO.C,C5*%
X6500127Y-46000000D03*
X15499873Y-46000000D03*
%TD*%
M02*
